<svg xmlns="http://www.w3.org/2000/svg" xmlns:xlink="http://www.w3.org/1999/xlink" width="200" zoomAndPan="magnify" viewBox="0 0 150 149.999998" height="200" preserveAspectRatio="xMidYMid meet" version="1.0"><defs><clipPath id="3d7478f99d"><path d="M 48 99 L 147.9375 99 L 147.9375 150 L 48 150 Z M 48 99 " clip-rule="nonzero"/></clipPath></defs><path fill="#000000" d="M 47.175781 31.539062 C 50.488281 34.738281 54.992188 36.710938 59.957031 36.710938 C 70.097656 36.710938 78.351562 28.480469 78.351562 18.363281 C 78.351562 8.246094 70.097656 0.015625 59.957031 0.015625 C 49.8125 0.015625 41.5625 8.246094 41.5625 18.363281 C 41.5625 22.589844 43.003906 26.484375 45.421875 29.589844 L 39.484375 36.96875 Z M 59.957031 1.953125 C 69.027344 1.953125 76.410156 9.316406 76.410156 18.363281 C 76.410156 27.414062 69.027344 34.773438 59.957031 34.773438 C 50.882812 34.773438 43.503906 27.414062 43.503906 18.363281 C 43.503906 9.316406 50.882812 1.953125 59.957031 1.953125 Z M 59.957031 1.953125 " fill-opacity="1" fill-rule="nonzero"/><path fill="#000000" d="M 48.714844 22.054688 C 49.050781 22.054688 49.21875 21.875 49.21875 21.515625 L 49.203125 20.933594 C 49.203125 20.65625 49.214844 20.355469 49.242188 20.027344 C 49.265625 19.699219 49.289062 19.515625 49.304688 19.472656 C 49.320312 19.433594 49.347656 19.40625 49.378906 19.390625 C 49.605469 19.332031 49.953125 19.273438 50.425781 19.214844 L 51.652344 19.066406 C 51.933594 19.027344 52.128906 18.984375 52.230469 18.941406 C 52.335938 18.898438 52.433594 18.828125 52.523438 18.730469 C 52.613281 18.628906 52.65625 18.550781 52.65625 18.492188 C 52.65625 18.171875 52.425781 18.007812 51.960938 18.007812 C 51.753906 18.007812 51.476562 18.039062 51.136719 18.101562 C 50.726562 18.175781 50.285156 18.238281 49.8125 18.289062 C 49.683594 18.304688 49.554688 18.320312 49.429688 18.339844 C 49.476562 17.535156 49.59375 16.847656 49.789062 16.265625 C 49.96875 16.195312 50.300781 16.128906 50.789062 16.074219 C 51.277344 16.019531 51.710938 15.992188 52.089844 15.992188 C 52.273438 15.992188 52.402344 16 52.484375 16.015625 C 52.53125 16.027344 52.582031 16.035156 52.644531 16.035156 C 52.746094 16.035156 52.835938 16.007812 52.910156 15.960938 L 52.910156 15.964844 C 53.148438 15.828125 53.265625 15.632812 53.265625 15.375 C 53.265625 15.300781 53.1875 15.222656 53.027344 15.132812 C 52.867188 15.042969 52.640625 14.996094 52.351562 14.996094 C 52.074219 14.996094 51.660156 15.027344 51.097656 15.085938 C 50.242188 15.183594 49.75 15.234375 49.632812 15.234375 C 49.511719 15.234375 49.390625 15.222656 49.28125 15.195312 C 49.199219 15.179688 49.125 15.167969 49.050781 15.167969 C 48.941406 15.167969 48.820312 15.230469 48.691406 15.351562 C 48.5625 15.472656 48.496094 15.585938 48.496094 15.695312 C 48.496094 15.773438 48.519531 15.878906 48.5625 16.011719 C 48.59375 16.085938 48.609375 16.171875 48.609375 16.277344 C 48.296875 18.496094 48.140625 19.621094 48.132812 19.65625 C 48.042969 20.394531 47.996094 20.964844 47.996094 21.359375 C 47.996094 21.574219 48.074219 21.742188 48.226562 21.867188 C 48.382812 21.992188 48.542969 22.054688 48.714844 22.054688 Z M 48.714844 22.054688 " fill-opacity="1" fill-rule="nonzero"/><path fill="#000000" d="M 53.609375 21.402344 C 53.90625 21.726562 54.3125 21.890625 54.832031 21.890625 C 55.503906 21.890625 56.105469 21.671875 56.640625 21.230469 C 57.175781 20.789062 57.441406 20.410156 57.441406 20.09375 C 57.441406 19.890625 57.351562 19.789062 57.167969 19.789062 C 57.058594 19.789062 56.945312 19.847656 56.828125 19.96875 C 56.222656 20.601562 55.613281 20.917969 55 20.917969 C 54.78125 20.917969 54.609375 20.851562 54.480469 20.71875 C 54.351562 20.585938 54.285156 20.445312 54.285156 20.300781 C 54.285156 20.210938 54.332031 20.15625 54.421875 20.136719 C 55.21875 19.953125 55.875 19.621094 56.382812 19.140625 C 56.894531 18.660156 57.148438 18.15625 57.148438 17.625 C 57.148438 17.324219 57.046875 17.070312 56.835938 16.851562 C 56.628906 16.636719 56.355469 16.527344 56.011719 16.527344 C 55.324219 16.527344 54.679688 16.902344 54.074219 17.648438 C 53.46875 18.394531 53.167969 19.195312 53.167969 20.046875 C 53.167969 20.628906 53.316406 21.078125 53.609375 21.402344 Z M 55.007812 18.042969 C 55.332031 17.652344 55.628906 17.457031 55.894531 17.457031 C 55.984375 17.457031 56.054688 17.488281 56.113281 17.558594 C 56.167969 17.628906 56.195312 17.710938 56.195312 17.8125 C 56.195312 18.070312 56.011719 18.355469 55.644531 18.667969 C 55.277344 18.980469 54.851562 19.1875 54.367188 19.285156 C 54.472656 18.84375 54.683594 18.429688 55.007812 18.042969 Z M 55.007812 18.042969 " fill-opacity="1" fill-rule="nonzero"/><path fill="#000000" d="M 58.441406 18.054688 L 58.539062 18.054688 C 58.613281 18.054688 58.75 18.042969 58.945312 18.023438 C 58.636719 19.253906 58.484375 20.074219 58.484375 20.488281 C 58.484375 20.933594 58.589844 21.273438 58.800781 21.511719 C 59.015625 21.75 59.324219 21.867188 59.726562 21.867188 C 60.207031 21.867188 60.667969 21.699219 61.101562 21.359375 C 61.535156 21.019531 61.753906 20.714844 61.753906 20.445312 C 61.753906 20.378906 61.726562 20.320312 61.671875 20.269531 C 61.617188 20.21875 61.546875 20.195312 61.457031 20.195312 C 61.347656 20.195312 61.214844 20.261719 61.054688 20.390625 C 60.796875 20.597656 60.589844 20.730469 60.433594 20.789062 C 60.277344 20.851562 60.113281 20.878906 59.941406 20.878906 C 59.820312 20.878906 59.730469 20.832031 59.679688 20.730469 C 59.625 20.632812 59.597656 20.457031 59.597656 20.207031 C 59.597656 20.066406 59.671875 19.652344 59.816406 18.972656 C 59.960938 18.292969 60.046875 17.953125 60.074219 17.953125 L 61.65625 17.6875 C 62.117188 17.617188 62.347656 17.445312 62.347656 17.171875 C 62.347656 17.039062 62.320312 16.949219 62.269531 16.902344 C 62.21875 16.851562 62.109375 16.828125 61.949219 16.828125 C 61.855469 16.828125 61.320312 16.871094 60.347656 16.957031 C 60.609375 16.0625 60.738281 15.59375 60.738281 15.542969 C 60.738281 15.417969 60.691406 15.304688 60.597656 15.203125 C 60.503906 15.101562 60.371094 15.050781 60.203125 15.050781 C 59.898438 15.050781 59.707031 15.238281 59.621094 15.609375 C 59.476562 16.207031 59.339844 16.6875 59.210938 17.058594 L 58.230469 17.09375 C 57.941406 17.09375 57.796875 17.222656 57.796875 17.480469 C 57.796875 17.679688 57.867188 17.824219 58.011719 17.917969 C 58.160156 18.007812 58.300781 18.054688 58.441406 18.054688 Z M 58.441406 18.054688 " fill-opacity="1" fill-rule="nonzero"/><path fill="#000000" d="M 63.9375 21.917969 C 64.53125 21.917969 65.097656 21.730469 65.636719 21.351562 C 66.175781 20.976562 66.445312 20.671875 66.445312 20.4375 C 66.445312 20.269531 66.363281 20.183594 66.195312 20.183594 C 66.054688 20.183594 65.871094 20.269531 65.632812 20.4375 C 65.132812 20.785156 64.636719 20.957031 64.144531 20.957031 C 63.699219 20.957031 63.476562 20.753906 63.476562 20.339844 C 63.476562 19.832031 63.671875 19.238281 64.0625 18.5625 C 64.453125 17.886719 64.769531 17.546875 65.007812 17.546875 C 65.121094 17.546875 65.195312 17.695312 65.230469 17.996094 C 65.28125 18.402344 65.453125 18.609375 65.75 18.609375 C 65.851562 18.609375 65.953125 18.558594 66.0625 18.453125 C 66.171875 18.351562 66.226562 18.15625 66.226562 17.863281 C 66.226562 17.550781 66.125 17.253906 65.917969 16.964844 C 65.714844 16.675781 65.464844 16.53125 65.175781 16.53125 C 64.574219 16.53125 63.960938 16.980469 63.332031 17.871094 C 62.707031 18.765625 62.394531 19.59375 62.394531 20.363281 C 62.394531 20.851562 62.523438 21.230469 62.789062 21.507812 C 63.050781 21.78125 63.433594 21.917969 63.9375 21.917969 Z M 63.9375 21.917969 " fill-opacity="1" fill-rule="nonzero"/><path fill="#000000" d="M 67.726562 21.835938 C 67.835938 21.835938 67.933594 21.789062 68.007812 21.695312 C 68.085938 21.597656 68.195312 21.390625 68.335938 21.070312 C 68.558594 20.648438 68.929688 20.082031 69.441406 19.378906 C 69.953125 18.671875 70.296875 18.320312 70.476562 18.320312 C 70.605469 18.320312 70.699219 18.410156 70.757812 18.585938 C 70.8125 18.761719 70.867188 19.167969 70.914062 19.804688 C 70.953125 20.328125 71.082031 20.734375 71.292969 21.03125 C 71.5 21.328125 71.742188 21.476562 72.015625 21.476562 C 72.152344 21.476562 72.273438 21.429688 72.378906 21.335938 C 72.484375 21.246094 72.539062 21.144531 72.539062 21.035156 C 72.539062 20.925781 72.492188 20.8125 72.398438 20.691406 C 72.28125 20.542969 72.191406 20.382812 72.125 20.214844 C 72.0625 20.046875 72.003906 19.851562 71.949219 19.632812 C 71.898438 19.414062 71.855469 19.125 71.824219 18.769531 C 71.742188 18.019531 71.617188 17.554688 71.445312 17.375 C 71.273438 17.199219 71.054688 17.109375 70.796875 17.109375 C 70.421875 17.109375 70.046875 17.28125 69.679688 17.621094 C 69.3125 17.964844 68.875 18.609375 68.367188 19.558594 C 68.425781 19.210938 68.527344 18.742188 68.664062 18.15625 C 68.890625 17.179688 69.042969 16.46875 69.128906 16.023438 C 69.210938 15.578125 69.25 15.1875 69.25 14.84375 C 69.25 14.621094 69.191406 14.449219 69.074219 14.324219 C 68.953125 14.199219 68.8125 14.136719 68.652344 14.136719 C 68.535156 14.136719 68.40625 14.222656 68.269531 14.390625 C 68.128906 14.558594 68.035156 14.867188 67.984375 15.3125 C 67.789062 17.160156 67.53125 18.902344 67.21875 20.539062 C 67.136719 20.96875 67.097656 21.226562 67.097656 21.308594 C 67.097656 21.476562 67.15625 21.605469 67.269531 21.699219 C 67.386719 21.789062 67.539062 21.835938 67.726562 21.835938 Z M 67.726562 21.835938 " fill-opacity="1" fill-rule="nonzero"/><path fill="#000000" d="M 37.757812 45.96875 C 37.757812 46.6875 37.6875 47.394531 37.546875 48.097656 C 37.40625 48.796875 37.199219 49.480469 36.925781 50.140625 C 36.652344 50.800781 36.3125 51.429688 35.914062 52.023438 C 35.515625 52.617188 35.0625 53.167969 34.558594 53.675781 C 34.050781 54.179688 33.5 54.632812 32.902344 55.027344 C 32.304688 55.425781 31.675781 55.761719 31.011719 56.035156 C 30.351562 56.308594 29.667969 56.515625 28.964844 56.65625 C 28.261719 56.796875 27.550781 56.867188 26.832031 56.867188 C 26.117188 56.867188 25.40625 56.796875 24.703125 56.65625 C 24 56.515625 23.316406 56.308594 22.652344 56.035156 C 21.992188 55.761719 21.359375 55.425781 20.765625 55.027344 C 20.167969 54.632812 19.617188 54.179688 19.109375 53.675781 C 18.601562 53.167969 18.148438 52.617188 17.75 52.023438 C 17.351562 51.429688 17.015625 50.800781 16.742188 50.140625 C 16.464844 49.480469 16.257812 48.796875 16.121094 48.097656 C 15.980469 47.394531 15.910156 46.6875 15.910156 45.96875 C 15.910156 45.253906 15.980469 44.546875 16.121094 43.84375 C 16.257812 43.144531 16.464844 42.460938 16.742188 41.800781 C 17.015625 41.140625 17.351562 40.511719 17.75 39.917969 C 18.148438 39.320312 18.601562 38.773438 19.109375 38.265625 C 19.617188 37.761719 20.167969 37.308594 20.765625 36.910156 C 21.359375 36.511719 21.992188 36.179688 22.652344 35.902344 C 23.316406 35.628906 24 35.421875 24.703125 35.285156 C 25.40625 35.144531 26.117188 35.074219 26.832031 35.074219 C 27.550781 35.074219 28.261719 35.144531 28.964844 35.285156 C 29.667969 35.421875 30.351562 35.628906 31.011719 35.902344 C 31.675781 36.179688 32.304688 36.511719 32.902344 36.910156 C 33.5 37.308594 34.050781 37.761719 34.558594 38.265625 C 35.0625 38.773438 35.515625 39.320312 35.914062 39.917969 C 36.3125 40.511719 36.652344 41.140625 36.925781 41.800781 C 37.199219 42.460938 37.40625 43.144531 37.546875 43.84375 C 37.6875 44.546875 37.757812 45.253906 37.757812 45.96875 Z M 37.757812 45.96875 " fill-opacity="1" fill-rule="nonzero"/><path fill="#000000" d="M 9.890625 100.8125 L 13.585938 116.480469 L 11.476562 143.484375 C 11.214844 146.816406 13.710938 149.726562 17.054688 149.988281 C 17.214844 150 17.375 150.007812 17.53125 150.007812 C 20.667969 150.007812 23.328125 147.597656 23.574219 144.425781 L 25.761719 116.484375 C 25.808594 115.863281 25.761719 115.234375 25.617188 114.628906 L 21.105469 95.503906 C 21.101562 95.078125 21.085938 94.628906 21.058594 94.144531 C 20.105469 87.066406 21.667969 78.984375 22.976562 72.554688 L 17.242188 73.007812 C 17.105469 73.015625 16.96875 73.023438 16.835938 73.023438 C 14.195312 73.023438 11.964844 70.964844 11.757812 68.339844 C 11.652344 66.984375 12.078125 65.671875 12.960938 64.636719 C 13.847656 63.605469 15.078125 62.976562 16.4375 62.871094 L 23.492188 62.3125 C 22.714844 60.035156 21.195312 58.234375 19.054688 57.703125 C 14.910156 56.671875 8.902344 58.917969 6.457031 66.007812 C 3.152344 75.777344 2.445312 82.136719 3.699219 92.894531 C 4.648438 97.765625 7.097656 99.90625 9.890625 100.8125 Z M 9.890625 100.8125 " fill-opacity="1" fill-rule="nonzero"/><path fill="#000000" d="M 12.96875 68.242188 C 13.128906 70.273438 14.828125 71.8125 16.835938 71.8125 C 16.9375 71.8125 17.042969 71.808594 17.148438 71.800781 L 59.050781 68.488281 C 60.414062 68.378906 60.65625 65.199219 60.097656 62.953125 L 65.585938 62.519531 C 66.230469 62.46875 66.710938 61.90625 66.660156 61.261719 C 66.609375 60.617188 66.042969 60.140625 65.398438 60.1875 L 51.671875 61.273438 C 51.585938 61.28125 51.507812 61.296875 51.433594 61.320312 L 16.53125 64.074219 C 14.394531 64.246094 12.796875 66.109375 12.96875 68.242188 Z M 12.96875 68.242188 " fill-opacity="1" fill-rule="nonzero"/><g clip-path="url(#3d7478f99d)"><path fill="#000000" d="M 58.761719 117.796875 C 51.175781 114.339844 51.191406 109.898438 49.066406 111.191406 C 46.941406 112.480469 51.519531 122.863281 59.679688 123.792969 C 66.640625 124.585938 69.179688 123.972656 71.410156 121.886719 C 71.613281 122.242188 71.84375 122.5625 72.082031 122.851562 L 69.171875 130.257812 C 69.109375 130.417969 69.058594 130.582031 69.027344 130.75 L 62.175781 132.117188 C 60.777344 132.394531 59.789062 133.640625 59.835938 135.0625 L 60.171875 145.171875 C 60.207031 146.199219 60.785156 147.132812 61.691406 147.625 L 65.40625 149.648438 C 65.851562 149.890625 66.328125 150.003906 66.800781 150.003906 C 67.832031 150.003906 68.832031 149.457031 69.359375 148.488281 C 70.128906 147.082031 69.609375 145.316406 68.195312 144.546875 L 65.941406 143.320312 L 65.742188 137.332031 L 70.792969 136.324219 L 78.210938 144.304688 C 78.480469 144.59375 78.808594 144.824219 79.171875 144.984375 L 82.300781 146.363281 C 82.679688 146.53125 83.082031 146.609375 83.472656 146.609375 C 84.59375 146.609375 85.660156 145.960938 86.140625 144.875 C 86.789062 143.40625 86.121094 141.691406 84.652344 141.046875 L 82.074219 139.910156 L 76.429688 133.839844 L 77.085938 132.976562 L 82.46875 127.894531 C 83.378906 127.960938 84.339844 127.945312 85.34375 127.808594 C 91.992188 126.921875 92.085938 132.308594 105.3125 131.710938 C 107.128906 131.628906 108.773438 131.378906 110.265625 131.019531 L 110.042969 134.671875 L 102.261719 144.160156 C 101.4375 145.160156 101.554688 146.632812 102.523438 147.496094 C 102.988281 147.910156 103.566406 148.113281 104.140625 148.113281 C 104.773438 148.113281 105.40625 147.867188 105.882812 147.378906 L 115.230469 137.785156 C 115.355469 137.660156 115.457031 137.519531 115.550781 137.371094 C 115.59375 137.375 115.632812 137.390625 115.679688 137.398438 L 126.800781 138.484375 L 126.796875 142.261719 C 126.792969 143.550781 127.804688 144.613281 129.09375 144.683594 C 129.136719 144.6875 129.179688 144.6875 129.222656 144.6875 C 130.457031 144.6875 131.503906 143.757812 131.636719 142.523438 L 132.371094 135.609375 C 132.503906 134.367188 131.667969 133.226562 130.4375 132.980469 L 121.621094 131.203125 L 123.378906 127.433594 C 124.132812 128.625 124.988281 129.457031 125.007812 128.808594 C 125.03125 128.058594 126.347656 125.625 127.40625 123.785156 C 127.664062 123.6875 127.875 123.578125 128.015625 123.453125 C 129.308594 122.316406 133.101562 116.820312 133.386719 116.550781 C 133.671875 116.285156 136.566406 117.042969 137.621094 117.554688 C 138.675781 118.066406 143.109375 118.027344 143.109375 118.027344 C 143.109375 118.027344 144.679688 116.398438 144.269531 116.496094 C 143.859375 116.59375 137.496094 113.9375 137.058594 113.777344 C 136.621094 113.617188 136.816406 113.472656 137.292969 113.027344 C 137.769531 112.582031 141.78125 113.007812 142.753906 113.242188 C 143.726562 113.476562 146.738281 111.730469 146.738281 111.730469 L 147.160156 110.875 C 147.4375 110.835938 147.683594 110.65625 147.785156 110.375 C 147.9375 109.972656 147.730469 109.523438 147.324219 109.375 C 147.148438 109.308594 146.964844 109.316406 146.800781 109.371094 L 139.460938 106.5 L 137.9375 103.5 C 137.9375 103.5 135.851562 102.8125 132.859375 102.144531 C 132.621094 102.089844 132.347656 102.066406 132.0625 102.066406 C 130.800781 99.914062 128.328125 99.429688 126.90625 99.300781 C 126.597656 99.269531 126.332031 99.351562 126.101562 99.5 C 125.175781 100.101562 124.835938 101.898438 124.675781 102.945312 C 124.539062 103.828125 125.683594 105.367188 126.675781 105.746094 C 126.0625 106.476562 124.847656 105.605469 124.164062 104.582031 C 123.332031 104.980469 122.800781 105.265625 122.800781 105.265625 L 117.792969 104.929688 L 118.554688 112.835938 L 114.917969 105.175781 L 111.085938 106.304688 C 110.820312 106.25 110.539062 106.25 110.257812 106.316406 C 103.578125 107.910156 97.277344 107.644531 91.714844 107.40625 C 84.363281 107.09375 77.691406 106.8125 72.691406 110.992188 C 69.667969 112.863281 66.207031 121.195312 58.761719 117.796875 Z M 135.699219 106.914062 C 135.867188 106.460938 136.371094 106.230469 136.824219 106.398438 C 137.277344 106.566406 137.507812 107.066406 137.34375 107.519531 C 137.175781 107.972656 136.671875 108.203125 136.214844 108.035156 C 135.761719 107.871094 135.53125 107.367188 135.699219 106.914062 Z M 135.699219 106.914062 " fill-opacity="1" fill-rule="nonzero"/></g></svg>