<svg xmlns="http://www.w3.org/2000/svg" xmlns:xlink="http://www.w3.org/1999/xlink" width="1000" zoomAndPan="magnify" viewBox="0 0 750 149.999998" height="200" preserveAspectRatio="xMidYMid meet" version="1.0"><defs><g/></defs><g fill="#ff914d" fill-opacity="1"><g transform="translate(41.943883, 83.772632)"><g><path d="M 60.3125 -1.375 C 46.0625 0.144531 32.960938 0.90625 21.015625 0.90625 C 15.046875 0.90625 10.660156 -0.492188 7.859375 -3.296875 C 5.054688 -6.097656 3.65625 -10.484375 3.65625 -16.453125 L 3.65625 -45.6875 C 3.65625 -52.09375 5.101562 -56.738281 8 -59.625 C 10.894531 -62.519531 15.539062 -63.96875 21.9375 -63.96875 L 54.828125 -63.96875 L 54.828125 -51.171875 L 25.59375 -51.171875 C 21.9375 -51.171875 20.109375 -49.34375 20.109375 -45.6875 L 20.109375 -16.453125 C 20.109375 -15.046875 20.519531 -13.929688 21.34375 -13.109375 C 22.164062 -12.285156 23.273438 -11.875 24.671875 -11.875 C 31.679688 -11.875 38.082031 -12.03125 43.875 -12.34375 L 43.875 -25.59375 L 31.984375 -25.59375 L 31.984375 -36.5625 L 60.3125 -36.5625 Z M 60.3125 -1.375 "/></g></g></g><g fill="#ff914d" fill-opacity="1"><g transform="translate(104.082997, 83.772632)"><g><path d="M 23.296875 -37.921875 C 20.867188 -37.921875 19.65625 -36.703125 19.65625 -34.265625 L 19.65625 -29.25 L 35.1875 -29.25 L 35.1875 -34.265625 C 35.1875 -36.703125 33.96875 -37.921875 31.53125 -37.921875 Z M 49.34375 -0.90625 C 37.59375 0.300781 26.929688 0.90625 17.359375 0.90625 C 13.222656 0.90625 9.90625 -0.335938 7.40625 -2.828125 C 4.90625 -5.328125 3.65625 -8.648438 3.65625 -12.796875 L 3.65625 -34.734375 C 3.65625 -39.296875 4.945312 -42.867188 7.53125 -45.453125 C 10.125 -48.046875 13.707031 -49.34375 18.28125 -49.34375 L 36.5625 -49.34375 C 41.125 -49.34375 44.695312 -48.046875 47.28125 -45.453125 C 49.875 -42.867188 51.171875 -39.296875 51.171875 -34.734375 L 51.171875 -17.828125 L 19.65625 -17.828125 L 19.65625 -14.171875 C 19.65625 -13.253906 19.957031 -12.488281 20.5625 -11.875 C 21.175781 -11.269531 21.9375 -10.96875 22.84375 -10.96875 C 28.875 -10.96875 37.707031 -11.425781 49.34375 -12.34375 Z M 49.34375 -0.90625 "/></g></g></g><g fill="#ff914d" fill-opacity="1"><g transform="translate(157.083981, 83.772632)"><g><path d="M 38.390625 0 C 32.472656 0.601562 26.679688 0.90625 21.015625 0.90625 C 16.878906 0.90625 13.5625 -0.335938 11.0625 -2.828125 C 8.5625 -5.328125 7.3125 -8.648438 7.3125 -12.796875 L 7.3125 -36.09375 L 1.828125 -36.09375 L 1.828125 -48.4375 L 7.3125 -48.4375 L 9.140625 -59.40625 L 23.296875 -59.40625 L 23.296875 -48.4375 L 34.734375 -48.4375 L 34.734375 -36.09375 L 23.296875 -36.09375 L 23.296875 -15.078125 C 23.296875 -14.160156 23.597656 -13.394531 24.203125 -12.78125 C 24.816406 -12.175781 25.582031 -11.875 26.5 -11.875 L 38.390625 -11.875 Z M 38.390625 0 "/></g></g></g><g fill="#ff914d" fill-opacity="1"><g transform="translate(195.463956, 83.772632)"><g><path d="M 38.390625 0 C 32.472656 0.601562 26.679688 0.90625 21.015625 0.90625 C 16.878906 0.90625 13.5625 -0.335938 11.0625 -2.828125 C 8.5625 -5.328125 7.3125 -8.648438 7.3125 -12.796875 L 7.3125 -36.09375 L 1.828125 -36.09375 L 1.828125 -48.4375 L 7.3125 -48.4375 L 9.140625 -59.40625 L 23.296875 -59.40625 L 23.296875 -48.4375 L 34.734375 -48.4375 L 34.734375 -36.09375 L 23.296875 -36.09375 L 23.296875 -15.078125 C 23.296875 -14.160156 23.597656 -13.394531 24.203125 -12.78125 C 24.816406 -12.175781 25.582031 -11.875 26.5 -11.875 L 38.390625 -11.875 Z M 38.390625 0 "/></g></g></g><g fill="#ff914d" fill-opacity="1"><g transform="translate(233.843931, 83.772632)"><g><path d="M 24.671875 -46.609375 L 24.671875 0 L 8.6875 0 L 8.6875 -34.265625 L 1.828125 -34.265625 L 1.828125 -46.609375 Z M 8.6875 -64.890625 L 24.671875 -64.890625 L 24.671875 -52.09375 L 8.6875 -52.09375 Z M 8.6875 -64.890625 "/></g></g></g><g fill="#ff914d" fill-opacity="1"><g transform="translate(261.258147, 83.772632)"><g><path d="M 31.53125 -36.09375 C 28.300781 -36.09375 24.644531 -35.484375 20.5625 -34.265625 L 20.5625 0 L 4.5625 0 L 4.5625 -48.4375 L 18.734375 -48.4375 L 19.65625 -43.875 C 22.507812 -45.757812 25.441406 -47.140625 28.453125 -48.015625 C 31.472656 -48.898438 34.019531 -49.34375 36.09375 -49.34375 L 40.21875 -49.34375 C 44.351562 -49.34375 47.671875 -48.09375 50.171875 -45.59375 C 52.671875 -43.101562 53.921875 -39.785156 53.921875 -35.640625 L 53.921875 0 L 37.921875 0 L 37.921875 -32.90625 C 37.921875 -33.8125 37.613281 -34.566406 37 -35.171875 C 36.394531 -35.785156 35.640625 -36.09375 34.734375 -36.09375 Z M 31.53125 -36.09375 "/></g></g></g><g fill="#ff914d" fill-opacity="1"><g transform="translate(317.000566, 83.772632)"><g><path d="M 36.09375 -3.65625 C 30.1875 -2.4375 25.007812 -1.828125 20.5625 -1.828125 L 17.359375 -1.828125 C 13.222656 -1.828125 9.90625 -3.078125 7.40625 -5.578125 C 4.90625 -8.078125 3.65625 -11.394531 3.65625 -15.53125 L 3.65625 -33.8125 C 3.65625 -38.382812 4.945312 -41.960938 7.53125 -44.546875 C 10.125 -47.140625 13.707031 -48.4375 18.28125 -48.4375 L 52.09375 -48.4375 L 52.09375 2.734375 C 52.09375 6.878906 50.84375 10.203125 48.34375 12.703125 C 45.84375 15.203125 42.523438 16.453125 38.390625 16.453125 C 28.816406 16.453125 18.148438 15.84375 6.390625 14.625 L 6.390625 2.734375 C 18.035156 3.648438 26.875 4.109375 32.90625 4.109375 C 33.8125 4.109375 34.566406 3.800781 35.171875 3.1875 C 35.785156 2.582031 36.09375 1.820312 36.09375 0.90625 Z M 25.125 -14.171875 C 28.96875 -14.171875 32.625 -14.472656 36.09375 -15.078125 L 36.09375 -36.09375 L 23.296875 -36.09375 C 20.867188 -36.09375 19.65625 -34.875 19.65625 -32.4375 L 19.65625 -17.359375 C 19.65625 -16.453125 19.957031 -15.691406 20.5625 -15.078125 C 21.175781 -14.472656 21.9375 -14.171875 22.84375 -14.171875 Z M 25.125 -14.171875 "/></g></g></g><g fill="#ff914d" fill-opacity="1"><g transform="translate(371.82917, 83.772632)"><g/></g></g><g fill="#ff914d" fill-opacity="1"><g transform="translate(397.415756, 83.772632)"><g><path d="M 3.5625 -13.25 C 20.257812 -12.332031 31.5625 -11.875 37.46875 -11.875 C 38.875 -11.875 39.988281 -12.285156 40.8125 -13.109375 C 41.632812 -13.929688 42.046875 -15.046875 42.046875 -16.453125 L 42.046875 -24.671875 L 21.015625 -24.671875 C 14.617188 -24.671875 9.972656 -26.117188 7.078125 -29.015625 C 4.179688 -31.910156 2.734375 -36.554688 2.734375 -42.953125 L 2.734375 -45.6875 C 2.734375 -52.09375 4.179688 -56.738281 7.078125 -59.625 C 9.972656 -62.519531 14.617188 -63.96875 21.015625 -63.96875 L 53.09375 -63.96875 L 53.09375 -51.171875 L 24.671875 -51.171875 C 21.015625 -51.171875 19.1875 -49.34375 19.1875 -45.6875 L 19.1875 -43.875 C 19.1875 -40.21875 21.015625 -38.390625 24.671875 -38.390625 L 41.125 -38.390625 C 47.09375 -38.390625 51.476562 -36.984375 54.28125 -34.171875 C 57.082031 -31.367188 58.484375 -26.984375 58.484375 -21.015625 L 58.484375 -16.453125 C 58.484375 -10.484375 57.082031 -6.097656 54.28125 -3.296875 C 51.476562 -0.492188 47.09375 0.90625 41.125 0.90625 C 38.019531 0.90625 34.726562 0.847656 31.25 0.734375 L 22.84375 0.359375 C 16.632812 0.0546875 10.207031 -0.363281 3.5625 -0.90625 Z M 3.5625 -13.25 "/></g></g></g><g fill="#ff914d" fill-opacity="1"><g transform="translate(456.813415, 83.772632)"><g><path d="M 38.390625 0 C 32.472656 0.601562 26.679688 0.90625 21.015625 0.90625 C 16.878906 0.90625 13.5625 -0.335938 11.0625 -2.828125 C 8.5625 -5.328125 7.3125 -8.648438 7.3125 -12.796875 L 7.3125 -36.09375 L 1.828125 -36.09375 L 1.828125 -48.4375 L 7.3125 -48.4375 L 9.140625 -59.40625 L 23.296875 -59.40625 L 23.296875 -48.4375 L 34.734375 -48.4375 L 34.734375 -36.09375 L 23.296875 -36.09375 L 23.296875 -15.078125 C 23.296875 -14.160156 23.597656 -13.394531 24.203125 -12.78125 C 24.816406 -12.175781 25.582031 -11.875 26.5 -11.875 L 38.390625 -11.875 Z M 38.390625 0 "/></g></g></g><g fill="#ff914d" fill-opacity="1"><g transform="translate(495.193371, 83.772632)"><g><path d="M 23.765625 -11.875 C 26.992188 -11.875 30.648438 -12.484375 34.734375 -13.703125 L 34.734375 -19.1875 L 21.484375 -19.1875 C 20.566406 -19.1875 19.800781 -18.878906 19.1875 -18.265625 C 18.582031 -17.660156 18.28125 -16.90625 18.28125 -16 L 18.28125 -15.078125 C 18.28125 -14.160156 18.582031 -13.394531 19.1875 -12.78125 C 19.800781 -12.175781 20.566406 -11.875 21.484375 -11.875 Z M 6.859375 -47.515625 C 18.003906 -48.734375 28.054688 -49.34375 37.015625 -49.34375 C 41.160156 -49.34375 44.476562 -48.09375 46.96875 -45.59375 C 49.46875 -43.101562 50.71875 -39.785156 50.71875 -35.640625 L 50.71875 0 L 36.5625 0 L 35.640625 -4.5625 C 32.773438 -2.675781 29.832031 -1.289062 26.8125 -0.40625 C 23.800781 0.46875 21.257812 0.90625 19.1875 0.90625 L 16 0.90625 C 11.851562 0.90625 8.53125 -0.335938 6.03125 -2.828125 C 3.53125 -5.328125 2.28125 -8.648438 2.28125 -12.796875 L 2.28125 -16.90625 C 2.28125 -21.050781 3.53125 -24.367188 6.03125 -26.859375 C 8.53125 -29.359375 11.851562 -30.609375 16 -30.609375 L 34.734375 -30.609375 L 34.734375 -34.265625 C 34.734375 -35.179688 34.425781 -35.941406 33.8125 -36.546875 C 33.207031 -37.160156 32.445312 -37.46875 31.53125 -37.46875 C 27.570312 -37.46875 23.195312 -37.285156 18.40625 -36.921875 C 13.625 -36.554688 9.773438 -36.28125 6.859375 -36.09375 Z M 6.859375 -47.515625 "/></g></g></g><g fill="#ff914d" fill-opacity="1"><g transform="translate(547.737438, 83.772632)"><g><path d="M 32.4375 -35.1875 C 28.601562 -35.1875 24.644531 -34.269531 20.5625 -32.4375 L 20.5625 0 L 4.5625 0 L 4.5625 -48.4375 L 18.734375 -48.4375 L 19.65625 -42.5 C 24.894531 -47.0625 30.375 -49.34375 36.09375 -49.34375 L 40.21875 -49.34375 L 40.21875 -35.1875 Z M 32.4375 -35.1875 "/></g></g></g><g fill="#ff914d" fill-opacity="1"><g transform="translate(587.945062, 83.772632)"><g><path d="M 38.390625 0 C 32.472656 0.601562 26.679688 0.90625 21.015625 0.90625 C 16.878906 0.90625 13.5625 -0.335938 11.0625 -2.828125 C 8.5625 -5.328125 7.3125 -8.648438 7.3125 -12.796875 L 7.3125 -36.09375 L 1.828125 -36.09375 L 1.828125 -48.4375 L 7.3125 -48.4375 L 9.140625 -59.40625 L 23.296875 -59.40625 L 23.296875 -48.4375 L 34.734375 -48.4375 L 34.734375 -36.09375 L 23.296875 -36.09375 L 23.296875 -15.078125 C 23.296875 -14.160156 23.597656 -13.394531 24.203125 -12.78125 C 24.816406 -12.175781 25.582031 -11.875 26.5 -11.875 L 38.390625 -11.875 Z M 38.390625 0 "/></g></g></g><g fill="#ff914d" fill-opacity="1"><g transform="translate(626.325056, 83.772632)"><g><path d="M 23.296875 -37.921875 C 20.867188 -37.921875 19.65625 -36.703125 19.65625 -34.265625 L 19.65625 -29.25 L 35.1875 -29.25 L 35.1875 -34.265625 C 35.1875 -36.703125 33.96875 -37.921875 31.53125 -37.921875 Z M 49.34375 -0.90625 C 37.59375 0.300781 26.929688 0.90625 17.359375 0.90625 C 13.222656 0.90625 9.90625 -0.335938 7.40625 -2.828125 C 4.90625 -5.328125 3.65625 -8.648438 3.65625 -12.796875 L 3.65625 -34.734375 C 3.65625 -39.296875 4.945312 -42.867188 7.53125 -45.453125 C 10.125 -48.046875 13.707031 -49.34375 18.28125 -49.34375 L 36.5625 -49.34375 C 41.125 -49.34375 44.695312 -48.046875 47.28125 -45.453125 C 49.875 -42.867188 51.171875 -39.296875 51.171875 -34.734375 L 51.171875 -17.828125 L 19.65625 -17.828125 L 19.65625 -14.171875 C 19.65625 -13.253906 19.957031 -12.488281 20.5625 -11.875 C 21.175781 -11.269531 21.9375 -10.96875 22.84375 -10.96875 C 28.875 -10.96875 37.707031 -11.425781 49.34375 -12.34375 Z M 49.34375 -0.90625 "/></g></g></g><g fill="#ff914d" fill-opacity="1"><g transform="translate(679.326049, 83.772632)"><g><path d="M 38.84375 0 L 37.921875 -4.5625 C 35.054688 -2.675781 32.113281 -1.289062 29.09375 -0.40625 C 26.082031 0.46875 23.546875 0.90625 21.484375 0.90625 L 17.359375 0.90625 C 13.222656 0.90625 9.90625 -0.335938 7.40625 -2.828125 C 4.90625 -5.328125 3.65625 -8.648438 3.65625 -12.796875 L 3.65625 -33.8125 C 3.65625 -38.382812 4.945312 -41.960938 7.53125 -44.546875 C 10.125 -47.140625 13.707031 -48.4375 18.28125 -48.4375 L 37.015625 -48.4375 L 37.015625 -63.96875 L 53 -63.96875 L 53 0 Z M 26.046875 -12.34375 C 29.273438 -12.34375 32.929688 -12.953125 37.015625 -14.171875 L 37.015625 -36.09375 L 23.296875 -36.09375 C 20.867188 -36.09375 19.65625 -34.875 19.65625 -32.4375 L 19.65625 -15.53125 C 19.65625 -14.625 19.957031 -13.863281 20.5625 -13.25 C 21.175781 -12.644531 21.9375 -12.34375 22.84375 -12.34375 Z M 26.046875 -12.34375 "/></g></g></g><path stroke-linecap="butt" transform="matrix(0.627781, 0, 0, 0.627781, 14.086113, -9.138916)" fill="none" stroke-linejoin="miter" d="M 140.437389 145.829694 C 117.738381 148.250175 96.881178 149.457305 77.853336 149.457305 C 68.35186 149.457305 61.364199 147.229715 56.884132 142.774537 C 52.428953 138.300692 50.201364 131.306809 50.201364 121.805333 L 50.201364 75.212632 C 50.201364 65.026701 52.503621 57.634589 57.09569 53.036298 C 61.718871 48.41934 69.123427 46.11086 79.309358 46.11086 L 131.732369 46.11086 L 131.732369 66.470278 L 85.139668 66.470278 C 79.309358 66.470278 76.397314 69.388544 76.397314 75.212632 L 76.397314 121.805333 C 76.397314 124.032922 77.050657 125.812504 78.351121 127.137858 C 79.676475 128.438322 81.456057 129.091665 83.683646 129.091665 C 94.840258 129.091665 105.026189 128.842772 114.247661 128.344987 L 114.247661 107.238891 L 95.338044 107.238891 L 95.338044 89.785295 L 140.437389 89.785295 Z M 180.459325 87.582596 C 176.601489 87.582596 174.666348 89.523958 174.666348 93.412906 L 174.666348 101.408581 L 199.400054 101.408581 L 199.400054 93.412906 C 199.400054 89.523958 197.458691 87.582596 193.575966 87.582596 Z M 221.968394 146.545261 C 203.226778 148.486623 186.239856 149.457305 171.007627 149.457305 C 164.418194 149.457305 159.135448 147.466163 155.159388 143.483881 C 151.177106 139.507821 149.185965 134.225075 149.185965 127.635643 L 149.185965 92.703562 C 149.185965 85.404785 151.245552 79.692699 155.370947 75.567304 C 159.49012 71.448131 165.189761 69.388544 172.463649 69.388544 L 201.571642 69.388544 C 208.870419 69.388544 214.576282 71.448131 218.701678 75.567304 C 222.820851 79.692699 224.88666 85.404785 224.88666 92.703562 L 224.88666 119.602633 L 174.666348 119.602633 L 174.666348 125.432943 C 174.666348 126.90141 175.151689 128.120983 176.12237 129.091665 C 177.093052 130.043679 178.306403 130.516575 179.749981 130.516575 C 189.369681 130.516575 203.444559 129.794786 221.968394 128.344987 Z M 288.908068 148.001283 C 279.506148 148.971964 270.290899 149.457305 261.262318 149.457305 C 254.672886 149.457305 249.39014 147.466163 245.407857 143.483881 C 241.431798 139.507821 239.440657 134.225075 239.440657 127.635643 L 239.440657 90.494639 L 230.698303 90.494639 L 230.698303 70.844566 L 239.440657 70.844566 L 242.3527 53.39097 L 264.883706 53.39097 L 264.883706 70.844566 L 283.08398 70.844566 L 283.08398 90.494639 L 264.883706 90.494639 L 264.883706 123.976921 C 264.883706 125.445388 265.375269 126.664962 266.34595 127.635643 C 267.316632 128.606324 268.536205 129.091665 270.004672 129.091665 L 288.908068 129.091665 Z M 350.048543 148.001283 C 340.640402 148.971964 331.425152 149.457305 322.396572 149.457305 C 315.813361 149.457305 310.524393 147.466163 306.548333 143.483881 C 302.566051 139.507821 300.57491 134.225075 300.57491 127.635643 L 300.57491 90.494639 L 291.832556 90.494639 L 291.832556 70.844566 L 300.57491 70.844566 L 303.493176 53.39097 L 326.024182 53.39097 L 326.024182 70.844566 L 344.218233 70.844566 L 344.218233 90.494639 L 326.024182 90.494639 L 326.024182 123.976921 C 326.024182 125.445388 326.509522 126.664962 327.480204 127.635643 C 328.450885 128.606324 329.670459 129.091665 331.138925 129.091665 L 350.048543 129.091665 Z M 389.361135 73.75661 L 389.361135 148.001283 L 363.880751 148.001283 L 363.880751 93.412906 L 352.966809 93.412906 L 352.966809 73.75661 Z M 363.880751 44.648616 L 389.361135 44.648616 L 389.361135 65.014256 L 363.880751 65.014256 Z M 443.94329 90.494639 C 438.797434 90.494639 432.985791 91.465321 426.489694 93.412906 L 426.489694 148.001283 L 401.00931 148.001283 L 401.00931 70.844566 L 423.57765 70.844566 L 425.033672 78.130898 C 429.582185 75.119297 434.261366 72.916597 439.071216 71.516576 C 443.881066 70.097888 447.931794 69.388544 451.223399 69.388544 L 457.763053 69.388544 C 464.377375 69.388544 469.672566 71.379685 473.654848 75.355745 C 477.630908 79.338027 479.622049 84.633218 479.622049 91.241317 L 479.622049 148.001283 L 454.141665 148.001283 L 454.141665 95.578272 C 454.141665 94.134694 453.656325 92.927565 452.685643 91.956884 C 451.714962 90.97998 450.489166 90.494639 449.020699 90.494639 Z M 540.022069 142.170973 C 530.613927 144.112335 522.369359 145.083016 515.282141 145.083016 L 510.167397 145.083016 C 503.577965 145.083016 498.295219 143.098098 494.312936 139.115816 C 490.336877 135.133533 488.345735 129.850787 488.345735 123.267577 L 488.345735 94.12225 C 488.345735 86.848362 490.405322 81.148721 494.530717 77.029548 C 498.649891 72.904153 504.349532 70.844566 511.623419 70.844566 L 565.502452 70.844566 L 565.502452 152.369348 C 565.502452 158.958781 563.511311 164.241527 559.529029 168.223809 C 555.552969 172.199869 550.257778 174.19101 543.643457 174.19101 C 528.411227 174.19101 511.43675 173.220329 492.713801 171.278966 L 492.713801 152.369348 C 511.243858 153.819148 525.318736 154.540937 534.938437 154.540937 C 536.382014 154.540937 537.589143 154.055596 538.559824 153.084915 C 539.536728 152.108011 540.022069 150.900882 540.022069 149.457305 Z M 522.531139 125.432943 C 528.647675 125.432943 534.477985 124.947602 540.022069 123.976921 L 540.022069 90.494639 L 519.619095 90.494639 C 515.755037 90.494639 513.826119 92.442224 513.826119 96.324949 L 513.826119 120.349311 C 513.826119 121.792888 514.31146 123.00624 515.282141 123.976921 C 516.252822 124.947602 517.466174 125.432943 518.909751 125.432943 Z M 616.295216 126.888965 C 642.883172 128.357431 660.87811 129.091665 670.280029 129.091665 C 672.532507 129.091665 674.31209 128.438322 675.612554 127.137858 C 676.913018 125.812504 677.566361 124.032922 677.566361 121.805333 L 677.566361 108.694913 L 644.090301 108.694913 C 633.898148 108.694913 626.499814 106.392656 621.876634 101.800587 C 617.278342 97.177407 614.982308 89.772851 614.982308 79.58692 L 614.982308 75.212632 C 614.982308 65.026701 617.278342 57.634589 621.876634 53.036298 C 626.499814 48.41934 633.898148 46.11086 644.090301 46.11086 L 695.194182 46.11086 L 695.194182 66.470278 L 649.914389 66.470278 C 644.090301 66.470278 641.172035 69.388544 641.172035 75.212632 L 641.172035 78.130898 C 641.172035 83.954985 644.090301 86.873252 649.914389 86.873252 L 676.110339 86.873252 C 685.636704 86.873252 692.624365 89.113285 697.079543 93.58713 C 701.534721 98.042309 703.76231 105.023747 703.76231 114.519001 L 703.76231 121.805333 C 703.76231 131.306809 701.534721 138.300692 697.079543 142.774537 C 692.624365 147.229715 685.636704 149.457305 676.110339 149.457305 C 671.157375 149.457305 665.924408 149.36397 660.398991 149.171078 L 647.002345 148.567513 C 637.102641 148.094617 626.866931 147.422607 616.295216 146.545261 Z M 766.352586 148.001283 C 756.950666 148.971964 747.729194 149.457305 738.706836 149.457305 C 732.117404 149.457305 726.834658 147.466163 722.852376 143.483881 C 718.876316 139.507821 716.885175 134.225075 716.885175 127.635643 L 716.885175 90.494639 L 708.142821 90.494639 L 708.142821 70.844566 L 716.885175 70.844566 L 719.797218 53.39097 L 742.328224 53.39097 L 742.328224 70.844566 L 760.528498 70.844566 L 760.528498 90.494639 L 742.328224 90.494639 L 742.328224 123.976921 C 742.328224 125.445388 742.813565 126.664962 743.784246 127.635643 C 744.754927 128.606324 745.980724 129.091665 747.44919 129.091665 L 766.352586 129.091665 Z M 804.209155 129.091665 C 809.355011 129.091665 815.166654 128.120983 821.662751 126.179621 L 821.662751 117.437267 L 800.587768 117.437267 C 799.119301 117.437267 797.899727 117.922608 796.929046 118.893289 C 795.952142 119.86397 795.466802 121.0711 795.466802 122.520899 L 795.466802 123.976921 C 795.466802 125.445388 795.952142 126.664962 796.929046 127.635643 C 797.899727 128.606324 799.119301 129.091665 800.587768 129.091665 Z M 777.27275 72.300588 C 795.043684 70.359225 811.059925 69.388544 825.321473 69.388544 C 831.910906 69.388544 837.193652 71.379685 841.169712 75.355745 C 845.151994 79.338027 847.143135 84.633218 847.143135 91.241317 L 847.143135 148.001283 L 824.574795 148.001283 L 823.118773 140.714951 C 818.57026 143.720329 813.891079 145.941696 809.081229 147.360384 C 804.271379 148.760405 800.220651 149.457305 796.929046 149.457305 L 791.845414 149.457305 C 785.231092 149.457305 779.935901 147.466163 775.959841 143.483881 C 771.977559 139.507821 769.986418 134.225075 769.986418 127.635643 L 769.986418 121.058655 C 769.986418 114.475445 771.977559 109.192699 775.959841 105.210416 C 779.935901 101.228134 785.231092 99.236993 791.845414 99.236993 L 821.662751 99.236993 L 821.662751 93.412906 C 821.662751 91.963106 821.177411 90.755977 820.206729 89.785295 C 819.254715 88.814614 818.047586 88.329274 816.579119 88.329274 C 810.275913 88.329274 803.313142 88.627945 795.684583 89.219065 C 788.07469 89.785295 781.939487 90.214635 777.27275 90.494639 Z M 901.731512 91.956884 C 895.621198 91.956884 889.317992 93.412906 882.828116 96.324949 L 882.828116 148.001283 L 857.347733 148.001283 L 857.347733 70.844566 L 879.916072 70.844566 L 881.372094 80.296264 C 889.709998 73.022377 898.439907 69.388544 907.561822 69.388544 L 914.101476 69.388544 L 914.101476 91.956884 Z M 975.235729 148.001283 C 965.827587 148.971964 956.612338 149.457305 947.583757 149.457305 C 941.000547 149.457305 935.717801 147.466163 931.735519 143.483881 C 927.753237 139.507821 925.762096 134.225075 925.762096 127.635643 L 925.762096 90.494639 L 917.019742 90.494639 L 917.019742 70.844566 L 925.762096 70.844566 L 928.680362 53.39097 L 951.211367 53.39097 L 951.211367 70.844566 L 969.405419 70.844566 L 969.405419 90.494639 L 951.211367 90.494639 L 951.211367 123.976921 C 951.211367 125.445388 951.696708 126.664962 952.667389 127.635643 C 953.638071 128.606324 954.857645 129.091665 956.326111 129.091665 L 975.235729 129.091665 Z M 1012.345621 87.582596 C 1008.481563 87.582596 1006.552645 89.523958 1006.552645 93.412906 L 1006.552645 101.408581 L 1031.28635 101.408581 L 1031.28635 93.412906 C 1031.28635 89.523958 1029.344988 87.582596 1025.462263 87.582596 Z M 1053.85469 146.545261 C 1035.113075 148.486623 1018.126152 149.457305 1002.893923 149.457305 C 996.304491 149.457305 991.021744 147.466163 987.039462 143.483881 C 983.063402 139.507821 981.072261 134.225075 981.072261 127.635643 L 981.072261 92.703562 C 981.072261 85.404785 983.131848 79.692699 987.257243 75.567304 C 991.376416 71.448131 997.076058 69.388544 1004.349945 69.388544 L 1033.457939 69.388544 C 1040.756715 69.388544 1046.462579 71.448131 1050.587974 75.567304 C 1054.707147 79.692699 1056.772956 85.404785 1056.772956 92.703562 L 1056.772956 119.602633 L 1006.552645 119.602633 L 1006.552645 125.432943 C 1006.552645 126.90141 1007.037985 128.120983 1008.008667 129.091665 C 1008.979348 130.043679 1010.1927 130.516575 1011.636277 130.516575 C 1021.255977 130.516575 1035.330856 129.794786 1053.85469 128.344987 Z M 1121.541042 148.001283 L 1120.08502 140.714951 C 1115.511618 143.720329 1110.819992 145.941696 1106.010141 147.360384 C 1101.225181 148.760405 1097.186898 149.457305 1093.895292 149.457305 L 1087.318305 149.457305 C 1080.735094 149.457305 1075.446126 147.466163 1071.470066 143.483881 C 1067.487784 139.507821 1065.496643 134.225075 1065.496643 127.635643 L 1065.496643 94.12225 C 1065.496643 86.848362 1067.556229 81.148721 1071.681625 77.029548 C 1075.80702 72.904153 1081.500439 70.844566 1088.774326 70.844566 L 1118.628998 70.844566 L 1118.628998 46.11086 L 1144.109381 46.11086 L 1144.109381 148.001283 Z M 1101.14429 128.344987 C 1106.283923 128.344987 1112.114233 127.374306 1118.628998 125.432943 L 1118.628998 90.494639 L 1096.770002 90.494639 C 1092.912167 90.494639 1090.977026 92.442224 1090.977026 96.324949 L 1090.977026 123.267577 C 1090.977026 124.711154 1091.462367 125.918284 1092.439271 126.888965 C 1093.409952 127.859646 1094.617081 128.344987 1096.060658 128.344987 Z M 1101.14429 128.344987 " stroke="#ff3131" stroke-width="3.093469" stroke-opacity="1" stroke-miterlimit="4"/><g fill="#ff3131" fill-opacity="1"><g transform="translate(174.707238, 135.848161)"><g><path d="M 1.753906 -14.078125 C 2.980469 -12.917969 4.371094 -9.042969 5.003906 -7.519531 C 5.964844 -5.199219 7.289062 -2.320312 7.984375 -0.597656 C 8.214844 -0.03125 8.613281 0.199219 9.078125 0.199219 C 9.605469 0.199219 9.972656 -0.0976562 10.171875 -0.597656 C 10.765625 -2.121094 12.125 -5.101562 13.050781 -7.386719 C 13.152344 -7.6875 13.316406 -7.816406 13.449219 -7.816406 C 13.582031 -7.816406 13.714844 -7.6875 13.8125 -7.386719 C 14.773438 -5.070312 16.066406 -2.1875 16.796875 -0.464844 C 17.027344 0.0976562 17.425781 0.332031 17.890625 0.332031 C 18.417969 0.332031 18.785156 0.03125 18.980469 -0.464844 C 19.675781 -2.1875 21.003906 -5.070312 21.964844 -7.386719 C 22.59375 -8.910156 24.015625 -12.753906 25.210938 -13.945312 C 25.839844 -14.574219 26.800781 -15.007812 26.800781 -15.800781 C 26.800781 -16.464844 26.371094 -16.628906 25.804688 -16.628906 C 25.242188 -16.628906 24.515625 -16.429688 23.984375 -16.429688 C 23.289062 -16.429688 22.527344 -16.628906 21.929688 -16.628906 C 21.398438 -16.628906 21.035156 -16.464844 21.035156 -15.835938 C 21.035156 -14.875 22.527344 -14.707031 22.128906 -13.449219 C 21.832031 -12.523438 20.605469 -9.34375 19.941406 -7.785156 C 19.742188 -7.320312 19.511719 -7.320312 19.347656 -7.785156 C 18.847656 -9.175781 16.730469 -14.445312 16.296875 -15.570312 C 15.933594 -16.496094 15.769531 -16.761719 15.238281 -16.761719 C 14.707031 -16.761719 14.410156 -16.464844 14.078125 -15.503906 C 13.746094 -14.574219 11.792969 -9.472656 11.128906 -7.917969 C 10.933594 -7.453125 10.734375 -7.453125 10.535156 -7.917969 C 9.90625 -9.410156 8.679688 -12.6875 8.382812 -13.617188 C 7.984375 -14.875 9.472656 -15.039062 9.472656 -16 C 9.472656 -16.628906 8.878906 -16.796875 8.082031 -16.796875 C 7.1875 -16.796875 6.027344 -16.597656 5.003906 -16.597656 C 4.207031 -16.597656 3.082031 -16.761719 2.085938 -16.761719 C 1.027344 -16.761719 0.164062 -16.5625 0.164062 -15.800781 C 0.164062 -14.90625 1.125 -14.707031 1.753906 -14.078125 Z M 1.753906 -14.078125 "/></g></g></g><g fill="#ff3131" fill-opacity="1"><g transform="translate(201.996013, 135.848161)"><g><path d="M 4.109375 0 C 4.769531 0 5.765625 0.199219 6.59375 0.199219 C 7.320312 0.199219 7.917969 0.03125 7.917969 -0.628906 C 7.917969 -1.589844 6.726562 -1.058594 6.792969 -4.273438 L 6.855469 -7.253906 C 6.890625 -9.308594 7.621094 -9.839844 8.480469 -9.839844 C 9.640625 -9.839844 10.003906 -8.710938 10.003906 -6.59375 L 10.003906 -1.160156 C 10.003906 -0.265625 10.601562 0.265625 11.496094 0.164062 C 12.058594 0.0976562 12.523438 0 13.21875 0 C 13.980469 0 14.839844 0.199219 15.46875 0.199219 C 16.066406 0.199219 16.496094 0.03125 16.496094 -0.628906 C 16.496094 -1.589844 15.371094 -1.160156 15.371094 -4.273438 L 15.371094 -9.109375 C 15.371094 -11.164062 14.742188 -13.449219 11.660156 -13.449219 C 8.613281 -13.449219 7.121094 -10.402344 6.855469 -11 L 6.855469 -17.257812 C 6.855469 -18.21875 6.625 -19.046875 5.863281 -19.046875 C 5.003906 -19.046875 5.265625 -18.386719 3.179688 -17.625 C 1.457031 -16.996094 0.429688 -17.191406 0.429688 -16.199219 C 0.429688 -15.339844 1.457031 -15.570312 1.492188 -13.8125 C 1.492188 -13.8125 1.457031 -7.386719 1.457031 -4.273438 C 1.457031 -1.160156 0.332031 -1.589844 0.332031 -0.628906 C 0.332031 0.03125 0.894531 0.199219 1.65625 0.199219 C 2.453125 0.199219 3.445312 0 4.109375 0 Z M 4.109375 0 "/></g></g></g><g fill="#ff3131" fill-opacity="1"><g transform="translate(219.15092, 135.848161)"><g><path d="M 4.304688 0.199219 C 6.425781 0.199219 7.785156 -1.589844 8.515625 -1.589844 C 8.777344 -1.589844 8.945312 -1.390625 9.011719 -0.695312 C 9.078125 0 9.707031 0.265625 10.433594 0.164062 C 11 0.0976562 11.496094 0 12.191406 0 C 12.851562 0 13.714844 0.199219 14.378906 0.199219 C 14.972656 0.199219 15.4375 0.03125 15.4375 -0.628906 C 15.4375 -1.589844 14.3125 -1.160156 14.3125 -4.273438 L 14.3125 -7.222656 C 14.3125 -11.925781 11.363281 -13.449219 7.71875 -13.449219 C 4.339844 -13.449219 1.359375 -12.222656 1.359375 -9.972656 C 1.359375 -9.210938 1.988281 -8.613281 2.75 -8.613281 C 5.003906 -8.613281 5.101562 -11.761719 7.519531 -11.761719 C 8.710938 -11.761719 9.144531 -11.066406 9.144531 -10.5 C 9.144531 -9.773438 8.316406 -9.210938 6.625 -8.84375 C 3.082031 -8.082031 0.664062 -6.460938 0.664062 -3.511719 C 0.664062 -1.457031 1.820312 0.199219 4.304688 0.199219 Z M 5.796875 -4.871094 C 5.796875 -6.492188 7.1875 -6.957031 8.28125 -7.519531 C 8.8125 -7.785156 9.109375 -7.621094 9.109375 -7.054688 L 9.109375 -5.464844 C 9.109375 -4.175781 8.515625 -3.082031 7.421875 -3.082031 C 6.527344 -3.082031 5.796875 -3.578125 5.796875 -4.871094 Z M 5.796875 -4.871094 "/></g></g></g><g fill="#ff3131" fill-opacity="1"><g transform="translate(235.246067, 135.848161)"><g><path d="M 0.332031 -12.457031 C 0.332031 -11.59375 1.457031 -11.792969 1.457031 -10.039062 L 1.425781 -5.234375 C 1.425781 -1.988281 2.21875 0.199219 5.003906 0.199219 C 7.386719 0.199219 8.214844 -0.992188 8.214844 -1.855469 C 8.214844 -2.582031 7.882812 -2.285156 7.320312 -2.816406 C 6.691406 -3.414062 6.757812 -4.503906 6.757812 -7.320312 L 6.757812 -11.195312 C 6.757812 -11.394531 6.921875 -11.5625 7.121094 -11.5625 L 7.652344 -11.5625 C 8.148438 -11.5625 8.480469 -11.894531 8.480469 -12.421875 C 8.480469 -12.917969 8.148438 -13.25 7.652344 -13.25 L 7.121094 -13.25 C 6.921875 -13.25 6.757812 -13.417969 6.757812 -13.617188 L 6.757812 -14.839844 C 6.757812 -15.800781 6.726562 -16.761719 5.929688 -16.761719 C 5.035156 -16.761719 5.070312 -15.4375 2.980469 -14.113281 C 1.390625 -13.117188 0.332031 -13.449219 0.332031 -12.457031 Z M 0.332031 -12.457031 "/></g></g></g><g fill="#ff3131" fill-opacity="1"><g transform="translate(244.221016, 135.848161)"><g/></g></g><g fill="#ff3131" fill-opacity="1"><g transform="translate(249.51995, 135.848161)"><g><path d="M 0.332031 -12.457031 C 0.332031 -11.59375 1.457031 -11.792969 1.457031 -10.039062 L 1.425781 -5.234375 C 1.425781 -1.988281 2.21875 0.199219 5.003906 0.199219 C 7.386719 0.199219 8.214844 -0.992188 8.214844 -1.855469 C 8.214844 -2.582031 7.882812 -2.285156 7.320312 -2.816406 C 6.691406 -3.414062 6.757812 -4.503906 6.757812 -7.320312 L 6.757812 -11.195312 C 6.757812 -11.394531 6.921875 -11.5625 7.121094 -11.5625 L 7.652344 -11.5625 C 8.148438 -11.5625 8.480469 -11.894531 8.480469 -12.421875 C 8.480469 -12.917969 8.148438 -13.25 7.652344 -13.25 L 7.121094 -13.25 C 6.921875 -13.25 6.757812 -13.417969 6.757812 -13.617188 L 6.757812 -14.839844 C 6.757812 -15.800781 6.726562 -16.761719 5.929688 -16.761719 C 5.035156 -16.761719 5.070312 -15.4375 2.980469 -14.113281 C 1.390625 -13.117188 0.332031 -13.449219 0.332031 -12.457031 Z M 0.332031 -12.457031 "/></g></g></g><g fill="#ff3131" fill-opacity="1"><g transform="translate(258.494899, 135.848161)"><g><path d="M 7.851562 0.199219 C 12.257812 0.199219 15.039062 -2.320312 15.039062 -6.625 C 15.039062 -10.933594 12.257812 -13.449219 7.851562 -13.449219 C 3.414062 -13.449219 0.664062 -10.933594 0.664062 -6.625 C 0.664062 -2.320312 3.414062 0.199219 7.851562 0.199219 Z M 6.128906 -6.625 C 6.128906 -9.375 6.492188 -11.59375 7.851562 -11.59375 C 9.242188 -11.59375 9.574219 -9.375 9.574219 -6.625 C 9.574219 -3.875 9.242188 -1.65625 7.851562 -1.65625 C 6.492188 -1.65625 6.128906 -3.875 6.128906 -6.625 Z M 6.128906 -6.625 "/></g></g></g><g fill="#ff3131" fill-opacity="1"><g transform="translate(274.523824, 135.848161)"><g/></g></g><g fill="#ff3131" fill-opacity="1"><g transform="translate(279.822759, 135.848161)"><g><path d="M 0.332031 -0.628906 C 0.332031 0.03125 0.894531 0.199219 1.65625 0.199219 C 2.453125 0.199219 3.445312 0 4.109375 0 C 4.769531 0 5.765625 0.199219 6.558594 0.199219 C 7.320312 0.199219 7.882812 0.03125 7.882812 -0.628906 C 7.882812 -1.589844 6.757812 -1.160156 6.757812 -4.273438 L 6.757812 -12.289062 C 6.757812 -15.402344 7.882812 -14.972656 7.882812 -15.933594 C 7.882812 -16.597656 7.320312 -16.761719 6.558594 -16.761719 C 5.765625 -16.761719 4.769531 -16.5625 4.109375 -16.5625 C 3.445312 -16.5625 2.453125 -16.761719 1.65625 -16.761719 C 0.894531 -16.761719 0.332031 -16.597656 0.332031 -15.933594 C 0.332031 -14.972656 1.457031 -15.402344 1.457031 -12.289062 L 1.457031 -4.273438 C 1.457031 -1.160156 0.332031 -1.589844 0.332031 -0.628906 Z M 0.332031 -0.628906 "/></g></g></g><g fill="#ff3131" fill-opacity="1"><g transform="translate(288.367181, 135.848161)"><g><path d="M 0.332031 -0.628906 C 0.332031 0.03125 0.894531 0.199219 1.65625 0.199219 C 2.453125 0.199219 3.445312 0 4.109375 0 C 4.769531 0 5.765625 0.199219 6.59375 0.199219 C 7.320312 0.199219 7.917969 0.03125 7.917969 -0.628906 C 7.917969 -1.589844 6.792969 -1.160156 6.792969 -4.273438 L 6.792969 -5.863281 C 6.792969 -9.078125 7.453125 -9.839844 8.480469 -9.839844 C 9.640625 -9.839844 10.003906 -8.710938 10.003906 -6.59375 L 10.003906 -1.160156 C 10.003906 -0.265625 10.601562 0.265625 11.496094 0.164062 C 12.058594 0.0976562 12.523438 0 13.21875 0 C 13.980469 0 14.839844 0.199219 15.46875 0.199219 C 16.066406 0.199219 16.496094 0.03125 16.496094 -0.628906 C 16.496094 -1.589844 15.371094 -1.160156 15.371094 -4.273438 L 15.371094 -9.109375 C 15.371094 -11.164062 14.742188 -13.449219 11.660156 -13.449219 C 8.878906 -13.449219 7.421875 -10.933594 6.957031 -10.933594 C 6.855469 -10.933594 6.792969 -11.066406 6.792969 -11.394531 L 6.792969 -11.660156 C 6.792969 -12.621094 6.59375 -13.449219 5.796875 -13.449219 C 4.9375 -13.449219 5.234375 -12.789062 3.113281 -12.023438 C 1.390625 -11.394531 0.363281 -11.59375 0.363281 -10.601562 C 0.363281 -9.738281 1.492188 -9.9375 1.492188 -8.183594 C 1.492188 -7.386719 1.457031 -7.289062 1.457031 -4.273438 C 1.457031 -1.160156 0.332031 -1.589844 0.332031 -0.628906 Z M 0.332031 -0.628906 "/></g></g></g><g fill="#ff3131" fill-opacity="1"><g transform="translate(305.522091, 135.848161)"><g><path d="M 0.664062 -3.179688 C 0.664062 -0.5625 4.738281 0.199219 6.59375 0.199219 C 9.9375 0.199219 13.285156 -1.027344 13.285156 -4.40625 C 13.285156 -9.707031 5.464844 -8.015625 5.464844 -10.5 C 5.464844 -11.066406 5.730469 -11.761719 6.921875 -11.761719 C 9.34375 -11.761719 9.441406 -8.613281 11.726562 -8.613281 C 12.457031 -8.613281 13.117188 -9.210938 13.117188 -9.972656 C 13.117188 -12.222656 10.105469 -13.449219 6.726562 -13.449219 C 5.070312 -13.449219 0.828125 -13.019531 0.828125 -9.109375 C 0.828125 -3.976562 8.746094 -4.703125 8.746094 -2.617188 C 8.746094 -1.722656 8.050781 -1.589844 6.890625 -1.589844 C 3.875 -1.589844 3.808594 -4.636719 2.152344 -4.636719 C 1.191406 -4.636719 0.664062 -4.074219 0.664062 -3.179688 Z M 0.664062 -3.179688 "/></g></g></g><g fill="#ff3131" fill-opacity="1"><g transform="translate(319.795802, 135.848161)"><g><path d="M 0.332031 -12.457031 C 0.332031 -11.59375 1.457031 -11.792969 1.457031 -10.039062 L 1.425781 -5.234375 C 1.425781 -1.988281 2.21875 0.199219 5.003906 0.199219 C 7.386719 0.199219 8.214844 -0.992188 8.214844 -1.855469 C 8.214844 -2.582031 7.882812 -2.285156 7.320312 -2.816406 C 6.691406 -3.414062 6.757812 -4.503906 6.757812 -7.320312 L 6.757812 -11.195312 C 6.757812 -11.394531 6.921875 -11.5625 7.121094 -11.5625 L 7.652344 -11.5625 C 8.148438 -11.5625 8.480469 -11.894531 8.480469 -12.421875 C 8.480469 -12.917969 8.148438 -13.25 7.652344 -13.25 L 7.121094 -13.25 C 6.921875 -13.25 6.757812 -13.417969 6.757812 -13.617188 L 6.757812 -14.839844 C 6.757812 -15.800781 6.726562 -16.761719 5.929688 -16.761719 C 5.035156 -16.761719 5.070312 -15.4375 2.980469 -14.113281 C 1.390625 -13.117188 0.332031 -13.449219 0.332031 -12.457031 Z M 0.332031 -12.457031 "/></g></g></g><g fill="#ff3131" fill-opacity="1"><g transform="translate(328.77075, 135.848161)"><g><path d="M 4.304688 0.199219 C 6.425781 0.199219 7.785156 -1.589844 8.515625 -1.589844 C 8.777344 -1.589844 8.945312 -1.390625 9.011719 -0.695312 C 9.078125 0 9.707031 0.265625 10.433594 0.164062 C 11 0.0976562 11.496094 0 12.191406 0 C 12.851562 0 13.714844 0.199219 14.378906 0.199219 C 14.972656 0.199219 15.4375 0.03125 15.4375 -0.628906 C 15.4375 -1.589844 14.3125 -1.160156 14.3125 -4.273438 L 14.3125 -7.222656 C 14.3125 -11.925781 11.363281 -13.449219 7.71875 -13.449219 C 4.339844 -13.449219 1.359375 -12.222656 1.359375 -9.972656 C 1.359375 -9.210938 1.988281 -8.613281 2.75 -8.613281 C 5.003906 -8.613281 5.101562 -11.761719 7.519531 -11.761719 C 8.710938 -11.761719 9.144531 -11.066406 9.144531 -10.5 C 9.144531 -9.773438 8.316406 -9.210938 6.625 -8.84375 C 3.082031 -8.082031 0.664062 -6.460938 0.664062 -3.511719 C 0.664062 -1.457031 1.820312 0.199219 4.304688 0.199219 Z M 5.796875 -4.871094 C 5.796875 -6.492188 7.1875 -6.957031 8.28125 -7.519531 C 8.8125 -7.785156 9.109375 -7.621094 9.109375 -7.054688 L 9.109375 -5.464844 C 9.109375 -4.175781 8.515625 -3.082031 7.421875 -3.082031 C 6.527344 -3.082031 5.796875 -3.578125 5.796875 -4.871094 Z M 5.796875 -4.871094 "/></g></g></g><g fill="#ff3131" fill-opacity="1"><g transform="translate(344.865903, 135.848161)"><g><path d="M 4.109375 0 C 4.769531 0 5.765625 0.199219 6.59375 0.199219 C 7.320312 0.199219 7.917969 0.03125 7.917969 -0.628906 C 7.917969 -1.589844 6.792969 -1.160156 6.792969 -4.273438 L 6.792969 -17.257812 C 6.792969 -18.21875 6.59375 -19.046875 5.796875 -19.046875 C 4.9375 -19.046875 5.234375 -18.386719 3.113281 -17.625 C 1.390625 -16.996094 0.363281 -17.191406 0.363281 -16.199219 C 0.363281 -15.339844 1.492188 -15.535156 1.492188 -13.78125 C 1.492188 -12.984375 1.457031 -7.289062 1.457031 -4.273438 C 1.457031 -1.160156 0.332031 -1.589844 0.332031 -0.628906 C 0.332031 0.03125 0.894531 0.199219 1.65625 0.199219 C 2.453125 0.199219 3.445312 0 4.109375 0 Z M 4.109375 0 "/></g></g></g><g fill="#ff3131" fill-opacity="1"><g transform="translate(353.443444, 135.848161)"><g><path d="M 4.109375 0 C 4.769531 0 5.765625 0.199219 6.59375 0.199219 C 7.320312 0.199219 7.917969 0.03125 7.917969 -0.628906 C 7.917969 -1.589844 6.792969 -1.160156 6.792969 -4.273438 L 6.792969 -17.257812 C 6.792969 -18.21875 6.59375 -19.046875 5.796875 -19.046875 C 4.9375 -19.046875 5.234375 -18.386719 3.113281 -17.625 C 1.390625 -16.996094 0.363281 -17.191406 0.363281 -16.199219 C 0.363281 -15.339844 1.492188 -15.535156 1.492188 -13.78125 C 1.492188 -12.984375 1.457031 -7.289062 1.457031 -4.273438 C 1.457031 -1.160156 0.332031 -1.589844 0.332031 -0.628906 C 0.332031 0.03125 0.894531 0.199219 1.65625 0.199219 C 2.453125 0.199219 3.445312 0 4.109375 0 Z M 4.109375 0 "/></g></g></g><g fill="#ff3131" fill-opacity="1"><g transform="translate(362.020985, 135.848161)"><g><path d="M 2.714844 0.199219 C 3.015625 0.199219 3.015625 0.628906 2.519531 0.894531 C 2.085938 1.125 1.65625 0.894531 1.65625 1.191406 C 1.65625 1.425781 1.886719 1.691406 2.582031 1.691406 C 4.339844 1.691406 5.167969 -0.132812 5.167969 -1.65625 C 5.167969 -3.445312 4.140625 -4.472656 2.847656 -4.472656 C 1.558594 -4.472656 0.496094 -3.445312 0.496094 -2.152344 C 0.496094 -0.828125 1.125 0.199219 2.714844 0.199219 Z M 2.714844 0.199219 "/></g></g></g><g fill="#ff3131" fill-opacity="1"><g transform="translate(368.015377, 135.848161)"><g/></g></g><g fill="#ff3131" fill-opacity="1"><g transform="translate(373.314311, 135.848161)"><g><path d="M 4.304688 0.199219 C 6.425781 0.199219 7.785156 -1.589844 8.515625 -1.589844 C 8.777344 -1.589844 8.945312 -1.390625 9.011719 -0.695312 C 9.078125 0 9.707031 0.265625 10.433594 0.164062 C 11 0.0976562 11.496094 0 12.191406 0 C 12.851562 0 13.714844 0.199219 14.378906 0.199219 C 14.972656 0.199219 15.4375 0.03125 15.4375 -0.628906 C 15.4375 -1.589844 14.3125 -1.160156 14.3125 -4.273438 L 14.3125 -7.222656 C 14.3125 -11.925781 11.363281 -13.449219 7.71875 -13.449219 C 4.339844 -13.449219 1.359375 -12.222656 1.359375 -9.972656 C 1.359375 -9.210938 1.988281 -8.613281 2.75 -8.613281 C 5.003906 -8.613281 5.101562 -11.761719 7.519531 -11.761719 C 8.710938 -11.761719 9.144531 -11.066406 9.144531 -10.5 C 9.144531 -9.773438 8.316406 -9.210938 6.625 -8.84375 C 3.082031 -8.082031 0.664062 -6.460938 0.664062 -3.511719 C 0.664062 -1.457031 1.820312 0.199219 4.304688 0.199219 Z M 5.796875 -4.871094 C 5.796875 -6.492188 7.1875 -6.957031 8.28125 -7.519531 C 8.8125 -7.785156 9.109375 -7.621094 9.109375 -7.054688 L 9.109375 -5.464844 C 9.109375 -4.175781 8.515625 -3.082031 7.421875 -3.082031 C 6.527344 -3.082031 5.796875 -3.578125 5.796875 -4.871094 Z M 5.796875 -4.871094 "/></g></g></g><g fill="#ff3131" fill-opacity="1"><g transform="translate(389.409464, 135.848161)"><g><path d="M 0.332031 -0.628906 C 0.332031 0.03125 0.894531 0.199219 1.65625 0.199219 C 2.453125 0.199219 3.445312 0 4.109375 0 C 4.769531 0 5.765625 0.199219 6.59375 0.199219 C 7.320312 0.199219 7.917969 0.03125 7.917969 -0.628906 C 7.917969 -1.589844 6.792969 -1.160156 6.792969 -4.273438 L 6.792969 -5.863281 C 6.792969 -9.078125 7.453125 -9.839844 8.480469 -9.839844 C 9.640625 -9.839844 10.003906 -8.710938 10.003906 -6.59375 L 10.003906 -1.160156 C 10.003906 -0.265625 10.601562 0.265625 11.496094 0.164062 C 12.058594 0.0976562 12.523438 0 13.21875 0 C 13.980469 0 14.839844 0.199219 15.46875 0.199219 C 16.066406 0.199219 16.496094 0.03125 16.496094 -0.628906 C 16.496094 -1.589844 15.371094 -1.160156 15.371094 -4.273438 L 15.371094 -9.109375 C 15.371094 -11.164062 14.742188 -13.449219 11.660156 -13.449219 C 8.878906 -13.449219 7.421875 -10.933594 6.957031 -10.933594 C 6.855469 -10.933594 6.792969 -11.066406 6.792969 -11.394531 L 6.792969 -11.660156 C 6.792969 -12.621094 6.59375 -13.449219 5.796875 -13.449219 C 4.9375 -13.449219 5.234375 -12.789062 3.113281 -12.023438 C 1.390625 -11.394531 0.363281 -11.59375 0.363281 -10.601562 C 0.363281 -9.738281 1.492188 -9.9375 1.492188 -8.183594 C 1.492188 -7.386719 1.457031 -7.289062 1.457031 -4.273438 C 1.457031 -1.160156 0.332031 -1.589844 0.332031 -0.628906 Z M 0.332031 -0.628906 "/></g></g></g><g fill="#ff3131" fill-opacity="1"><g transform="translate(406.564363, 135.848161)"><g><path d="M 0.664062 -5.566406 C 0.664062 -2.085938 2.1875 0.199219 5.070312 0.199219 C 6.855469 0.199219 7.816406 -0.496094 8.449219 -1.292969 C 8.746094 -1.691406 8.945312 -1.886719 9.109375 -1.886719 C 9.242188 -1.886719 9.308594 -1.625 9.34375 -1.058594 C 9.375 -0.199219 9.972656 0.296875 10.832031 0.199219 C 11.394531 0.132812 11.761719 0 12.457031 0 C 13.117188 0 14.011719 0.199219 14.707031 0.199219 C 15.371094 0.199219 15.867188 0.03125 15.867188 -0.628906 C 15.867188 -1.589844 14.742188 -1.160156 14.742188 -4.273438 L 14.742188 -17.257812 C 14.742188 -18.21875 14.542969 -19.046875 13.746094 -19.046875 C 12.886719 -19.046875 13.285156 -18.386719 11.164062 -17.625 C 9.441406 -16.996094 8.183594 -17.191406 8.183594 -16.199219 C 8.183594 -15.339844 9.308594 -15.535156 9.308594 -13.78125 L 9.308594 -13.285156 C 8.710938 -13.351562 8.050781 -13.449219 7.054688 -13.449219 C 2.980469 -13.449219 0.664062 -10.335938 0.664062 -5.566406 Z M 6.195312 -7.585938 C 6.195312 -10.039062 6.625 -11.695312 7.75 -11.695312 C 8.878906 -11.695312 9.308594 -10.039062 9.308594 -7.585938 C 9.308594 -5.132812 8.878906 -3.476562 7.75 -3.476562 C 6.625 -3.476562 6.195312 -5.132812 6.195312 -7.585938 Z M 6.195312 -7.585938 "/></g></g></g><g fill="#ff3131" fill-opacity="1"><g transform="translate(423.090042, 135.848161)"><g/></g></g><g fill="#ff3131" fill-opacity="1"><g transform="translate(428.388977, 135.848161)"><g><path d="M 0.332031 -15.933594 C 0.332031 -14.972656 1.457031 -15.402344 1.457031 -12.289062 L 1.457031 -4.273438 C 1.457031 -1.160156 0.332031 -1.589844 0.332031 -0.628906 C 0.332031 0.03125 0.894531 0.199219 1.65625 0.199219 C 2.453125 0.199219 3.445312 0 4.109375 0 C 4.769531 0 5.765625 0.199219 6.59375 0.199219 C 7.320312 0.199219 7.917969 0.03125 7.917969 -0.628906 C 7.917969 -1.589844 6.792969 -1.160156 6.792969 -4.273438 L 6.792969 -7.421875 C 6.792969 -7.917969 7.121094 -8.25 7.621094 -8.25 L 9.871094 -8.25 C 10.367188 -8.25 10.699219 -7.917969 10.699219 -7.421875 L 10.699219 -4.273438 C 10.699219 -1.160156 9.574219 -1.589844 9.574219 -0.628906 C 9.574219 0.03125 10.136719 0.199219 10.898438 0.199219 C 11.695312 0.199219 12.6875 0 13.351562 0 C 14.011719 0 15.007812 0.199219 15.835938 0.199219 C 16.5625 0.199219 17.160156 0.03125 17.160156 -0.628906 C 17.160156 -1.589844 16.035156 -1.160156 16.035156 -4.273438 L 16.035156 -12.289062 C 16.035156 -15.402344 17.160156 -14.972656 17.160156 -15.933594 C 17.160156 -16.597656 16.5625 -16.761719 15.835938 -16.761719 C 15.007812 -16.761719 14.011719 -16.5625 13.351562 -16.5625 C 12.6875 -16.5625 11.695312 -16.761719 10.898438 -16.761719 C 10.136719 -16.761719 9.574219 -16.597656 9.574219 -15.933594 C 9.574219 -14.972656 10.699219 -15.402344 10.699219 -12.289062 L 10.699219 -10.832031 C 10.699219 -10.335938 10.367188 -10.003906 9.871094 -10.003906 L 7.621094 -10.003906 C 7.121094 -10.003906 6.792969 -10.335938 6.792969 -10.832031 L 6.792969 -12.289062 C 6.792969 -15.402344 7.917969 -14.972656 7.917969 -15.933594 C 7.917969 -16.597656 7.320312 -16.761719 6.59375 -16.761719 C 5.765625 -16.761719 4.769531 -16.5625 4.109375 -16.5625 C 3.445312 -16.5625 2.453125 -16.761719 1.65625 -16.761719 C 0.894531 -16.761719 0.332031 -16.597656 0.332031 -15.933594 Z M 0.332031 -15.933594 "/></g></g></g><g fill="#ff3131" fill-opacity="1"><g transform="translate(446.206214, 135.848161)"><g><path d="M 7.851562 0.199219 C 12.257812 0.199219 15.039062 -2.320312 15.039062 -6.625 C 15.039062 -10.933594 12.257812 -13.449219 7.851562 -13.449219 C 3.414062 -13.449219 0.664062 -10.933594 0.664062 -6.625 C 0.664062 -2.320312 3.414062 0.199219 7.851562 0.199219 Z M 6.128906 -6.625 C 6.128906 -9.375 6.492188 -11.59375 7.851562 -11.59375 C 9.242188 -11.59375 9.574219 -9.375 9.574219 -6.625 C 9.574219 -3.875 9.242188 -1.65625 7.851562 -1.65625 C 6.492188 -1.65625 6.128906 -3.875 6.128906 -6.625 Z M 6.128906 -6.625 "/></g></g></g><g fill="#ff3131" fill-opacity="1"><g transform="translate(462.235128, 135.848161)"><g><path d="M 2.949219 -8.050781 C 3.28125 -7.320312 4.96875 -3.578125 6.160156 -0.960938 C 6.527344 -0.199219 6.921875 0.199219 7.355469 0.199219 C 7.75 0.199219 8.183594 -0.164062 8.515625 -0.960938 C 9.109375 -2.320312 9.871094 -3.941406 10.300781 -4.902344 C 10.5 -5.367188 10.765625 -5.367188 10.964844 -4.902344 C 11.394531 -3.941406 12.125 -2.351562 12.753906 -0.992188 C 13.117188 -0.230469 13.515625 0.164062 13.914062 0.164062 C 14.3125 0.164062 14.707031 -0.230469 15.039062 -1.027344 C 15.769531 -2.78125 16.695312 -4.9375 16.960938 -5.566406 L 18.085938 -8.117188 C 19.710938 -12.15625 21.070312 -11.894531 21.070312 -12.722656 C 21.070312 -13.285156 20.703125 -13.449219 20.273438 -13.449219 C 19.742188 -13.449219 19.113281 -13.25 18.71875 -13.25 C 18.253906 -13.25 17.558594 -13.449219 17.027344 -13.449219 C 16.5625 -13.449219 16.234375 -13.316406 16.234375 -12.722656 C 16.234375 -12.089844 17.09375 -11.828125 17.09375 -11.03125 C 17.09375 -10.269531 16.265625 -8.480469 15.636719 -7.121094 C 15.4375 -6.660156 15.140625 -6.691406 14.972656 -7.15625 C 14.476562 -8.515625 13.648438 -10.933594 13.085938 -12.390625 C 12.851562 -12.953125 12.589844 -13.117188 12.324219 -13.117188 C 12.023438 -13.117188 11.761719 -12.953125 11.527344 -12.421875 C 10.898438 -10.964844 10.070312 -8.449219 9.574219 -7.054688 C 9.410156 -6.59375 9.144531 -6.558594 8.945312 -7.023438 C 8.382812 -8.316406 7.652344 -10.039062 7.652344 -11.164062 C 7.652344 -11.960938 8.214844 -11.992188 8.214844 -12.621094 C 8.214844 -13.285156 7.621094 -13.449219 6.824219 -13.449219 C 5.964844 -13.449219 4.871094 -13.25 4.042969 -13.25 C 3.378906 -13.25 2.351562 -13.449219 1.523438 -13.449219 C 0.761719 -13.449219 0.164062 -13.285156 0.164062 -12.621094 C 0.164062 -11.527344 1.257812 -11.894531 2.949219 -8.050781 Z M 2.949219 -8.050781 "/></g></g></g><g fill="#ff3131" fill-opacity="1"><g transform="translate(483.794628, 135.848161)"><g/></g></g><g fill="#ff3131" fill-opacity="1"><g transform="translate(489.093563, 135.848161)"><g><path d="M 0.332031 -12.457031 C 0.332031 -11.59375 1.457031 -11.792969 1.457031 -10.039062 L 1.425781 -5.234375 C 1.425781 -1.988281 2.21875 0.199219 5.003906 0.199219 C 7.386719 0.199219 8.214844 -0.992188 8.214844 -1.855469 C 8.214844 -2.582031 7.882812 -2.285156 7.320312 -2.816406 C 6.691406 -3.414062 6.757812 -4.503906 6.757812 -7.320312 L 6.757812 -11.195312 C 6.757812 -11.394531 6.921875 -11.5625 7.121094 -11.5625 L 7.652344 -11.5625 C 8.148438 -11.5625 8.480469 -11.894531 8.480469 -12.421875 C 8.480469 -12.917969 8.148438 -13.25 7.652344 -13.25 L 7.121094 -13.25 C 6.921875 -13.25 6.757812 -13.417969 6.757812 -13.617188 L 6.757812 -14.839844 C 6.757812 -15.800781 6.726562 -16.761719 5.929688 -16.761719 C 5.035156 -16.761719 5.070312 -15.4375 2.980469 -14.113281 C 1.390625 -13.117188 0.332031 -13.449219 0.332031 -12.457031 Z M 0.332031 -12.457031 "/></g></g></g><g fill="#ff3131" fill-opacity="1"><g transform="translate(498.0685, 135.848161)"><g><path d="M 7.851562 0.199219 C 12.257812 0.199219 15.039062 -2.320312 15.039062 -6.625 C 15.039062 -10.933594 12.257812 -13.449219 7.851562 -13.449219 C 3.414062 -13.449219 0.664062 -10.933594 0.664062 -6.625 C 0.664062 -2.320312 3.414062 0.199219 7.851562 0.199219 Z M 6.128906 -6.625 C 6.128906 -9.375 6.492188 -11.59375 7.851562 -11.59375 C 9.242188 -11.59375 9.574219 -9.375 9.574219 -6.625 C 9.574219 -3.875 9.242188 -1.65625 7.851562 -1.65625 C 6.492188 -1.65625 6.128906 -3.875 6.128906 -6.625 Z M 6.128906 -6.625 "/></g></g></g><g fill="#ff3131" fill-opacity="1"><g transform="translate(514.097414, 135.848161)"><g/></g></g><g fill="#ff3131" fill-opacity="1"><g transform="translate(519.396349, 135.848161)"><g><path d="M 4.109375 0 C 5.101562 0 7.054688 0.199219 7.917969 0.199219 C 13.152344 0.199219 16.265625 -2.847656 16.265625 -8.28125 C 16.265625 -13.714844 13.152344 -16.761719 7.917969 -16.761719 C 7.054688 -16.761719 5.101562 -16.5625 4.109375 -16.5625 C 3.445312 -16.5625 2.453125 -16.761719 1.65625 -16.761719 C 0.894531 -16.761719 0.332031 -16.597656 0.332031 -15.933594 C 0.332031 -14.972656 1.457031 -15.402344 1.457031 -12.289062 L 1.457031 -4.273438 C 1.457031 -1.160156 0.332031 -1.589844 0.332031 -0.628906 C 0.332031 0.03125 0.894531 0.199219 1.65625 0.199219 C 2.453125 0.199219 3.445312 0 4.109375 0 Z M 6.824219 -2.417969 L 6.824219 -13.980469 C 6.824219 -14.511719 7.15625 -14.707031 7.652344 -14.707031 C 10.105469 -14.707031 10.632812 -10.632812 10.632812 -8.28125 C 10.632812 -5.796875 10.171875 -1.691406 7.652344 -1.691406 C 7.15625 -1.691406 6.824219 -1.886719 6.824219 -2.417969 Z M 6.824219 -2.417969 "/></g></g></g><g fill="#ff3131" fill-opacity="1"><g transform="translate(536.650605, 135.848161)"><g><path d="M 7.851562 0.199219 C 12.257812 0.199219 15.039062 -2.320312 15.039062 -6.625 C 15.039062 -10.933594 12.257812 -13.449219 7.851562 -13.449219 C 3.414062 -13.449219 0.664062 -10.933594 0.664062 -6.625 C 0.664062 -2.320312 3.414062 0.199219 7.851562 0.199219 Z M 6.128906 -6.625 C 6.128906 -9.375 6.492188 -11.59375 7.851562 -11.59375 C 9.242188 -11.59375 9.574219 -9.375 9.574219 -6.625 C 9.574219 -3.875 9.242188 -1.65625 7.851562 -1.65625 C 6.492188 -1.65625 6.128906 -3.875 6.128906 -6.625 Z M 6.128906 -6.625 "/></g></g></g><g fill="#ff3131" fill-opacity="1"><g transform="translate(552.679519, 135.848161)"><g/></g></g><g fill="#ff3131" fill-opacity="1"><g transform="translate(557.978454, 135.848161)"><g><path d="M 4.207031 0 C 4.871094 0 5.863281 0.199219 6.691406 0.199219 C 7.421875 0.199219 8.015625 0.03125 8.015625 -0.628906 C 8.015625 -1.589844 6.890625 -1.160156 6.890625 -4.273438 L 6.890625 -11.660156 C 6.890625 -12.621094 6.691406 -13.449219 5.898438 -13.449219 C 5.035156 -13.449219 5.300781 -12.789062 3.214844 -12.023438 C 1.492188 -11.394531 0.464844 -11.59375 0.464844 -10.601562 C 0.464844 -9.738281 1.589844 -9.9375 1.589844 -8.183594 C 1.589844 -7.386719 1.558594 -7.289062 1.558594 -4.273438 C 1.558594 -1.160156 0.429688 -1.589844 0.429688 -0.628906 C 0.429688 0.03125 0.992188 0.199219 1.753906 0.199219 C 2.550781 0.199219 3.542969 0 4.207031 0 Z M 0.429688 -14.378906 C 0.730469 -13.582031 1.425781 -13.183594 2.320312 -13.183594 C 2.949219 -13.183594 3.675781 -13.382812 4.472656 -13.78125 C 6.328125 -14.773438 7.355469 -16.464844 6.855469 -17.824219 C 6.558594 -18.617188 5.863281 -19.015625 4.96875 -19.015625 C 4.339844 -19.015625 3.609375 -18.816406 2.847656 -18.417969 C 0.992188 -17.425781 -0.03125 -15.703125 0.429688 -14.378906 Z M 0.429688 -14.378906 "/></g></g></g><g fill="#ff3131" fill-opacity="1"><g transform="translate(566.622222, 135.848161)"><g><path d="M 0.332031 -12.457031 C 0.332031 -11.59375 1.457031 -11.792969 1.457031 -10.039062 L 1.425781 -5.234375 C 1.425781 -1.988281 2.21875 0.199219 5.003906 0.199219 C 7.386719 0.199219 8.214844 -0.992188 8.214844 -1.855469 C 8.214844 -2.582031 7.882812 -2.285156 7.320312 -2.816406 C 6.691406 -3.414062 6.757812 -4.503906 6.757812 -7.320312 L 6.757812 -11.195312 C 6.757812 -11.394531 6.921875 -11.5625 7.121094 -11.5625 L 7.652344 -11.5625 C 8.148438 -11.5625 8.480469 -11.894531 8.480469 -12.421875 C 8.480469 -12.917969 8.148438 -13.25 7.652344 -13.25 L 7.121094 -13.25 C 6.921875 -13.25 6.757812 -13.417969 6.757812 -13.617188 L 6.757812 -14.839844 C 6.757812 -15.800781 6.726562 -16.761719 5.929688 -16.761719 C 5.035156 -16.761719 5.070312 -15.4375 2.980469 -14.113281 C 1.390625 -13.117188 0.332031 -13.449219 0.332031 -12.457031 Z M 0.332031 -12.457031 "/></g></g></g></svg>