<svg xmlns="http://www.w3.org/2000/svg" xmlns:xlink="http://www.w3.org/1999/xlink" width="500" zoomAndPan="magnify" viewBox="0 0 375 374.999991" height="500" preserveAspectRatio="xMidYMid meet" version="1.0"><defs><g/></defs><g fill="#ffffff" fill-opacity="1"><g transform="translate(4.698595, 110.976938)"><g><path d="M 91.0625 0 L 66.609375 0 L 66.609375 -38.734375 L 32.625 -38.734375 L 32.625 0 L 8.15625 0 L 8.15625 -95.140625 L 32.625 -95.140625 L 32.625 -57.765625 L 66.609375 -57.765625 L 66.609375 -95.140625 L 91.0625 -95.140625 Z M 91.0625 0 "/></g></g></g><g fill="#ffffff" fill-opacity="1"><g transform="translate(103.92036, 110.976938)"><g><path d="M 83.59375 0 L 8.15625 0 L 8.15625 -95.140625 L 83.59375 -95.140625 L 83.59375 -76.109375 L 32.625 -76.109375 L 32.625 -57.765625 L 72.71875 -57.765625 L 72.71875 -38.734375 L 32.625 -38.734375 L 32.625 -19.03125 L 83.59375 -19.03125 Z M 83.59375 0 "/></g></g></g><g fill="#ffffff" fill-opacity="1"><g transform="translate(190.229708, 110.976938)"><g><path d="M 32.625 -19.03125 L 82.234375 -19.03125 L 82.234375 0 L 8.15625 0 L 8.15625 -95.140625 L 32.625 -95.140625 Z M 32.625 -19.03125 "/></g></g></g><g fill="#ffffff" fill-opacity="1"><g transform="translate(273.820642, 110.976938)"><g><path d="M 8.15625 -95.140625 L 65.25 -95.140625 C 74.757812 -95.140625 81.664062 -92.988281 85.96875 -88.6875 C 90.269531 -84.382812 92.421875 -77.476562 92.421875 -67.96875 L 92.421875 -54.375 C 92.421875 -44.851562 90.269531 -37.941406 85.96875 -33.640625 C 81.664062 -29.335938 74.757812 -27.1875 65.25 -27.1875 L 32.625 -27.1875 L 32.625 0 L 8.15625 0 Z M 67.96875 -67.96875 C 67.96875 -73.394531 65.25 -76.109375 59.8125 -76.109375 L 32.625 -76.109375 L 32.625 -46.21875 L 59.8125 -46.21875 C 65.25 -46.21875 67.96875 -48.9375 67.96875 -54.375 Z M 67.96875 -67.96875 "/></g></g></g><g fill="#ffffff" fill-opacity="1"><g transform="translate(27.514729, 189.910437)"><g><path d="M 17.734375 -51.726562 C 9.457031 -51.503906 2.957031 -44.925781 2.957031 -36.945312 L 2.957031 -14.777344 C 2.957031 -6.429688 9.828125 0 17.734375 0 L 39.902344 0 C 48.179688 0 54.683594 -6.945312 54.683594 -14.777344 L 47.292969 -14.777344 C 47.292969 -10.714844 43.96875 -7.390625 39.902344 -7.390625 L 17.734375 -7.390625 C 13.671875 -7.390625 10.34375 -10.714844 10.34375 -14.777344 L 10.34375 -36.945312 C 10.34375 -41.011719 13.671875 -44.335938 17.734375 -44.335938 L 39.902344 -44.335938 C 43.96875 -44.335938 47.292969 -41.011719 47.292969 -36.945312 L 54.683594 -36.945312 C 54.460938 -45.148438 47.808594 -51.726562 39.902344 -51.726562 Z M 17.734375 -51.726562 "/></g></g></g><g fill="#ffffff" fill-opacity="1"><g transform="translate(116.483497, 189.910437)"><g><path d="M 47.292969 -14.777344 C 47.292969 -10.714844 43.96875 -7.390625 39.902344 -7.390625 L 17.734375 -7.390625 C 13.671875 -7.390625 10.34375 -10.714844 10.34375 -14.777344 L 10.34375 -36.945312 C 10.34375 -41.011719 13.671875 -44.335938 17.734375 -44.335938 L 39.902344 -44.335938 C 43.96875 -44.335938 47.292969 -41.011719 47.292969 -36.945312 Z M 54.683594 -36.945312 C 54.683594 -45 47.734375 -51.726562 39.902344 -51.726562 L 17.734375 -51.726562 C 9.605469 -51.726562 2.957031 -45.074219 2.957031 -36.945312 L 2.957031 -14.777344 C 2.957031 -6.578125 9.53125 0 17.734375 0 L 39.902344 0 C 48.03125 0 54.683594 -6.652344 54.683594 -14.777344 Z M 54.683594 -36.945312 "/></g></g></g><g fill="#ffffff" fill-opacity="1"><g transform="translate(206.191188, 189.910437)"><g><path d="M 48.03125 -14.777344 C 48.03125 -10.714844 44.707031 -7.390625 40.640625 -7.390625 L 11.085938 -7.390625 L 11.085938 -44.335938 L 40.640625 -44.335938 C 44.707031 -44.335938 48.03125 -41.011719 48.03125 -36.945312 Z M 55.421875 -36.945312 C 55.199219 -45.148438 48.546875 -51.726562 40.640625 -51.726562 L 3.695312 -51.726562 L 3.695312 0 L 40.640625 0 C 48.917969 0 55.421875 -6.945312 55.421875 -14.777344 Z M 55.421875 -36.945312 "/></g></g></g><g fill="#ffffff" fill-opacity="1"><g transform="translate(296.637814, 189.910437)"><g><path d="M 11.085938 -44.335938 L 55.421875 -44.335938 L 55.421875 -51.726562 L 3.695312 -51.726562 L 3.695312 0 L 55.421875 0 L 55.421875 -7.390625 L 11.085938 -7.390625 L 11.085938 -22.167969 L 48.03125 -22.167969 L 48.03125 -29.558594 L 11.085938 -29.558594 Z M 11.085938 -44.335938 "/></g></g></g><g fill="#ffffff" fill-opacity="1"><g transform="translate(22.964271, 361.503595)"><g><path d="M 81.375 0 L 17.09375 0 L 17.09375 -153.234375 L 81.375 -153.234375 Z M 81.375 0 "/></g></g></g><g fill="#ffffff" fill-opacity="1"><g transform="translate(169.979239, 361.503595)"><g><path d="M 130.703125 0 L 66.421875 0 L 66.421875 -115.328125 L 6.40625 -115.328125 L 6.40625 -153.234375 L 190.71875 -153.234375 L 190.71875 -115.328125 L 130.703125 -115.328125 Z M 130.703125 0 "/></g></g></g></svg>