<svg xmlns="http://www.w3.org/2000/svg" xmlns:xlink="http://www.w3.org/1999/xlink" width="1000" zoomAndPan="magnify" viewBox="0 0 750 112.499997" height="150" preserveAspectRatio="xMidYMid meet" version="1.0"><defs><g/><clipPath id="a240ea6077"><path d="M 76.683594 7.613281 L 161.058594 7.613281 L 161.058594 104.679688 L 76.683594 104.679688 Z M 76.683594 7.613281 " clip-rule="nonzero"/></clipPath></defs><g clip-path="url(#a240ea6077)"><path fill="#e44d26" d="M 84.34375 94.703125 L 76.660156 7.960938 L 161.082031 7.960938 L 153.394531 94.691406 L 118.816406 104.335938 Z M 84.34375 94.703125 " fill-opacity="1" fill-rule="nonzero"/></g><path fill="#f16529" d="M 146.808594 89.167969 L 153.382812 15.054688 L 118.871094 15.054688 L 118.871094 96.964844 Z M 146.808594 89.167969 " fill-opacity="1" fill-rule="nonzero"/><path fill="#ebebeb" d="M 118.835938 25.691406 L 92.367188 25.691406 L 95.21875 57.863281 L 118.871094 57.863281 L 118.871094 47.226562 L 104.886719 47.226562 L 103.921875 36.332031 L 118.871094 36.332031 L 118.871094 25.691406 Z M 118.871094 74.820312 L 118.828125 74.832031 L 107.058594 71.632812 L 106.308594 63.148438 L 95.691406 63.148438 L 97.175781 79.851562 L 118.824219 85.875 L 118.871094 85.859375 Z M 118.871094 74.820312 " fill-opacity="1" fill-rule="nonzero"/><path fill="#ffffff" d="M 118.835938 57.863281 L 131.851562 57.863281 L 130.65625 71.65625 L 118.867188 74.859375 L 118.867188 85.925781 L 140.535156 79.882812 L 143.4375 47.21875 L 118.871094 47.21875 Z M 145.058594 28.546875 L 145.308594 25.691406 L 118.832031 25.691406 L 118.832031 36.328125 L 144.359375 36.328125 L 144.566406 33.9375 Z M 145.058594 28.546875 " fill-opacity="1" fill-rule="nonzero"/><g fill="#000000" fill-opacity="1"><g transform="translate(188.445166, 85.636043)"><g><path d="M 3.351562 0 L 10.398438 0 C 11.441406 0 12.363281 -0.925781 12.363281 -1.964844 L 12.363281 -42.0625 C 12.363281 -43.105469 13.289062 -44.027344 14.328125 -44.027344 L 32.472656 -44.027344 C 33.511719 -44.027344 34.4375 -43.105469 34.4375 -42.0625 L 34.4375 -1.964844 C 34.4375 -0.925781 35.359375 0 36.402344 0 L 43.449219 0 C 44.492188 0 45.414062 -0.925781 45.414062 -1.964844 L 45.414062 -42.0625 C 45.414062 -43.105469 44.492188 -44.027344 43.449219 -44.027344 L 36.402344 -44.027344 C 35.359375 -44.027344 34.4375 -44.953125 34.4375 -45.992188 L 34.4375 -53.042969 C 34.4375 -54.082031 33.511719 -55.007812 32.472656 -55.007812 L 14.328125 -55.007812 C 13.289062 -55.007812 12.363281 -55.929688 12.363281 -56.972656 L 12.363281 -75.113281 C 12.363281 -76.152344 11.441406 -77.078125 10.398438 -77.078125 L 3.351562 -77.078125 C 2.3125 -77.078125 1.386719 -76.152344 1.386719 -75.113281 L 1.386719 -1.964844 C 1.386719 -0.925781 2.3125 0 3.351562 0 Z M 3.351562 0 "/></g></g></g><g fill="#000000" fill-opacity="1"><g transform="translate(235.242644, 85.636043)"><g><path d="M 25.308594 0 L 43.449219 0 C 44.492188 0 45.414062 -0.925781 45.414062 -1.964844 L 45.414062 -9.011719 C 45.414062 -10.054688 44.492188 -10.976562 43.449219 -10.976562 L 25.308594 -10.976562 C 24.265625 -10.976562 23.34375 -11.902344 23.34375 -12.941406 L 23.34375 -42.0625 C 23.34375 -43.105469 24.265625 -44.027344 25.308594 -44.027344 L 43.449219 -44.027344 C 44.492188 -44.027344 45.414062 -44.953125 45.414062 -45.992188 L 45.414062 -53.042969 C 45.414062 -54.082031 44.492188 -55.007812 43.449219 -55.007812 L 25.308594 -55.007812 C 24.265625 -55.007812 23.34375 -55.929688 23.34375 -56.972656 L 23.34375 -75.113281 C 23.34375 -76.152344 22.417969 -77.078125 21.378906 -77.078125 L 14.328125 -77.078125 C 13.289062 -77.078125 12.363281 -76.152344 12.363281 -75.113281 L 12.363281 -56.972656 C 12.363281 -55.929688 11.441406 -55.007812 10.398438 -55.007812 L 3.351562 -55.007812 C 2.3125 -55.007812 1.386719 -54.082031 1.386719 -53.042969 L 1.386719 -45.992188 C 1.386719 -44.953125 2.3125 -44.027344 3.351562 -44.027344 L 10.398438 -44.027344 C 11.441406 -44.027344 12.363281 -43.105469 12.363281 -42.0625 L 12.363281 -12.941406 C 12.363281 -11.902344 13.289062 -10.976562 14.328125 -10.976562 L 21.378906 -10.976562 C 22.417969 -10.976562 23.34375 -10.054688 23.34375 -9.011719 L 23.34375 -1.964844 C 23.34375 -0.925781 24.265625 0 25.308594 0 Z M 25.308594 0 "/></g></g></g><g fill="#000000" fill-opacity="1"><g transform="translate(282.040123, 85.636043)"><g><path d="M 3.351562 0 L 10.398438 0 C 11.441406 0 12.363281 -0.925781 12.363281 -1.964844 L 12.363281 -42.0625 C 12.363281 -43.105469 13.289062 -44.027344 14.328125 -44.027344 L 32.472656 -44.027344 C 33.511719 -44.027344 34.4375 -43.105469 34.4375 -42.0625 L 34.4375 -1.964844 C 34.4375 -0.925781 35.359375 0 36.402344 0 L 43.449219 0 C 44.492188 0 45.414062 -0.925781 45.414062 -1.964844 L 45.414062 -42.0625 C 45.414062 -43.105469 46.339844 -44.027344 47.378906 -44.027344 L 65.523438 -44.027344 C 66.5625 -44.027344 67.488281 -43.105469 67.488281 -42.0625 L 67.488281 -1.964844 C 67.488281 -0.925781 68.410156 0 69.453125 0 L 76.5 0 C 77.539062 0 78.464844 -0.925781 78.464844 -1.964844 L 78.464844 -42.0625 C 78.464844 -43.105469 77.539062 -44.027344 76.5 -44.027344 L 69.453125 -44.027344 C 68.410156 -44.027344 67.488281 -44.953125 67.488281 -45.992188 L 67.488281 -53.042969 C 67.488281 -54.082031 66.5625 -55.007812 65.523438 -55.007812 L 47.378906 -55.007812 C 46.339844 -55.007812 45.414062 -54.082031 45.414062 -53.042969 L 45.414062 -45.992188 C 45.414062 -44.953125 44.492188 -44.027344 43.449219 -44.027344 L 36.402344 -44.027344 C 35.359375 -44.027344 34.4375 -44.953125 34.4375 -45.992188 L 34.4375 -53.042969 C 34.4375 -54.082031 33.511719 -55.007812 32.472656 -55.007812 L 3.351562 -55.007812 C 2.3125 -55.007812 1.386719 -54.082031 1.386719 -53.042969 L 1.386719 -1.964844 C 1.386719 -0.925781 2.3125 0 3.351562 0 Z M 3.351562 0 "/></g></g></g><g fill="#000000" fill-opacity="1"><g transform="translate(361.884684, 85.636043)"><g><path d="M 3.351562 0 L 10.398438 0 C 11.441406 0 12.363281 -0.925781 12.363281 -1.964844 L 12.363281 -75.113281 C 12.363281 -76.152344 11.441406 -77.078125 10.398438 -77.078125 L 3.351562 -77.078125 C 2.3125 -77.078125 1.386719 -76.152344 1.386719 -75.113281 L 1.386719 -1.964844 C 1.386719 -0.925781 2.3125 0 3.351562 0 Z M 3.351562 0 "/></g></g></g><g fill="#000000" fill-opacity="1"><g transform="translate(375.635037, 85.636043)"><g/></g></g><g fill="#000000" fill-opacity="1"><g transform="translate(392.1586, 85.636043)"><g><path d="M 25.308594 0 L 43.449219 0 C 44.492188 0 45.414062 -0.925781 45.414062 -1.964844 L 45.414062 -9.011719 C 45.414062 -10.054688 44.492188 -10.976562 43.449219 -10.976562 L 25.308594 -10.976562 C 24.265625 -10.976562 23.34375 -11.902344 23.34375 -12.941406 L 23.34375 -42.0625 C 23.34375 -43.105469 24.265625 -44.027344 25.308594 -44.027344 L 43.449219 -44.027344 C 44.492188 -44.027344 45.414062 -44.953125 45.414062 -45.992188 L 45.414062 -53.042969 C 45.414062 -54.082031 44.492188 -55.007812 43.449219 -55.007812 L 25.308594 -55.007812 C 24.265625 -55.007812 23.34375 -55.929688 23.34375 -56.972656 L 23.34375 -75.113281 C 23.34375 -76.152344 22.417969 -77.078125 21.378906 -77.078125 L 14.328125 -77.078125 C 13.289062 -77.078125 12.363281 -76.152344 12.363281 -75.113281 L 12.363281 -56.972656 C 12.363281 -55.929688 11.441406 -55.007812 10.398438 -55.007812 L 3.351562 -55.007812 C 2.3125 -55.007812 1.386719 -54.082031 1.386719 -53.042969 L 1.386719 -45.992188 C 1.386719 -44.953125 2.3125 -44.027344 3.351562 -44.027344 L 10.398438 -44.027344 C 11.441406 -44.027344 12.363281 -43.105469 12.363281 -42.0625 L 12.363281 -12.941406 C 12.363281 -11.902344 13.289062 -10.976562 14.328125 -10.976562 L 21.378906 -10.976562 C 22.417969 -10.976562 23.34375 -10.054688 23.34375 -9.011719 L 23.34375 -1.964844 C 23.34375 -0.925781 24.265625 0 25.308594 0 Z M 25.308594 0 "/></g></g></g><g fill="#000000" fill-opacity="1"><g transform="translate(438.956079, 85.636043)"><g><path d="M 14.328125 0 L 43.449219 0 C 44.492188 0 45.414062 -0.925781 45.414062 -1.964844 L 45.414062 -9.011719 C 45.414062 -10.054688 44.492188 -10.976562 43.449219 -10.976562 L 14.328125 -10.976562 C 13.289062 -10.976562 12.363281 -11.902344 12.363281 -12.941406 L 12.363281 -19.992188 C 12.363281 -21.03125 13.289062 -21.957031 14.328125 -21.957031 L 43.449219 -21.957031 C 44.492188 -21.957031 45.414062 -22.878906 45.414062 -23.921875 L 45.414062 -42.0625 C 45.414062 -43.105469 44.492188 -44.027344 43.449219 -44.027344 L 36.402344 -44.027344 C 35.359375 -44.027344 34.4375 -44.953125 34.4375 -45.992188 L 34.4375 -53.042969 C 34.4375 -54.082031 33.511719 -55.007812 32.472656 -55.007812 L 14.328125 -55.007812 C 13.289062 -55.007812 12.363281 -54.082031 12.363281 -53.042969 L 12.363281 -45.992188 C 12.363281 -44.953125 11.441406 -44.027344 10.398438 -44.027344 L 3.351562 -44.027344 C 2.3125 -44.027344 1.386719 -43.105469 1.386719 -42.0625 L 1.386719 -12.941406 C 1.386719 -11.902344 2.3125 -10.976562 3.351562 -10.976562 L 10.398438 -10.976562 C 11.441406 -10.976562 12.363281 -10.054688 12.363281 -9.011719 L 12.363281 -1.964844 C 12.363281 -0.925781 13.289062 0 14.328125 0 Z M 12.363281 -35.015625 L 12.363281 -42.0625 C 12.363281 -43.105469 13.289062 -44.027344 14.328125 -44.027344 L 32.472656 -44.027344 C 33.511719 -44.027344 34.4375 -43.105469 34.4375 -42.0625 L 34.4375 -35.015625 C 34.4375 -33.972656 33.511719 -33.050781 32.472656 -33.050781 L 14.328125 -33.050781 C 13.289062 -33.050781 12.363281 -33.972656 12.363281 -35.015625 Z M 12.363281 -35.015625 "/></g></g></g><g fill="#000000" fill-opacity="1"><g transform="translate(485.753557, 85.636043)"><g><path d="M 3.351562 0 L 10.398438 0 C 11.441406 0 12.363281 -0.925781 12.363281 -1.964844 L 12.363281 -42.0625 C 12.363281 -43.105469 13.289062 -44.027344 14.328125 -44.027344 L 32.472656 -44.027344 C 33.511719 -44.027344 34.4375 -44.953125 34.4375 -45.992188 L 34.4375 -53.042969 C 34.4375 -54.082031 33.511719 -55.007812 32.472656 -55.007812 L 14.328125 -55.007812 C 13.289062 -55.007812 12.363281 -54.082031 12.363281 -53.042969 L 12.363281 -45.992188 C 12.363281 -44.953125 11.441406 -44.027344 10.398438 -44.027344 L 3.351562 -44.027344 C 2.3125 -44.027344 1.386719 -43.105469 1.386719 -42.0625 L 1.386719 -1.964844 C 1.386719 -0.925781 2.3125 0 3.351562 0 Z M 3.351562 0 "/></g></g></g><g fill="#000000" fill-opacity="1"><g transform="translate(521.57385, 85.636043)"><g><path d="M 3.351562 0 L 10.398438 0 C 11.441406 0 12.363281 -0.925781 12.363281 -1.964844 L 12.363281 -42.0625 C 12.363281 -43.105469 13.289062 -44.027344 14.328125 -44.027344 L 32.472656 -44.027344 C 33.511719 -44.027344 34.4375 -43.105469 34.4375 -42.0625 L 34.4375 -1.964844 C 34.4375 -0.925781 35.359375 0 36.402344 0 L 43.449219 0 C 44.492188 0 45.414062 -0.925781 45.414062 -1.964844 L 45.414062 -42.0625 C 45.414062 -43.105469 46.339844 -44.027344 47.378906 -44.027344 L 65.523438 -44.027344 C 66.5625 -44.027344 67.488281 -43.105469 67.488281 -42.0625 L 67.488281 -1.964844 C 67.488281 -0.925781 68.410156 0 69.453125 0 L 76.5 0 C 77.539062 0 78.464844 -0.925781 78.464844 -1.964844 L 78.464844 -42.0625 C 78.464844 -43.105469 77.539062 -44.027344 76.5 -44.027344 L 69.453125 -44.027344 C 68.410156 -44.027344 67.488281 -44.953125 67.488281 -45.992188 L 67.488281 -53.042969 C 67.488281 -54.082031 66.5625 -55.007812 65.523438 -55.007812 L 47.378906 -55.007812 C 46.339844 -55.007812 45.414062 -54.082031 45.414062 -53.042969 L 45.414062 -45.992188 C 45.414062 -44.953125 44.492188 -44.027344 43.449219 -44.027344 L 36.402344 -44.027344 C 35.359375 -44.027344 34.4375 -44.953125 34.4375 -45.992188 L 34.4375 -53.042969 C 34.4375 -54.082031 33.511719 -55.007812 32.472656 -55.007812 L 3.351562 -55.007812 C 2.3125 -55.007812 1.386719 -54.082031 1.386719 -53.042969 L 1.386719 -1.964844 C 1.386719 -0.925781 2.3125 0 3.351562 0 Z M 3.351562 0 "/></g></g></g><g fill="#000000" fill-opacity="1"><g transform="translate(601.418412, 85.636043)"><g><path d="M 3.351562 0 L 32.472656 0 C 33.511719 0 34.4375 -0.925781 34.4375 -1.964844 L 34.4375 -9.011719 C 34.4375 -10.054688 35.359375 -10.976562 36.402344 -10.976562 L 43.449219 -10.976562 C 44.492188 -10.976562 45.414062 -11.902344 45.414062 -12.941406 L 45.414062 -31.085938 C 45.414062 -32.125 44.492188 -33.050781 43.449219 -33.050781 L 14.328125 -33.050781 C 13.289062 -33.050781 12.363281 -33.972656 12.363281 -35.015625 L 12.363281 -42.0625 C 12.363281 -43.105469 13.289062 -44.027344 14.328125 -44.027344 L 43.449219 -44.027344 C 44.492188 -44.027344 45.414062 -44.953125 45.414062 -45.992188 L 45.414062 -53.042969 C 45.414062 -54.082031 44.492188 -55.007812 43.449219 -55.007812 L 14.328125 -55.007812 C 13.289062 -55.007812 12.363281 -54.082031 12.363281 -53.042969 L 12.363281 -45.992188 C 12.363281 -44.953125 11.441406 -44.027344 10.398438 -44.027344 L 3.351562 -44.027344 C 2.3125 -44.027344 1.386719 -43.105469 1.386719 -42.0625 L 1.386719 -23.921875 C 1.386719 -22.878906 2.3125 -21.957031 3.351562 -21.957031 L 32.472656 -21.957031 C 33.511719 -21.957031 34.4375 -21.03125 34.4375 -19.992188 L 34.4375 -12.941406 C 34.4375 -11.902344 33.511719 -10.976562 32.472656 -10.976562 L 3.351562 -10.976562 C 2.3125 -10.976562 1.386719 -10.054688 1.386719 -9.011719 L 1.386719 -1.964844 C 1.386719 -0.925781 2.3125 0 3.351562 0 Z M 3.351562 0 "/></g></g></g></svg>