<svg xmlns="http://www.w3.org/2000/svg" xmlns:xlink="http://www.w3.org/1999/xlink" width="500" zoomAndPan="magnify" viewBox="0 0 375 374.999991" height="500" preserveAspectRatio="xMidYMid meet" version="1.0"><path fill="#0058ef" d="M 172.265625 253.515625 C 163.859375 251.578125 158.609375 243.1875 160.546875 234.78125 L 183.984375 133.21875 C 185.9375 124.796875 194.375 119.546875 202.734375 121.5 C 211.140625 123.4375 216.390625 131.828125 214.453125 140.234375 L 191.015625 241.796875 C 189.046875 250.25 180.609375 255.453125 172.265625 253.515625 Z M 172.265625 253.515625 " fill-opacity="1" fill-rule="nonzero"/><path fill="#0058ef" d="M 242.1875 238.28125 C 237.90625 238.28125 233.65625 236.546875 230.5625 233.109375 C 224.78125 226.703125 225.3125 216.8125 231.71875 211.046875 L 257.890625 187.5 L 231.734375 163.953125 C 225.3125 158.1875 224.796875 148.296875 230.578125 141.890625 C 236.328125 135.46875 246.234375 134.953125 252.640625 140.734375 L 291.703125 175.890625 C 295 178.84375 296.875 183.078125 296.875 187.5 C 296.875 191.921875 295 196.15625 291.703125 199.109375 L 252.640625 234.265625 C 249.65625 236.953125 245.921875 238.28125 242.1875 238.28125 Z M 242.1875 238.28125 " fill-opacity="1" fill-rule="nonzero"/><path fill="#0058ef" d="M 132.8125 238.28125 C 129.09375 238.28125 125.34375 236.953125 122.375 234.265625 L 83.3125 199.109375 C 80 196.15625 78.125 191.921875 78.125 187.5 C 78.125 183.078125 80 178.84375 83.296875 175.890625 L 122.359375 140.734375 C 128.78125 134.953125 138.65625 135.46875 144.421875 141.890625 C 150.203125 148.296875 149.671875 158.1875 143.265625 163.953125 L 117.109375 187.5 L 143.265625 211.046875 C 149.6875 216.8125 150.203125 226.703125 144.421875 233.109375 C 141.34375 236.546875 137.078125 238.28125 132.8125 238.28125 Z M 132.8125 238.28125 " fill-opacity="1" fill-rule="nonzero"/><path fill="#ffbd59" d="M 3.09375 127.59375 C 0.203125 135.734375 4.453125 144.65625 12.59375 147.53125 C 20.75 150.421875 29.65625 146.15625 32.546875 138.03125 C 55.1875 74.15625 115.890625 31.25 183.59375 31.25 C 237.375 31.25 286.671875 58.390625 316.0625 101.5625 L 352.5625 101.5625 C 319.65625 39.859375 254.90625 0 183.59375 0 C 102.6875 0 30.15625 51.265625 3.09375 127.59375 Z M 3.09375 127.59375 " fill-opacity="1" fill-rule="nonzero"/><path fill="#ffbd59" d="M 342.453125 236.96875 C 319.8125 300.84375 259.109375 343.75 191.40625 343.75 C 131.390625 343.75 76.921875 309.984375 49.546875 257.8125 L 15.0625 257.8125 C 44.8125 328.328125 114.265625 375 191.40625 375 C 272.3125 375 344.84375 323.734375 371.90625 247.40625 C 374.796875 239.265625 370.546875 230.34375 362.40625 227.46875 C 354.21875 224.5625 345.34375 228.84375 342.453125 236.96875 Z M 342.453125 236.96875 " fill-opacity="1" fill-rule="nonzero"/><path fill="#ffbd59" d="M 375 50.78125 L 375 121.09375 C 375 129.71875 368 136.71875 359.375 136.71875 L 289.0625 136.71875 C 282.75 136.71875 277.046875 132.90625 274.625 127.078125 C 272.1875 121.234375 273.53125 114.53125 278.015625 110.046875 L 348.328125 39.734375 C 352.796875 35.265625 359.515625 33.921875 365.359375 36.34375 C 371.1875 38.765625 375 44.46875 375 50.78125 Z M 375 50.78125 " fill-opacity="1" fill-rule="nonzero"/><path fill="#ffbd59" d="M 101.5625 249.984375 C 101.5625 254.046875 99.96875 258.046875 96.984375 261.03125 L 26.671875 331.34375 C 22.203125 335.8125 15.484375 337.15625 9.640625 334.734375 C 3.8125 332.328125 0 326.625 0 320.296875 L 0 249.984375 C 0 241.359375 7 234.359375 15.625 234.359375 L 85.9375 234.359375 C 92.25 234.359375 97.953125 238.171875 100.375 244 C 101.171875 245.953125 101.5625 247.984375 101.5625 249.984375 Z M 101.5625 249.984375 " fill-opacity="1" fill-rule="nonzero"/></svg>