<svg xmlns="http://www.w3.org/2000/svg" xmlns:xlink="http://www.w3.org/1999/xlink" width="1000" zoomAndPan="magnify" viewBox="0 0 750 149.999998" height="200" preserveAspectRatio="xMidYMid meet" version="1.0"><defs><g/></defs><g fill="#ff00ff" fill-opacity="1"><g transform="translate(136.147117, 77.89914)"><g><path d="M 3.753906 -43.550781 L 3.753906 -30.785156 L 12.765625 -30.785156 L 12.765625 -21.777344 L 30.785156 -21.777344 L 30.785156 -9.011719 L 39.796875 -9.011719 L 39.796875 -21.777344 L 30.785156 -21.777344 L 30.785156 -30.785156 L 12.765625 -30.785156 L 12.765625 -43.550781 Z M 12.765625 -9.011719 L 12.765625 -18.023438 L 3.753906 -18.023438 L 3.753906 -9.011719 L 12.765625 -9.011719 L 12.765625 0 L 30.785156 0 L 30.785156 -9.011719 Z M 12.765625 -52.5625 L 12.765625 -43.550781 L 30.785156 -43.550781 L 30.785156 -34.542969 L 39.796875 -34.542969 L 39.796875 -43.550781 L 30.785156 -43.550781 L 30.785156 -52.5625 Z M 12.765625 -52.5625 "/></g></g></g><g fill="#ff00ff" fill-opacity="1"><g transform="translate(187.654378, 77.89914)"><g><path d="M 3.753906 -52.5625 L 3.753906 0 L 39.796875 0 L 39.796875 -9.011719 L 12.765625 -9.011719 L 12.765625 -21.777344 L 30.785156 -21.777344 L 30.785156 -30.785156 L 12.765625 -30.785156 L 12.765625 -43.550781 L 39.796875 -43.550781 L 39.796875 -52.5625 Z M 3.753906 -52.5625 "/></g></g></g><g fill="#ff00ff" fill-opacity="1"><g transform="translate(239.236725, 77.89914)"><g><path d="M 3.753906 -52.5625 L 3.753906 -43.550781 L 17.269531 -43.550781 L 17.269531 0 L 26.28125 0 L 26.28125 -43.550781 L 39.796875 -43.550781 L 39.796875 -52.5625 Z M 3.753906 -52.5625 "/></g></g></g><g fill="#ff00ff" fill-opacity="1"><g transform="translate(290.743993, 77.89914)"><g><path d="M 3.753906 -52.5625 L 3.753906 -43.550781 L 17.269531 -43.550781 L 17.269531 0 L 26.28125 0 L 26.28125 -43.550781 L 39.796875 -43.550781 L 39.796875 -52.5625 Z M 3.753906 -52.5625 "/></g></g></g><g fill="#ff00ff" fill-opacity="1"><g transform="translate(342.25126, 77.89914)"><g><path d="M 3.753906 0 L 12.765625 0 L 12.765625 -52.5625 L 3.753906 -52.5625 Z M 3.753906 0 "/></g></g></g><g fill="#ff00ff" fill-opacity="1"><g transform="translate(366.804077, 77.89914)"><g><path d="M 3.753906 -52.5625 L 3.753906 0 L 12.765625 0 L 12.765625 -34.542969 L 21.777344 -34.542969 L 21.777344 -25.53125 L 30.785156 -25.53125 L 30.785156 -16.519531 L 39.796875 -16.519531 L 39.796875 0 L 48.808594 0 L 48.808594 -52.5625 L 39.796875 -52.5625 L 39.796875 -25.53125 L 30.785156 -25.53125 L 30.785156 -34.542969 L 21.777344 -34.542969 L 21.777344 -43.550781 L 12.765625 -43.550781 L 12.765625 -52.5625 Z M 3.753906 -52.5625 "/></g></g></g><g fill="#ff00ff" fill-opacity="1"><g transform="translate(427.321187, 77.89914)"><g><path d="M 3.753906 -43.550781 L 3.753906 -9.011719 L 12.765625 -9.011719 L 12.765625 0 L 30.785156 0 L 30.785156 -9.011719 L 12.765625 -9.011719 L 12.765625 -43.550781 Z M 12.765625 -52.5625 L 12.765625 -43.550781 L 30.785156 -43.550781 L 30.785156 -34.542969 L 39.796875 -34.542969 L 39.796875 -43.550781 L 30.785156 -43.550781 L 30.785156 -52.5625 Z M 39.796875 -9.011719 L 39.796875 -26.28125 L 21.777344 -26.28125 L 21.777344 -17.269531 L 30.785156 -17.269531 L 30.785156 -9.011719 Z M 39.796875 -9.011719 "/></g></g></g><g fill="#ff00ff" fill-opacity="1"><g transform="translate(478.903528, 77.89914)"><g/></g></g><g fill="#ff00ff" fill-opacity="1"><g transform="translate(513.21701, 77.89914)"><g><path d="M 12.765625 -9.011719 L 12.765625 -52.5625 L 3.753906 -52.5625 L 3.753906 -9.011719 L 12.765625 -9.011719 L 12.765625 0 L 30.785156 0 L 30.785156 -9.011719 Z M 30.785156 -52.5625 L 30.785156 -9.011719 L 39.796875 -9.011719 L 39.796875 -52.5625 Z M 30.785156 -52.5625 "/></g></g></g><g fill="#ff00ff" fill-opacity="1"><g transform="translate(564.724255, 77.89914)"><g><path d="M 12.765625 -43.550781 L 30.785156 -43.550781 L 30.785156 -30.785156 L 39.796875 -30.785156 L 39.796875 -43.550781 L 30.785156 -43.550781 L 30.785156 -52.5625 L 3.753906 -52.5625 L 3.753906 0 L 12.765625 0 L 12.765625 -21.777344 L 30.785156 -21.777344 L 30.785156 -30.785156 L 12.765625 -30.785156 Z M 12.765625 -43.550781 "/></g></g></g><g fill="#00ffff" fill-opacity="1"><g transform="translate(141.793856, 79.307026)"><g><path d="M 3.753906 -43.550781 L 3.753906 -30.785156 L 12.765625 -30.785156 L 12.765625 -21.777344 L 30.785156 -21.777344 L 30.785156 -9.011719 L 39.796875 -9.011719 L 39.796875 -21.777344 L 30.785156 -21.777344 L 30.785156 -30.785156 L 12.765625 -30.785156 L 12.765625 -43.550781 Z M 12.765625 -9.011719 L 12.765625 -18.023438 L 3.753906 -18.023438 L 3.753906 -9.011719 L 12.765625 -9.011719 L 12.765625 0 L 30.785156 0 L 30.785156 -9.011719 Z M 12.765625 -52.5625 L 12.765625 -43.550781 L 30.785156 -43.550781 L 30.785156 -34.542969 L 39.796875 -34.542969 L 39.796875 -43.550781 L 30.785156 -43.550781 L 30.785156 -52.5625 Z M 12.765625 -52.5625 "/></g></g></g><g fill="#00ffff" fill-opacity="1"><g transform="translate(193.301117, 79.307026)"><g><path d="M 3.753906 -52.5625 L 3.753906 0 L 39.796875 0 L 39.796875 -9.011719 L 12.765625 -9.011719 L 12.765625 -21.777344 L 30.785156 -21.777344 L 30.785156 -30.785156 L 12.765625 -30.785156 L 12.765625 -43.550781 L 39.796875 -43.550781 L 39.796875 -52.5625 Z M 3.753906 -52.5625 "/></g></g></g><g fill="#00ffff" fill-opacity="1"><g transform="translate(244.883464, 79.307026)"><g><path d="M 3.753906 -52.5625 L 3.753906 -43.550781 L 17.269531 -43.550781 L 17.269531 0 L 26.28125 0 L 26.28125 -43.550781 L 39.796875 -43.550781 L 39.796875 -52.5625 Z M 3.753906 -52.5625 "/></g></g></g><g fill="#00ffff" fill-opacity="1"><g transform="translate(296.390732, 79.307026)"><g><path d="M 3.753906 -52.5625 L 3.753906 -43.550781 L 17.269531 -43.550781 L 17.269531 0 L 26.28125 0 L 26.28125 -43.550781 L 39.796875 -43.550781 L 39.796875 -52.5625 Z M 3.753906 -52.5625 "/></g></g></g><g fill="#00ffff" fill-opacity="1"><g transform="translate(347.897999, 79.307026)"><g><path d="M 3.753906 0 L 12.765625 0 L 12.765625 -52.5625 L 3.753906 -52.5625 Z M 3.753906 0 "/></g></g></g><g fill="#00ffff" fill-opacity="1"><g transform="translate(372.450816, 79.307026)"><g><path d="M 3.753906 -52.5625 L 3.753906 0 L 12.765625 0 L 12.765625 -34.542969 L 21.777344 -34.542969 L 21.777344 -25.53125 L 30.785156 -25.53125 L 30.785156 -16.519531 L 39.796875 -16.519531 L 39.796875 0 L 48.808594 0 L 48.808594 -52.5625 L 39.796875 -52.5625 L 39.796875 -25.53125 L 30.785156 -25.53125 L 30.785156 -34.542969 L 21.777344 -34.542969 L 21.777344 -43.550781 L 12.765625 -43.550781 L 12.765625 -52.5625 Z M 3.753906 -52.5625 "/></g></g></g><g fill="#00ffff" fill-opacity="1"><g transform="translate(432.967926, 79.307026)"><g><path d="M 3.753906 -43.550781 L 3.753906 -9.011719 L 12.765625 -9.011719 L 12.765625 0 L 30.785156 0 L 30.785156 -9.011719 L 12.765625 -9.011719 L 12.765625 -43.550781 Z M 12.765625 -52.5625 L 12.765625 -43.550781 L 30.785156 -43.550781 L 30.785156 -34.542969 L 39.796875 -34.542969 L 39.796875 -43.550781 L 30.785156 -43.550781 L 30.785156 -52.5625 Z M 39.796875 -9.011719 L 39.796875 -26.28125 L 21.777344 -26.28125 L 21.777344 -17.269531 L 30.785156 -17.269531 L 30.785156 -9.011719 Z M 39.796875 -9.011719 "/></g></g></g><g fill="#00ffff" fill-opacity="1"><g transform="translate(484.550267, 79.307026)"><g/></g></g><g fill="#00ffff" fill-opacity="1"><g transform="translate(518.863749, 79.307026)"><g><path d="M 12.765625 -9.011719 L 12.765625 -52.5625 L 3.753906 -52.5625 L 3.753906 -9.011719 L 12.765625 -9.011719 L 12.765625 0 L 30.785156 0 L 30.785156 -9.011719 Z M 30.785156 -52.5625 L 30.785156 -9.011719 L 39.796875 -9.011719 L 39.796875 -52.5625 Z M 30.785156 -52.5625 "/></g></g></g><g fill="#00ffff" fill-opacity="1"><g transform="translate(570.370994, 79.307026)"><g><path d="M 12.765625 -43.550781 L 30.785156 -43.550781 L 30.785156 -30.785156 L 39.796875 -30.785156 L 39.796875 -43.550781 L 30.785156 -43.550781 L 30.785156 -52.5625 L 3.753906 -52.5625 L 3.753906 0 L 12.765625 0 L 12.765625 -21.777344 L 30.785156 -21.777344 L 30.785156 -30.785156 L 12.765625 -30.785156 Z M 12.765625 -43.550781 "/></g></g></g><g fill="#3b1b72" fill-opacity="1"><g transform="translate(138.970486, 78.603083)"><g><path d="M 3.753906 -43.550781 L 3.753906 -30.785156 L 12.765625 -30.785156 L 12.765625 -21.777344 L 30.785156 -21.777344 L 30.785156 -9.011719 L 39.796875 -9.011719 L 39.796875 -21.777344 L 30.785156 -21.777344 L 30.785156 -30.785156 L 12.765625 -30.785156 L 12.765625 -43.550781 Z M 12.765625 -9.011719 L 12.765625 -18.023438 L 3.753906 -18.023438 L 3.753906 -9.011719 L 12.765625 -9.011719 L 12.765625 0 L 30.785156 0 L 30.785156 -9.011719 Z M 12.765625 -52.5625 L 12.765625 -43.550781 L 30.785156 -43.550781 L 30.785156 -34.542969 L 39.796875 -34.542969 L 39.796875 -43.550781 L 30.785156 -43.550781 L 30.785156 -52.5625 Z M 12.765625 -52.5625 "/></g></g></g><g fill="#3b1b72" fill-opacity="1"><g transform="translate(190.477748, 78.603083)"><g><path d="M 3.753906 -52.5625 L 3.753906 0 L 39.796875 0 L 39.796875 -9.011719 L 12.765625 -9.011719 L 12.765625 -21.777344 L 30.785156 -21.777344 L 30.785156 -30.785156 L 12.765625 -30.785156 L 12.765625 -43.550781 L 39.796875 -43.550781 L 39.796875 -52.5625 Z M 3.753906 -52.5625 "/></g></g></g><g fill="#3b1b72" fill-opacity="1"><g transform="translate(242.060094, 78.603083)"><g><path d="M 3.753906 -52.5625 L 3.753906 -43.550781 L 17.269531 -43.550781 L 17.269531 0 L 26.28125 0 L 26.28125 -43.550781 L 39.796875 -43.550781 L 39.796875 -52.5625 Z M 3.753906 -52.5625 "/></g></g></g><g fill="#3b1b72" fill-opacity="1"><g transform="translate(293.567362, 78.603083)"><g><path d="M 3.753906 -52.5625 L 3.753906 -43.550781 L 17.269531 -43.550781 L 17.269531 0 L 26.28125 0 L 26.28125 -43.550781 L 39.796875 -43.550781 L 39.796875 -52.5625 Z M 3.753906 -52.5625 "/></g></g></g><g fill="#3b1b72" fill-opacity="1"><g transform="translate(345.07463, 78.603083)"><g><path d="M 3.753906 0 L 12.765625 0 L 12.765625 -52.5625 L 3.753906 -52.5625 Z M 3.753906 0 "/></g></g></g><g fill="#3b1b72" fill-opacity="1"><g transform="translate(369.627447, 78.603083)"><g><path d="M 3.753906 -52.5625 L 3.753906 0 L 12.765625 0 L 12.765625 -34.542969 L 21.777344 -34.542969 L 21.777344 -25.53125 L 30.785156 -25.53125 L 30.785156 -16.519531 L 39.796875 -16.519531 L 39.796875 0 L 48.808594 0 L 48.808594 -52.5625 L 39.796875 -52.5625 L 39.796875 -25.53125 L 30.785156 -25.53125 L 30.785156 -34.542969 L 21.777344 -34.542969 L 21.777344 -43.550781 L 12.765625 -43.550781 L 12.765625 -52.5625 Z M 3.753906 -52.5625 "/></g></g></g><g fill="#3b1b72" fill-opacity="1"><g transform="translate(430.144556, 78.603083)"><g><path d="M 3.753906 -43.550781 L 3.753906 -9.011719 L 12.765625 -9.011719 L 12.765625 0 L 30.785156 0 L 30.785156 -9.011719 L 12.765625 -9.011719 L 12.765625 -43.550781 Z M 12.765625 -52.5625 L 12.765625 -43.550781 L 30.785156 -43.550781 L 30.785156 -34.542969 L 39.796875 -34.542969 L 39.796875 -43.550781 L 30.785156 -43.550781 L 30.785156 -52.5625 Z M 39.796875 -9.011719 L 39.796875 -26.28125 L 21.777344 -26.28125 L 21.777344 -17.269531 L 30.785156 -17.269531 L 30.785156 -9.011719 Z M 39.796875 -9.011719 "/></g></g></g><g fill="#3b1b72" fill-opacity="1"><g transform="translate(481.726897, 78.603083)"><g/></g></g><g fill="#3b1b72" fill-opacity="1"><g transform="translate(516.040379, 78.603083)"><g><path d="M 12.765625 -9.011719 L 12.765625 -52.5625 L 3.753906 -52.5625 L 3.753906 -9.011719 L 12.765625 -9.011719 L 12.765625 0 L 30.785156 0 L 30.785156 -9.011719 Z M 30.785156 -52.5625 L 30.785156 -9.011719 L 39.796875 -9.011719 L 39.796875 -52.5625 Z M 30.785156 -52.5625 "/></g></g></g><g fill="#3b1b72" fill-opacity="1"><g transform="translate(567.547625, 78.603083)"><g><path d="M 12.765625 -43.550781 L 30.785156 -43.550781 L 30.785156 -30.785156 L 39.796875 -30.785156 L 39.796875 -43.550781 L 30.785156 -43.550781 L 30.785156 -52.5625 L 3.753906 -52.5625 L 3.753906 0 L 12.765625 0 L 12.765625 -21.777344 L 30.785156 -21.777344 L 30.785156 -30.785156 L 12.765625 -30.785156 Z M 12.765625 -43.550781 "/></g></g></g><g fill="#ff00ff" fill-opacity="1"><g transform="translate(44.988486, 131.303133)"><g><path d="M 9.363281 -31.949219 L 22.585938 -31.949219 L 22.585938 -22.585938 L 9.363281 -22.585938 L 9.363281 -31.949219 L 2.753906 -31.949219 L 2.753906 0 L 9.363281 0 L 9.363281 -15.976562 L 22.585938 -15.976562 L 22.585938 0 L 29.195312 0 L 29.195312 -31.949219 L 22.585938 -31.949219 L 22.585938 -38.5625 L 9.363281 -38.5625 Z M 9.363281 -31.949219 "/></g></g></g><g fill="#ff00ff" fill-opacity="1"><g transform="translate(82.773544, 131.303133)"><g/></g></g><g fill="#ff00ff" fill-opacity="1"><g transform="translate(107.945727, 131.303133)"><g><path d="M 9.363281 -31.949219 L 22.585938 -31.949219 L 22.585938 -22.585938 L 29.195312 -22.585938 L 29.195312 -31.949219 L 22.585938 -31.949219 L 22.585938 -38.5625 L 2.753906 -38.5625 L 2.753906 0 L 9.363281 0 L 9.363281 -15.976562 L 22.585938 -15.976562 L 22.585938 -22.585938 L 9.363281 -22.585938 Z M 9.363281 -31.949219 "/></g></g></g><g fill="#ff00ff" fill-opacity="1"><g transform="translate(145.730785, 131.303133)"><g><path d="M 2.753906 -38.5625 L 2.753906 0 L 29.195312 0 L 29.195312 -6.609375 L 9.363281 -6.609375 L 9.363281 -38.5625 Z M 2.753906 -38.5625 "/></g></g></g><g fill="#ff00ff" fill-opacity="1"><g transform="translate(183.515844, 131.303133)"><g><path d="M 9.363281 -31.949219 L 22.585938 -31.949219 L 22.585938 -22.585938 L 9.363281 -22.585938 L 9.363281 -31.949219 L 2.753906 -31.949219 L 2.753906 0 L 9.363281 0 L 9.363281 -15.976562 L 22.585938 -15.976562 L 22.585938 0 L 29.195312 0 L 29.195312 -31.949219 L 22.585938 -31.949219 L 22.585938 -38.5625 L 9.363281 -38.5625 Z M 9.363281 -31.949219 "/></g></g></g><g fill="#ff00ff" fill-opacity="1"><g transform="translate(221.300902, 131.303133)"><g><path d="M 2.753906 -31.949219 L 2.753906 -6.609375 L 9.363281 -6.609375 L 9.363281 0 L 22.585938 0 L 22.585938 -6.609375 L 9.363281 -6.609375 L 9.363281 -31.949219 Z M 9.363281 -38.5625 L 9.363281 -31.949219 L 22.585938 -31.949219 L 22.585938 -25.339844 L 29.195312 -25.339844 L 29.195312 -31.949219 L 22.585938 -31.949219 L 22.585938 -38.5625 Z M 29.195312 -6.609375 L 29.195312 -13.222656 L 22.585938 -13.222656 L 22.585938 -6.609375 Z M 29.195312 -6.609375 "/></g></g></g><g fill="#ff00ff" fill-opacity="1"><g transform="translate(259.085961, 131.303133)"><g><path d="M 2.753906 -38.5625 L 2.753906 0 L 29.195312 0 L 29.195312 -6.609375 L 9.363281 -6.609375 L 9.363281 -15.976562 L 22.585938 -15.976562 L 22.585938 -22.585938 L 9.363281 -22.585938 L 9.363281 -31.949219 L 29.195312 -31.949219 L 29.195312 -38.5625 Z M 2.753906 -38.5625 "/></g></g></g><g fill="#ff00ff" fill-opacity="1"><g transform="translate(296.9261, 131.303133)"><g/></g></g><g fill="#ff00ff" fill-opacity="1"><g transform="translate(322.098271, 131.303133)"><g><path d="M 2.753906 -38.5625 L 2.753906 -31.949219 L 12.671875 -31.949219 L 12.671875 0 L 19.28125 0 L 19.28125 -31.949219 L 29.195312 -31.949219 L 29.195312 -38.5625 Z M 2.753906 -38.5625 "/></g></g></g><g fill="#ff00ff" fill-opacity="1"><g transform="translate(359.883319, 131.303133)"><g><path d="M 9.363281 -31.949219 L 22.585938 -31.949219 L 22.585938 -6.609375 L 29.195312 -6.609375 L 29.195312 -31.949219 L 22.585938 -31.949219 L 22.585938 -38.5625 L 9.363281 -38.5625 Z M 9.363281 -31.949219 L 2.753906 -31.949219 L 2.753906 -6.609375 L 9.363281 -6.609375 L 9.363281 0 L 22.585938 0 L 22.585938 -6.609375 L 9.363281 -6.609375 Z M 9.363281 -31.949219 "/></g></g></g><g fill="#ff00ff" fill-opacity="1"><g transform="translate(397.668366, 131.303133)"><g/></g></g><g fill="#ff00ff" fill-opacity="1"><g transform="translate(422.84056, 131.303133)"><g><path d="M 9.363281 -31.949219 L 22.585938 -31.949219 L 22.585938 -22.585938 L 29.195312 -22.585938 L 29.195312 -31.949219 L 22.585938 -31.949219 L 22.585938 -38.5625 L 2.753906 -38.5625 L 2.753906 0 L 9.363281 0 L 9.363281 -15.976562 L 22.585938 -15.976562 L 22.585938 -22.585938 L 9.363281 -22.585938 Z M 9.363281 -31.949219 "/></g></g></g><g fill="#ff00ff" fill-opacity="1"><g transform="translate(460.625607, 131.303133)"><g><path d="M 9.363281 -31.949219 L 22.585938 -31.949219 L 22.585938 -22.585938 L 29.195312 -22.585938 L 29.195312 -31.949219 L 22.585938 -31.949219 L 22.585938 -38.5625 L 2.753906 -38.5625 L 2.753906 0 L 9.363281 0 L 9.363281 -15.976562 L 22.585938 -15.976562 L 22.585938 0 L 29.195312 0 L 29.195312 -15.976562 L 22.585938 -15.976562 L 22.585938 -22.585938 L 9.363281 -22.585938 Z M 9.363281 -31.949219 "/></g></g></g><g fill="#ff00ff" fill-opacity="1"><g transform="translate(498.410654, 131.303133)"><g><path d="M 9.363281 -31.949219 L 22.585938 -31.949219 L 22.585938 -22.585938 L 9.363281 -22.585938 L 9.363281 -31.949219 L 2.753906 -31.949219 L 2.753906 0 L 9.363281 0 L 9.363281 -15.976562 L 22.585938 -15.976562 L 22.585938 0 L 29.195312 0 L 29.195312 -31.949219 L 22.585938 -31.949219 L 22.585938 -38.5625 L 9.363281 -38.5625 Z M 9.363281 -31.949219 "/></g></g></g><g fill="#ff00ff" fill-opacity="1"><g transform="translate(536.195702, 131.303133)"><g><path d="M 2.753906 -31.949219 L 2.753906 -6.609375 L 9.363281 -6.609375 L 9.363281 0 L 22.585938 0 L 22.585938 -6.609375 L 9.363281 -6.609375 L 9.363281 -31.949219 Z M 9.363281 -38.5625 L 9.363281 -31.949219 L 22.585938 -31.949219 L 22.585938 -25.339844 L 29.195312 -25.339844 L 29.195312 -31.949219 L 22.585938 -31.949219 L 22.585938 -38.5625 Z M 29.195312 -6.609375 L 29.195312 -13.222656 L 22.585938 -13.222656 L 22.585938 -6.609375 Z M 29.195312 -6.609375 "/></g></g></g><g fill="#ff00ff" fill-opacity="1"><g transform="translate(573.980749, 131.303133)"><g><path d="M 2.753906 -38.5625 L 2.753906 -31.949219 L 12.671875 -31.949219 L 12.671875 0 L 19.28125 0 L 19.28125 -31.949219 L 29.195312 -31.949219 L 29.195312 -38.5625 Z M 2.753906 -38.5625 "/></g></g></g><g fill="#ff00ff" fill-opacity="1"><g transform="translate(611.765796, 131.303133)"><g><path d="M 2.753906 0 L 9.363281 0 L 9.363281 -38.5625 L 2.753906 -38.5625 Z M 2.753906 0 "/></g></g></g><g fill="#ff00ff" fill-opacity="1"><g transform="translate(629.777834, 131.303133)"><g><path d="M 2.753906 -31.949219 L 2.753906 -6.609375 L 9.363281 -6.609375 L 9.363281 0 L 22.585938 0 L 22.585938 -6.609375 L 9.363281 -6.609375 L 9.363281 -31.949219 Z M 9.363281 -38.5625 L 9.363281 -31.949219 L 22.585938 -31.949219 L 22.585938 -25.339844 L 29.195312 -25.339844 L 29.195312 -31.949219 L 22.585938 -31.949219 L 22.585938 -38.5625 Z M 29.195312 -6.609375 L 29.195312 -13.222656 L 22.585938 -13.222656 L 22.585938 -6.609375 Z M 29.195312 -6.609375 "/></g></g></g><g fill="#ff00ff" fill-opacity="1"><g transform="translate(667.562882, 131.303133)"><g><path d="M 2.753906 -38.5625 L 2.753906 0 L 29.195312 0 L 29.195312 -6.609375 L 9.363281 -6.609375 L 9.363281 -15.976562 L 22.585938 -15.976562 L 22.585938 -22.585938 L 9.363281 -22.585938 L 9.363281 -31.949219 L 29.195312 -31.949219 L 29.195312 -38.5625 Z M 2.753906 -38.5625 "/></g></g></g><g fill="#00ffff" fill-opacity="1"><g transform="translate(50.467683, 132.669244)"><g><path d="M 9.363281 -31.949219 L 22.585938 -31.949219 L 22.585938 -22.585938 L 9.363281 -22.585938 L 9.363281 -31.949219 L 2.753906 -31.949219 L 2.753906 0 L 9.363281 0 L 9.363281 -15.976562 L 22.585938 -15.976562 L 22.585938 0 L 29.195312 0 L 29.195312 -31.949219 L 22.585938 -31.949219 L 22.585938 -38.5625 L 9.363281 -38.5625 Z M 9.363281 -31.949219 "/></g></g></g><g fill="#00ffff" fill-opacity="1"><g transform="translate(88.252741, 132.669244)"><g/></g></g><g fill="#00ffff" fill-opacity="1"><g transform="translate(113.424924, 132.669244)"><g><path d="M 9.363281 -31.949219 L 22.585938 -31.949219 L 22.585938 -22.585938 L 29.195312 -22.585938 L 29.195312 -31.949219 L 22.585938 -31.949219 L 22.585938 -38.5625 L 2.753906 -38.5625 L 2.753906 0 L 9.363281 0 L 9.363281 -15.976562 L 22.585938 -15.976562 L 22.585938 -22.585938 L 9.363281 -22.585938 Z M 9.363281 -31.949219 "/></g></g></g><g fill="#00ffff" fill-opacity="1"><g transform="translate(151.209982, 132.669244)"><g><path d="M 2.753906 -38.5625 L 2.753906 0 L 29.195312 0 L 29.195312 -6.609375 L 9.363281 -6.609375 L 9.363281 -38.5625 Z M 2.753906 -38.5625 "/></g></g></g><g fill="#00ffff" fill-opacity="1"><g transform="translate(188.995041, 132.669244)"><g><path d="M 9.363281 -31.949219 L 22.585938 -31.949219 L 22.585938 -22.585938 L 9.363281 -22.585938 L 9.363281 -31.949219 L 2.753906 -31.949219 L 2.753906 0 L 9.363281 0 L 9.363281 -15.976562 L 22.585938 -15.976562 L 22.585938 0 L 29.195312 0 L 29.195312 -31.949219 L 22.585938 -31.949219 L 22.585938 -38.5625 L 9.363281 -38.5625 Z M 9.363281 -31.949219 "/></g></g></g><g fill="#00ffff" fill-opacity="1"><g transform="translate(226.7801, 132.669244)"><g><path d="M 2.753906 -31.949219 L 2.753906 -6.609375 L 9.363281 -6.609375 L 9.363281 0 L 22.585938 0 L 22.585938 -6.609375 L 9.363281 -6.609375 L 9.363281 -31.949219 Z M 9.363281 -38.5625 L 9.363281 -31.949219 L 22.585938 -31.949219 L 22.585938 -25.339844 L 29.195312 -25.339844 L 29.195312 -31.949219 L 22.585938 -31.949219 L 22.585938 -38.5625 Z M 29.195312 -6.609375 L 29.195312 -13.222656 L 22.585938 -13.222656 L 22.585938 -6.609375 Z M 29.195312 -6.609375 "/></g></g></g><g fill="#00ffff" fill-opacity="1"><g transform="translate(264.565158, 132.669244)"><g><path d="M 2.753906 -38.5625 L 2.753906 0 L 29.195312 0 L 29.195312 -6.609375 L 9.363281 -6.609375 L 9.363281 -15.976562 L 22.585938 -15.976562 L 22.585938 -22.585938 L 9.363281 -22.585938 L 9.363281 -31.949219 L 29.195312 -31.949219 L 29.195312 -38.5625 Z M 2.753906 -38.5625 "/></g></g></g><g fill="#00ffff" fill-opacity="1"><g transform="translate(302.405297, 132.669244)"><g/></g></g><g fill="#00ffff" fill-opacity="1"><g transform="translate(327.577469, 132.669244)"><g><path d="M 2.753906 -38.5625 L 2.753906 -31.949219 L 12.671875 -31.949219 L 12.671875 0 L 19.28125 0 L 19.28125 -31.949219 L 29.195312 -31.949219 L 29.195312 -38.5625 Z M 2.753906 -38.5625 "/></g></g></g><g fill="#00ffff" fill-opacity="1"><g transform="translate(365.362516, 132.669244)"><g><path d="M 9.363281 -31.949219 L 22.585938 -31.949219 L 22.585938 -6.609375 L 29.195312 -6.609375 L 29.195312 -31.949219 L 22.585938 -31.949219 L 22.585938 -38.5625 L 9.363281 -38.5625 Z M 9.363281 -31.949219 L 2.753906 -31.949219 L 2.753906 -6.609375 L 9.363281 -6.609375 L 9.363281 0 L 22.585938 0 L 22.585938 -6.609375 L 9.363281 -6.609375 Z M 9.363281 -31.949219 "/></g></g></g><g fill="#00ffff" fill-opacity="1"><g transform="translate(403.147563, 132.669244)"><g/></g></g><g fill="#00ffff" fill-opacity="1"><g transform="translate(428.319757, 132.669244)"><g><path d="M 9.363281 -31.949219 L 22.585938 -31.949219 L 22.585938 -22.585938 L 29.195312 -22.585938 L 29.195312 -31.949219 L 22.585938 -31.949219 L 22.585938 -38.5625 L 2.753906 -38.5625 L 2.753906 0 L 9.363281 0 L 9.363281 -15.976562 L 22.585938 -15.976562 L 22.585938 -22.585938 L 9.363281 -22.585938 Z M 9.363281 -31.949219 "/></g></g></g><g fill="#00ffff" fill-opacity="1"><g transform="translate(466.104804, 132.669244)"><g><path d="M 9.363281 -31.949219 L 22.585938 -31.949219 L 22.585938 -22.585938 L 29.195312 -22.585938 L 29.195312 -31.949219 L 22.585938 -31.949219 L 22.585938 -38.5625 L 2.753906 -38.5625 L 2.753906 0 L 9.363281 0 L 9.363281 -15.976562 L 22.585938 -15.976562 L 22.585938 0 L 29.195312 0 L 29.195312 -15.976562 L 22.585938 -15.976562 L 22.585938 -22.585938 L 9.363281 -22.585938 Z M 9.363281 -31.949219 "/></g></g></g><g fill="#00ffff" fill-opacity="1"><g transform="translate(503.889852, 132.669244)"><g><path d="M 9.363281 -31.949219 L 22.585938 -31.949219 L 22.585938 -22.585938 L 9.363281 -22.585938 L 9.363281 -31.949219 L 2.753906 -31.949219 L 2.753906 0 L 9.363281 0 L 9.363281 -15.976562 L 22.585938 -15.976562 L 22.585938 0 L 29.195312 0 L 29.195312 -31.949219 L 22.585938 -31.949219 L 22.585938 -38.5625 L 9.363281 -38.5625 Z M 9.363281 -31.949219 "/></g></g></g><g fill="#00ffff" fill-opacity="1"><g transform="translate(541.674899, 132.669244)"><g><path d="M 2.753906 -31.949219 L 2.753906 -6.609375 L 9.363281 -6.609375 L 9.363281 0 L 22.585938 0 L 22.585938 -6.609375 L 9.363281 -6.609375 L 9.363281 -31.949219 Z M 9.363281 -38.5625 L 9.363281 -31.949219 L 22.585938 -31.949219 L 22.585938 -25.339844 L 29.195312 -25.339844 L 29.195312 -31.949219 L 22.585938 -31.949219 L 22.585938 -38.5625 Z M 29.195312 -6.609375 L 29.195312 -13.222656 L 22.585938 -13.222656 L 22.585938 -6.609375 Z M 29.195312 -6.609375 "/></g></g></g><g fill="#00ffff" fill-opacity="1"><g transform="translate(579.459946, 132.669244)"><g><path d="M 2.753906 -38.5625 L 2.753906 -31.949219 L 12.671875 -31.949219 L 12.671875 0 L 19.28125 0 L 19.28125 -31.949219 L 29.195312 -31.949219 L 29.195312 -38.5625 Z M 2.753906 -38.5625 "/></g></g></g><g fill="#00ffff" fill-opacity="1"><g transform="translate(617.244994, 132.669244)"><g><path d="M 2.753906 0 L 9.363281 0 L 9.363281 -38.5625 L 2.753906 -38.5625 Z M 2.753906 0 "/></g></g></g><g fill="#00ffff" fill-opacity="1"><g transform="translate(635.257031, 132.669244)"><g><path d="M 2.753906 -31.949219 L 2.753906 -6.609375 L 9.363281 -6.609375 L 9.363281 0 L 22.585938 0 L 22.585938 -6.609375 L 9.363281 -6.609375 L 9.363281 -31.949219 Z M 9.363281 -38.5625 L 9.363281 -31.949219 L 22.585938 -31.949219 L 22.585938 -25.339844 L 29.195312 -25.339844 L 29.195312 -31.949219 L 22.585938 -31.949219 L 22.585938 -38.5625 Z M 29.195312 -6.609375 L 29.195312 -13.222656 L 22.585938 -13.222656 L 22.585938 -6.609375 Z M 29.195312 -6.609375 "/></g></g></g><g fill="#00ffff" fill-opacity="1"><g transform="translate(673.042079, 132.669244)"><g><path d="M 2.753906 -38.5625 L 2.753906 0 L 29.195312 0 L 29.195312 -6.609375 L 9.363281 -6.609375 L 9.363281 -15.976562 L 22.585938 -15.976562 L 22.585938 -22.585938 L 9.363281 -22.585938 L 9.363281 -31.949219 L 29.195312 -31.949219 L 29.195312 -38.5625 Z M 2.753906 -38.5625 "/></g></g></g><g fill="#3b1b72" fill-opacity="1"><g transform="translate(47.728085, 131.986187)"><g><path d="M 9.363281 -31.949219 L 22.585938 -31.949219 L 22.585938 -22.585938 L 9.363281 -22.585938 L 9.363281 -31.949219 L 2.753906 -31.949219 L 2.753906 0 L 9.363281 0 L 9.363281 -15.976562 L 22.585938 -15.976562 L 22.585938 0 L 29.195312 0 L 29.195312 -31.949219 L 22.585938 -31.949219 L 22.585938 -38.5625 L 9.363281 -38.5625 Z M 9.363281 -31.949219 "/></g></g></g><g fill="#3b1b72" fill-opacity="1"><g transform="translate(85.513144, 131.986187)"><g/></g></g><g fill="#3b1b72" fill-opacity="1"><g transform="translate(110.685326, 131.986187)"><g><path d="M 9.363281 -31.949219 L 22.585938 -31.949219 L 22.585938 -22.585938 L 29.195312 -22.585938 L 29.195312 -31.949219 L 22.585938 -31.949219 L 22.585938 -38.5625 L 2.753906 -38.5625 L 2.753906 0 L 9.363281 0 L 9.363281 -15.976562 L 22.585938 -15.976562 L 22.585938 -22.585938 L 9.363281 -22.585938 Z M 9.363281 -31.949219 "/></g></g></g><g fill="#3b1b72" fill-opacity="1"><g transform="translate(148.470385, 131.986187)"><g><path d="M 2.753906 -38.5625 L 2.753906 0 L 29.195312 0 L 29.195312 -6.609375 L 9.363281 -6.609375 L 9.363281 -38.5625 Z M 2.753906 -38.5625 "/></g></g></g><g fill="#3b1b72" fill-opacity="1"><g transform="translate(186.255444, 131.986187)"><g><path d="M 9.363281 -31.949219 L 22.585938 -31.949219 L 22.585938 -22.585938 L 9.363281 -22.585938 L 9.363281 -31.949219 L 2.753906 -31.949219 L 2.753906 0 L 9.363281 0 L 9.363281 -15.976562 L 22.585938 -15.976562 L 22.585938 0 L 29.195312 0 L 29.195312 -31.949219 L 22.585938 -31.949219 L 22.585938 -38.5625 L 9.363281 -38.5625 Z M 9.363281 -31.949219 "/></g></g></g><g fill="#3b1b72" fill-opacity="1"><g transform="translate(224.040502, 131.986187)"><g><path d="M 2.753906 -31.949219 L 2.753906 -6.609375 L 9.363281 -6.609375 L 9.363281 0 L 22.585938 0 L 22.585938 -6.609375 L 9.363281 -6.609375 L 9.363281 -31.949219 Z M 9.363281 -38.5625 L 9.363281 -31.949219 L 22.585938 -31.949219 L 22.585938 -25.339844 L 29.195312 -25.339844 L 29.195312 -31.949219 L 22.585938 -31.949219 L 22.585938 -38.5625 Z M 29.195312 -6.609375 L 29.195312 -13.222656 L 22.585938 -13.222656 L 22.585938 -6.609375 Z M 29.195312 -6.609375 "/></g></g></g><g fill="#3b1b72" fill-opacity="1"><g transform="translate(261.825561, 131.986187)"><g><path d="M 2.753906 -38.5625 L 2.753906 0 L 29.195312 0 L 29.195312 -6.609375 L 9.363281 -6.609375 L 9.363281 -15.976562 L 22.585938 -15.976562 L 22.585938 -22.585938 L 9.363281 -22.585938 L 9.363281 -31.949219 L 29.195312 -31.949219 L 29.195312 -38.5625 Z M 2.753906 -38.5625 "/></g></g></g><g fill="#3b1b72" fill-opacity="1"><g transform="translate(299.6657, 131.986187)"><g/></g></g><g fill="#3b1b72" fill-opacity="1"><g transform="translate(324.837871, 131.986187)"><g><path d="M 2.753906 -38.5625 L 2.753906 -31.949219 L 12.671875 -31.949219 L 12.671875 0 L 19.28125 0 L 19.28125 -31.949219 L 29.195312 -31.949219 L 29.195312 -38.5625 Z M 2.753906 -38.5625 "/></g></g></g><g fill="#3b1b72" fill-opacity="1"><g transform="translate(362.622919, 131.986187)"><g><path d="M 9.363281 -31.949219 L 22.585938 -31.949219 L 22.585938 -6.609375 L 29.195312 -6.609375 L 29.195312 -31.949219 L 22.585938 -31.949219 L 22.585938 -38.5625 L 9.363281 -38.5625 Z M 9.363281 -31.949219 L 2.753906 -31.949219 L 2.753906 -6.609375 L 9.363281 -6.609375 L 9.363281 0 L 22.585938 0 L 22.585938 -6.609375 L 9.363281 -6.609375 Z M 9.363281 -31.949219 "/></g></g></g><g fill="#3b1b72" fill-opacity="1"><g transform="translate(400.407966, 131.986187)"><g/></g></g><g fill="#3b1b72" fill-opacity="1"><g transform="translate(425.58016, 131.986187)"><g><path d="M 9.363281 -31.949219 L 22.585938 -31.949219 L 22.585938 -22.585938 L 29.195312 -22.585938 L 29.195312 -31.949219 L 22.585938 -31.949219 L 22.585938 -38.5625 L 2.753906 -38.5625 L 2.753906 0 L 9.363281 0 L 9.363281 -15.976562 L 22.585938 -15.976562 L 22.585938 -22.585938 L 9.363281 -22.585938 Z M 9.363281 -31.949219 "/></g></g></g><g fill="#3b1b72" fill-opacity="1"><g transform="translate(463.365207, 131.986187)"><g><path d="M 9.363281 -31.949219 L 22.585938 -31.949219 L 22.585938 -22.585938 L 29.195312 -22.585938 L 29.195312 -31.949219 L 22.585938 -31.949219 L 22.585938 -38.5625 L 2.753906 -38.5625 L 2.753906 0 L 9.363281 0 L 9.363281 -15.976562 L 22.585938 -15.976562 L 22.585938 0 L 29.195312 0 L 29.195312 -15.976562 L 22.585938 -15.976562 L 22.585938 -22.585938 L 9.363281 -22.585938 Z M 9.363281 -31.949219 "/></g></g></g><g fill="#3b1b72" fill-opacity="1"><g transform="translate(501.150254, 131.986187)"><g><path d="M 9.363281 -31.949219 L 22.585938 -31.949219 L 22.585938 -22.585938 L 9.363281 -22.585938 L 9.363281 -31.949219 L 2.753906 -31.949219 L 2.753906 0 L 9.363281 0 L 9.363281 -15.976562 L 22.585938 -15.976562 L 22.585938 0 L 29.195312 0 L 29.195312 -31.949219 L 22.585938 -31.949219 L 22.585938 -38.5625 L 9.363281 -38.5625 Z M 9.363281 -31.949219 "/></g></g></g><g fill="#3b1b72" fill-opacity="1"><g transform="translate(538.935302, 131.986187)"><g><path d="M 2.753906 -31.949219 L 2.753906 -6.609375 L 9.363281 -6.609375 L 9.363281 0 L 22.585938 0 L 22.585938 -6.609375 L 9.363281 -6.609375 L 9.363281 -31.949219 Z M 9.363281 -38.5625 L 9.363281 -31.949219 L 22.585938 -31.949219 L 22.585938 -25.339844 L 29.195312 -25.339844 L 29.195312 -31.949219 L 22.585938 -31.949219 L 22.585938 -38.5625 Z M 29.195312 -6.609375 L 29.195312 -13.222656 L 22.585938 -13.222656 L 22.585938 -6.609375 Z M 29.195312 -6.609375 "/></g></g></g><g fill="#3b1b72" fill-opacity="1"><g transform="translate(576.720349, 131.986187)"><g><path d="M 2.753906 -38.5625 L 2.753906 -31.949219 L 12.671875 -31.949219 L 12.671875 0 L 19.28125 0 L 19.28125 -31.949219 L 29.195312 -31.949219 L 29.195312 -38.5625 Z M 2.753906 -38.5625 "/></g></g></g><g fill="#3b1b72" fill-opacity="1"><g transform="translate(614.505396, 131.986187)"><g><path d="M 2.753906 0 L 9.363281 0 L 9.363281 -38.5625 L 2.753906 -38.5625 Z M 2.753906 0 "/></g></g></g><g fill="#3b1b72" fill-opacity="1"><g transform="translate(632.517434, 131.986187)"><g><path d="M 2.753906 -31.949219 L 2.753906 -6.609375 L 9.363281 -6.609375 L 9.363281 0 L 22.585938 0 L 22.585938 -6.609375 L 9.363281 -6.609375 L 9.363281 -31.949219 Z M 9.363281 -38.5625 L 9.363281 -31.949219 L 22.585938 -31.949219 L 22.585938 -25.339844 L 29.195312 -25.339844 L 29.195312 -31.949219 L 22.585938 -31.949219 L 22.585938 -38.5625 Z M 29.195312 -6.609375 L 29.195312 -13.222656 L 22.585938 -13.222656 L 22.585938 -6.609375 Z M 29.195312 -6.609375 "/></g></g></g><g fill="#3b1b72" fill-opacity="1"><g transform="translate(670.302481, 131.986187)"><g><path d="M 2.753906 -38.5625 L 2.753906 0 L 29.195312 0 L 29.195312 -6.609375 L 9.363281 -6.609375 L 9.363281 -15.976562 L 22.585938 -15.976562 L 22.585938 -22.585938 L 9.363281 -22.585938 L 9.363281 -31.949219 L 29.195312 -31.949219 L 29.195312 -38.5625 Z M 2.753906 -38.5625 "/></g></g></g></svg>