<svg xmlns="http://www.w3.org/2000/svg" xmlns:xlink="http://www.w3.org/1999/xlink" width="1000" zoomAndPan="magnify" viewBox="0 0 750 149.999998" height="200" preserveAspectRatio="xMidYMid meet" version="1.0"><defs><g/></defs><g fill="#ff00ff" fill-opacity="1"><g transform="translate(132.286653, 75.70766)"><g><path d="M 78.921875 -22.601562 C 76.378906 -25.238281 73.269531 -26.558594 69.503906 -26.558594 L 20.8125 -26.558594 C 19.210938 -26.558594 17.894531 -27.121094 16.761719 -28.253906 C 15.632812 -29.382812 15.164062 -30.703125 15.164062 -32.300781 C 15.164062 -33.808594 15.632812 -35.128906 16.761719 -36.257812 C 17.894531 -37.386719 19.210938 -37.953125 20.8125 -37.953125 L 80.992188 -37.953125 L 80.992188 -45.582031 L 20.8125 -45.582031 C 17.140625 -45.582031 14.03125 -44.261719 11.394531 -41.625 C 8.851562 -39.082031 7.535156 -35.882812 7.535156 -32.300781 C 7.535156 -28.628906 8.851562 -25.425781 11.394531 -22.886719 C 14.03125 -20.246094 17.140625 -18.929688 20.8125 -18.929688 L 69.503906 -18.929688 C 71.101562 -18.929688 72.421875 -18.363281 73.550781 -17.328125 C 74.683594 -16.199219 75.246094 -14.785156 75.246094 -13.277344 C 75.246094 -11.679688 74.683594 -10.359375 73.550781 -9.230469 C 72.421875 -8.097656 71.101562 -7.535156 69.503906 -7.535156 L 9.417969 -7.535156 L 9.417969 0 L 69.503906 0 C 73.269531 0 76.378906 -1.222656 78.921875 -3.859375 C 81.558594 -6.5 82.875 -9.605469 82.875 -13.277344 C 82.875 -16.953125 81.558594 -20.058594 78.921875 -22.601562 Z M 78.921875 -22.601562 "/></g></g></g><g fill="#ff00ff" fill-opacity="1"><g transform="translate(222.691497, 75.70766)"><g><path d="M 82.875 -45.675781 L 82.875 -38.046875 L 49.160156 -38.046875 L 49.160156 0 L 41.53125 0 L 41.53125 -38.046875 L 7.535156 -38.046875 L 7.535156 -45.675781 Z M 82.875 -45.675781 "/></g></g></g><g fill="#ff00ff" fill-opacity="1"><g transform="translate(313.096341, 75.70766)"><g><path d="M 80.898438 -25.332031 C 82.214844 -27.5 82.875 -29.761719 82.875 -32.398438 C 82.875 -35.976562 81.558594 -39.082031 78.921875 -41.71875 C 76.378906 -44.355469 73.269531 -45.675781 69.503906 -45.675781 L 7.535156 -45.675781 L 7.535156 0 L 15.164062 0 L 15.164062 -19.023438 L 60.085938 -19.023438 C 64.226562 -19.023438 67.808594 -17.515625 70.820312 -14.597656 C 73.742188 -11.582031 75.246094 -8.003906 75.246094 -3.859375 L 75.246094 0 L 82.875 0 L 82.875 -3.859375 C 82.875 -10.453125 80.425781 -16.011719 75.625 -20.53125 C 77.789062 -21.660156 79.578125 -23.261719 80.898438 -25.332031 Z M 73.550781 -28.347656 C 72.421875 -27.21875 71.101562 -26.652344 69.503906 -26.652344 L 15.164062 -26.652344 L 15.164062 -38.046875 L 69.503906 -38.046875 C 71.101562 -38.046875 72.421875 -37.480469 73.550781 -36.351562 C 74.683594 -35.222656 75.246094 -33.902344 75.246094 -32.398438 C 75.246094 -30.796875 74.683594 -29.382812 73.550781 -28.347656 Z M 73.550781 -28.347656 "/></g></g></g><g fill="#ff00ff" fill-opacity="1"><g transform="translate(403.501184, 75.70766)"><g><path d="M 15.066406 -45.675781 L 7.535156 -45.675781 L 7.535156 0 L 15.164062 0 Z M 15.066406 -45.675781 "/></g></g></g><g fill="#ff00ff" fill-opacity="1"><g transform="translate(426.196566, 75.70766)"><g><path d="M 75.246094 0 L 82.875 0 L 82.875 -32.492188 C 82.875 -36.164062 81.558594 -39.175781 78.921875 -41.910156 C 76.378906 -44.546875 73.363281 -45.769531 69.597656 -45.769531 L 20.90625 -45.769531 C 17.140625 -45.769531 14.03125 -44.546875 11.488281 -41.910156 C 8.851562 -39.175781 7.535156 -36.164062 7.535156 -32.492188 L 7.535156 0 L 15.164062 0 L 15.164062 -32.492188 C 15.164062 -34.09375 15.726562 -35.410156 16.859375 -36.539062 C 17.707031 -37.386719 18.742188 -37.953125 19.777344 -38.140625 L 69.503906 -38.140625 C 71.101562 -38.140625 72.421875 -37.578125 73.550781 -36.445312 C 74.683594 -35.316406 75.246094 -33.996094 75.246094 -32.492188 Z M 75.246094 0 "/></g></g></g><g fill="#ff00ff" fill-opacity="1"><g transform="translate(516.601409, 75.70766)"><g><path d="M 82.875 -26.652344 L 30.324219 -26.652344 L 30.324219 -19.023438 L 75.246094 -19.023438 L 75.246094 -13.277344 C 75.246094 -11.773438 74.683594 -10.453125 73.550781 -9.324219 C 72.421875 -8.195312 71.101562 -7.628906 69.503906 -7.628906 L 19.777344 -7.628906 C 18.742188 -7.816406 17.707031 -8.382812 16.859375 -9.230469 C 15.726562 -10.359375 15.164062 -11.679688 15.164062 -13.277344 L 15.164062 -32.398438 C 15.164062 -33.996094 15.726562 -35.316406 16.859375 -36.445312 C 17.988281 -37.578125 19.304688 -38.140625 20.90625 -38.140625 L 69.503906 -38.140625 C 71.101562 -38.140625 72.421875 -37.578125 73.550781 -36.445312 C 74.683594 -35.316406 75.246094 -33.996094 75.246094 -32.398438 L 82.875 -32.398438 C 82.875 -36.070312 81.558594 -39.175781 78.921875 -41.8125 C 76.28125 -44.453125 73.269531 -45.675781 69.503906 -45.675781 L 20.8125 -45.675781 C 17.046875 -45.675781 14.03125 -44.453125 11.488281 -41.8125 C 8.851562 -39.082031 7.535156 -36.164062 7.535156 -32.585938 L 7.535156 -13.277344 C 7.535156 -9.605469 8.851562 -6.5 11.488281 -3.859375 C 14.03125 -1.222656 17.140625 0 20.90625 0 L 69.597656 0 C 73.363281 0 76.378906 -1.222656 78.921875 -3.859375 C 81.558594 -6.59375 82.875 -9.605469 82.875 -13.277344 Z M 82.875 -26.652344 "/></g></g></g><g fill="#00ffff" fill-opacity="1"><g transform="translate(142.981616, 72.437882)"><g><path d="M 78.921875 -22.601562 C 76.378906 -25.238281 73.269531 -26.558594 69.503906 -26.558594 L 20.8125 -26.558594 C 19.210938 -26.558594 17.894531 -27.121094 16.761719 -28.253906 C 15.632812 -29.382812 15.164062 -30.703125 15.164062 -32.300781 C 15.164062 -33.808594 15.632812 -35.128906 16.761719 -36.257812 C 17.894531 -37.386719 19.210938 -37.953125 20.8125 -37.953125 L 80.992188 -37.953125 L 80.992188 -45.582031 L 20.8125 -45.582031 C 17.140625 -45.582031 14.03125 -44.261719 11.394531 -41.625 C 8.851562 -39.082031 7.535156 -35.882812 7.535156 -32.300781 C 7.535156 -28.628906 8.851562 -25.425781 11.394531 -22.886719 C 14.03125 -20.246094 17.140625 -18.929688 20.8125 -18.929688 L 69.503906 -18.929688 C 71.101562 -18.929688 72.421875 -18.363281 73.550781 -17.328125 C 74.683594 -16.199219 75.246094 -14.785156 75.246094 -13.277344 C 75.246094 -11.679688 74.683594 -10.359375 73.550781 -9.230469 C 72.421875 -8.097656 71.101562 -7.535156 69.503906 -7.535156 L 9.417969 -7.535156 L 9.417969 0 L 69.503906 0 C 73.269531 0 76.378906 -1.222656 78.921875 -3.859375 C 81.558594 -6.5 82.875 -9.605469 82.875 -13.277344 C 82.875 -16.953125 81.558594 -20.058594 78.921875 -22.601562 Z M 78.921875 -22.601562 "/></g></g></g><g fill="#00ffff" fill-opacity="1"><g transform="translate(233.38646, 72.437882)"><g><path d="M 82.875 -45.675781 L 82.875 -38.046875 L 49.160156 -38.046875 L 49.160156 0 L 41.53125 0 L 41.53125 -38.046875 L 7.535156 -38.046875 L 7.535156 -45.675781 Z M 82.875 -45.675781 "/></g></g></g><g fill="#00ffff" fill-opacity="1"><g transform="translate(323.791303, 72.437882)"><g><path d="M 80.898438 -25.332031 C 82.214844 -27.5 82.875 -29.761719 82.875 -32.398438 C 82.875 -35.976562 81.558594 -39.082031 78.921875 -41.71875 C 76.378906 -44.355469 73.269531 -45.675781 69.503906 -45.675781 L 7.535156 -45.675781 L 7.535156 0 L 15.164062 0 L 15.164062 -19.023438 L 60.085938 -19.023438 C 64.226562 -19.023438 67.808594 -17.515625 70.820312 -14.597656 C 73.742188 -11.582031 75.246094 -8.003906 75.246094 -3.859375 L 75.246094 0 L 82.875 0 L 82.875 -3.859375 C 82.875 -10.453125 80.425781 -16.011719 75.625 -20.53125 C 77.789062 -21.660156 79.578125 -23.261719 80.898438 -25.332031 Z M 73.550781 -28.347656 C 72.421875 -27.21875 71.101562 -26.652344 69.503906 -26.652344 L 15.164062 -26.652344 L 15.164062 -38.046875 L 69.503906 -38.046875 C 71.101562 -38.046875 72.421875 -37.480469 73.550781 -36.351562 C 74.683594 -35.222656 75.246094 -33.902344 75.246094 -32.398438 C 75.246094 -30.796875 74.683594 -29.382812 73.550781 -28.347656 Z M 73.550781 -28.347656 "/></g></g></g><g fill="#00ffff" fill-opacity="1"><g transform="translate(414.196147, 72.437882)"><g><path d="M 15.066406 -45.675781 L 7.535156 -45.675781 L 7.535156 0 L 15.164062 0 Z M 15.066406 -45.675781 "/></g></g></g><g fill="#00ffff" fill-opacity="1"><g transform="translate(436.891529, 72.437882)"><g><path d="M 75.246094 0 L 82.875 0 L 82.875 -32.492188 C 82.875 -36.164062 81.558594 -39.175781 78.921875 -41.910156 C 76.378906 -44.546875 73.363281 -45.769531 69.597656 -45.769531 L 20.90625 -45.769531 C 17.140625 -45.769531 14.03125 -44.546875 11.488281 -41.910156 C 8.851562 -39.175781 7.535156 -36.164062 7.535156 -32.492188 L 7.535156 0 L 15.164062 0 L 15.164062 -32.492188 C 15.164062 -34.09375 15.726562 -35.410156 16.859375 -36.539062 C 17.707031 -37.386719 18.742188 -37.953125 19.777344 -38.140625 L 69.503906 -38.140625 C 71.101562 -38.140625 72.421875 -37.578125 73.550781 -36.445312 C 74.683594 -35.316406 75.246094 -33.996094 75.246094 -32.492188 Z M 75.246094 0 "/></g></g></g><g fill="#00ffff" fill-opacity="1"><g transform="translate(527.296372, 72.437882)"><g><path d="M 82.875 -26.652344 L 30.324219 -26.652344 L 30.324219 -19.023438 L 75.246094 -19.023438 L 75.246094 -13.277344 C 75.246094 -11.773438 74.683594 -10.453125 73.550781 -9.324219 C 72.421875 -8.195312 71.101562 -7.628906 69.503906 -7.628906 L 19.777344 -7.628906 C 18.742188 -7.816406 17.707031 -8.382812 16.859375 -9.230469 C 15.726562 -10.359375 15.164062 -11.679688 15.164062 -13.277344 L 15.164062 -32.398438 C 15.164062 -33.996094 15.726562 -35.316406 16.859375 -36.445312 C 17.988281 -37.578125 19.304688 -38.140625 20.90625 -38.140625 L 69.503906 -38.140625 C 71.101562 -38.140625 72.421875 -37.578125 73.550781 -36.445312 C 74.683594 -35.316406 75.246094 -33.996094 75.246094 -32.398438 L 82.875 -32.398438 C 82.875 -36.070312 81.558594 -39.175781 78.921875 -41.8125 C 76.28125 -44.453125 73.269531 -45.675781 69.503906 -45.675781 L 20.8125 -45.675781 C 17.046875 -45.675781 14.03125 -44.453125 11.488281 -41.8125 C 8.851562 -39.082031 7.535156 -36.164062 7.535156 -32.585938 L 7.535156 -13.277344 C 7.535156 -9.605469 8.851562 -6.5 11.488281 -3.859375 C 14.03125 -1.222656 17.140625 0 20.90625 0 L 69.597656 0 C 73.363281 0 76.378906 -1.222656 78.921875 -3.859375 C 81.558594 -6.59375 82.875 -9.605469 82.875 -13.277344 Z M 82.875 -26.652344 "/></g></g></g><g fill="#ff1616" fill-opacity="1"><g transform="translate(137.634136, 74.072771)"><g><path d="M 78.921875 -22.601562 C 76.378906 -25.238281 73.269531 -26.558594 69.503906 -26.558594 L 20.8125 -26.558594 C 19.210938 -26.558594 17.894531 -27.121094 16.761719 -28.253906 C 15.632812 -29.382812 15.164062 -30.703125 15.164062 -32.300781 C 15.164062 -33.808594 15.632812 -35.128906 16.761719 -36.257812 C 17.894531 -37.386719 19.210938 -37.953125 20.8125 -37.953125 L 80.992188 -37.953125 L 80.992188 -45.582031 L 20.8125 -45.582031 C 17.140625 -45.582031 14.03125 -44.261719 11.394531 -41.625 C 8.851562 -39.082031 7.535156 -35.882812 7.535156 -32.300781 C 7.535156 -28.628906 8.851562 -25.425781 11.394531 -22.886719 C 14.03125 -20.246094 17.140625 -18.929688 20.8125 -18.929688 L 69.503906 -18.929688 C 71.101562 -18.929688 72.421875 -18.363281 73.550781 -17.328125 C 74.683594 -16.199219 75.246094 -14.785156 75.246094 -13.277344 C 75.246094 -11.679688 74.683594 -10.359375 73.550781 -9.230469 C 72.421875 -8.097656 71.101562 -7.535156 69.503906 -7.535156 L 9.417969 -7.535156 L 9.417969 0 L 69.503906 0 C 73.269531 0 76.378906 -1.222656 78.921875 -3.859375 C 81.558594 -6.5 82.875 -9.605469 82.875 -13.277344 C 82.875 -16.953125 81.558594 -20.058594 78.921875 -22.601562 Z M 78.921875 -22.601562 "/></g></g></g><g fill="#ff1616" fill-opacity="1"><g transform="translate(228.038979, 74.072771)"><g><path d="M 82.875 -45.675781 L 82.875 -38.046875 L 49.160156 -38.046875 L 49.160156 0 L 41.53125 0 L 41.53125 -38.046875 L 7.535156 -38.046875 L 7.535156 -45.675781 Z M 82.875 -45.675781 "/></g></g></g><g fill="#ff1616" fill-opacity="1"><g transform="translate(318.443823, 74.072771)"><g><path d="M 80.898438 -25.332031 C 82.214844 -27.5 82.875 -29.761719 82.875 -32.398438 C 82.875 -35.976562 81.558594 -39.082031 78.921875 -41.71875 C 76.378906 -44.355469 73.269531 -45.675781 69.503906 -45.675781 L 7.535156 -45.675781 L 7.535156 0 L 15.164062 0 L 15.164062 -19.023438 L 60.085938 -19.023438 C 64.226562 -19.023438 67.808594 -17.515625 70.820312 -14.597656 C 73.742188 -11.582031 75.246094 -8.003906 75.246094 -3.859375 L 75.246094 0 L 82.875 0 L 82.875 -3.859375 C 82.875 -10.453125 80.425781 -16.011719 75.625 -20.53125 C 77.789062 -21.660156 79.578125 -23.261719 80.898438 -25.332031 Z M 73.550781 -28.347656 C 72.421875 -27.21875 71.101562 -26.652344 69.503906 -26.652344 L 15.164062 -26.652344 L 15.164062 -38.046875 L 69.503906 -38.046875 C 71.101562 -38.046875 72.421875 -37.480469 73.550781 -36.351562 C 74.683594 -35.222656 75.246094 -33.902344 75.246094 -32.398438 C 75.246094 -30.796875 74.683594 -29.382812 73.550781 -28.347656 Z M 73.550781 -28.347656 "/></g></g></g><g fill="#ff1616" fill-opacity="1"><g transform="translate(408.848666, 74.072771)"><g><path d="M 15.066406 -45.675781 L 7.535156 -45.675781 L 7.535156 0 L 15.164062 0 Z M 15.066406 -45.675781 "/></g></g></g><g fill="#ff1616" fill-opacity="1"><g transform="translate(431.544048, 74.072771)"><g><path d="M 75.246094 0 L 82.875 0 L 82.875 -32.492188 C 82.875 -36.164062 81.558594 -39.175781 78.921875 -41.910156 C 76.378906 -44.546875 73.363281 -45.769531 69.597656 -45.769531 L 20.90625 -45.769531 C 17.140625 -45.769531 14.03125 -44.546875 11.488281 -41.910156 C 8.851562 -39.175781 7.535156 -36.164062 7.535156 -32.492188 L 7.535156 0 L 15.164062 0 L 15.164062 -32.492188 C 15.164062 -34.09375 15.726562 -35.410156 16.859375 -36.539062 C 17.707031 -37.386719 18.742188 -37.953125 19.777344 -38.140625 L 69.503906 -38.140625 C 71.101562 -38.140625 72.421875 -37.578125 73.550781 -36.445312 C 74.683594 -35.316406 75.246094 -33.996094 75.246094 -32.492188 Z M 75.246094 0 "/></g></g></g><g fill="#ff1616" fill-opacity="1"><g transform="translate(521.948892, 74.072771)"><g><path d="M 82.875 -26.652344 L 30.324219 -26.652344 L 30.324219 -19.023438 L 75.246094 -19.023438 L 75.246094 -13.277344 C 75.246094 -11.773438 74.683594 -10.453125 73.550781 -9.324219 C 72.421875 -8.195312 71.101562 -7.628906 69.503906 -7.628906 L 19.777344 -7.628906 C 18.742188 -7.816406 17.707031 -8.382812 16.859375 -9.230469 C 15.726562 -10.359375 15.164062 -11.679688 15.164062 -13.277344 L 15.164062 -32.398438 C 15.164062 -33.996094 15.726562 -35.316406 16.859375 -36.445312 C 17.988281 -37.578125 19.304688 -38.140625 20.90625 -38.140625 L 69.503906 -38.140625 C 71.101562 -38.140625 72.421875 -37.578125 73.550781 -36.445312 C 74.683594 -35.316406 75.246094 -33.996094 75.246094 -32.398438 L 82.875 -32.398438 C 82.875 -36.070312 81.558594 -39.175781 78.921875 -41.8125 C 76.28125 -44.453125 73.269531 -45.675781 69.503906 -45.675781 L 20.8125 -45.675781 C 17.046875 -45.675781 14.03125 -44.453125 11.488281 -41.8125 C 8.851562 -39.082031 7.535156 -36.164062 7.535156 -32.585938 L 7.535156 -13.277344 C 7.535156 -9.605469 8.851562 -6.5 11.488281 -3.859375 C 14.03125 -1.222656 17.140625 0 20.90625 0 L 69.597656 0 C 73.363281 0 76.378906 -1.222656 78.921875 -3.859375 C 81.558594 -6.59375 82.875 -9.605469 82.875 -13.277344 Z M 82.875 -26.652344 "/></g></g></g><g fill="#ff00ff" fill-opacity="1"><g transform="translate(43.810705, 131.685852)"><g><path d="M 97.753906 -41.910156 C 95.210938 -44.546875 92.199219 -45.769531 88.433594 -45.769531 L 20.90625 -45.769531 C 17.140625 -45.769531 14.03125 -44.546875 11.488281 -41.910156 C 8.851562 -39.175781 7.535156 -36.164062 7.535156 -32.492188 L 7.535156 0 L 15.164062 0 L 15.164062 -32.492188 C 15.164062 -34.09375 15.726562 -35.410156 16.859375 -36.539062 C 17.707031 -37.386719 18.742188 -37.953125 19.777344 -38.140625 L 50.855469 -38.140625 L 50.855469 0 L 58.484375 0 L 58.390625 -38.140625 L 88.335938 -38.140625 C 89.9375 -38.140625 91.257812 -37.578125 92.386719 -36.445312 C 93.515625 -35.316406 94.082031 -33.996094 94.082031 -32.492188 L 94.082031 0 L 101.710938 0 L 101.710938 -32.492188 C 101.710938 -36.164062 100.390625 -39.175781 97.753906 -41.910156 Z M 97.753906 -41.910156 "/></g></g></g><g fill="#ff00ff" fill-opacity="1"><g transform="translate(153.049896, 131.685852)"><g><path d="M 16.859375 -36.445312 C 17.707031 -37.292969 18.742188 -37.859375 19.777344 -38.046875 L 82.875 -38.046875 L 82.875 -45.675781 L 20.90625 -45.675781 C 17.140625 -45.675781 14.03125 -44.453125 11.488281 -41.8125 C 8.851562 -39.082031 7.535156 -36.070312 7.535156 -32.398438 L 7.535156 -13.277344 C 7.535156 -9.605469 8.851562 -6.59375 11.488281 -3.859375 C 14.03125 -1.222656 17.140625 0 20.90625 0 L 82.875 0 L 82.875 -7.628906 L 19.777344 -7.628906 C 18.742188 -7.816406 17.707031 -8.382812 16.859375 -9.230469 C 15.726562 -10.359375 15.164062 -11.679688 15.164062 -13.277344 L 15.164062 -19.023438 L 74.871094 -19.023438 L 74.871094 -26.652344 L 15.164062 -26.652344 L 15.164062 -32.398438 C 15.164062 -33.996094 15.726562 -35.316406 16.859375 -36.445312 Z M 16.859375 -36.445312 "/></g></g></g><g fill="#ff00ff" fill-opacity="1"><g transform="translate(243.45473, 131.685852)"><g><path d="M 82.875 -45.675781 L 82.875 -38.046875 L 49.160156 -38.046875 L 49.160156 0 L 41.53125 0 L 41.53125 -38.046875 L 7.535156 -38.046875 L 7.535156 -45.675781 Z M 82.875 -45.675781 "/></g></g></g><g fill="#ff00ff" fill-opacity="1"><g transform="translate(333.859574, 131.685852)"><g><path d="M 75.339844 -45.675781 L 75.246094 -32.398438 L 75.246094 -26.652344 L 15.164062 -26.652344 L 15.164062 -32.398438 L 15.066406 -45.675781 L 7.535156 -45.675781 L 7.535156 0 L 15.164062 0 L 15.164062 -19.023438 L 75.246094 -19.023438 L 75.246094 0 L 82.875 0 L 82.875 -45.675781 Z M 75.339844 -45.675781 "/></g></g></g><g fill="#ff00ff" fill-opacity="1"><g transform="translate(424.264417, 131.685852)"><g><path d="M 78.921875 -41.8125 C 76.28125 -44.453125 73.269531 -45.675781 69.503906 -45.675781 L 20.8125 -45.675781 C 17.046875 -45.675781 14.03125 -44.453125 11.488281 -41.8125 C 8.851562 -39.082031 7.535156 -36.164062 7.535156 -32.585938 L 7.535156 -13.277344 C 7.535156 -9.605469 8.851562 -6.5 11.488281 -3.859375 C 14.03125 -1.222656 17.140625 0 20.90625 0 L 69.597656 0 C 73.363281 0 76.378906 -1.222656 78.921875 -3.859375 C 81.558594 -6.59375 82.875 -9.605469 82.875 -13.277344 L 82.875 -32.398438 C 82.875 -36.070312 81.558594 -39.175781 78.921875 -41.8125 Z M 73.550781 -9.324219 C 72.421875 -8.195312 71.101562 -7.628906 69.503906 -7.628906 L 19.777344 -7.628906 C 18.742188 -7.816406 17.707031 -8.382812 16.859375 -9.230469 C 15.726562 -10.359375 15.164062 -11.679688 15.164062 -13.277344 L 15.164062 -32.398438 C 15.164062 -33.996094 15.726562 -35.316406 16.859375 -36.445312 C 17.988281 -37.578125 19.304688 -38.140625 20.90625 -38.140625 L 69.503906 -38.140625 C 71.101562 -38.140625 72.421875 -37.578125 73.550781 -36.445312 C 74.683594 -35.316406 75.246094 -33.996094 75.246094 -32.398438 L 75.246094 -13.277344 C 75.246094 -11.773438 74.683594 -10.453125 73.550781 -9.324219 Z M 73.550781 -9.324219 "/></g></g></g><g fill="#ff00ff" fill-opacity="1"><g transform="translate(514.669261, 131.685852)"><g><path d="M 76.1875 -38.988281 C 71.761719 -43.414062 66.394531 -45.675781 60.085938 -45.675781 L 7.535156 -45.675781 L 7.535156 0 L 60.085938 0 C 66.394531 0 71.761719 -2.261719 76.1875 -6.6875 C 80.613281 -11.207031 82.875 -16.574219 82.875 -22.789062 C 82.875 -29.101562 80.613281 -34.46875 76.1875 -38.988281 Z M 70.820312 -12.054688 C 67.902344 -9.136719 64.324219 -7.628906 60.085938 -7.628906 L 15.164062 -7.628906 L 15.164062 -38.046875 L 60.085938 -38.046875 C 64.324219 -38.046875 67.902344 -36.539062 70.820312 -33.621094 C 73.835938 -30.605469 75.246094 -27.027344 75.246094 -22.789062 C 75.246094 -18.648438 73.835938 -15.066406 70.820312 -12.054688 Z M 70.820312 -12.054688 "/></g></g></g><g fill="#ff00ff" fill-opacity="1"><g transform="translate(605.074104, 131.685852)"><g><path d="M 78.921875 -22.601562 C 76.378906 -25.238281 73.269531 -26.558594 69.503906 -26.558594 L 20.8125 -26.558594 C 19.210938 -26.558594 17.894531 -27.121094 16.761719 -28.253906 C 15.632812 -29.382812 15.164062 -30.703125 15.164062 -32.300781 C 15.164062 -33.808594 15.632812 -35.128906 16.761719 -36.257812 C 17.894531 -37.386719 19.210938 -37.953125 20.8125 -37.953125 L 80.992188 -37.953125 L 80.992188 -45.582031 L 20.8125 -45.582031 C 17.140625 -45.582031 14.03125 -44.261719 11.394531 -41.625 C 8.851562 -39.082031 7.535156 -35.882812 7.535156 -32.300781 C 7.535156 -28.628906 8.851562 -25.425781 11.394531 -22.886719 C 14.03125 -20.246094 17.140625 -18.929688 20.8125 -18.929688 L 69.503906 -18.929688 C 71.101562 -18.929688 72.421875 -18.363281 73.550781 -17.328125 C 74.683594 -16.199219 75.246094 -14.785156 75.246094 -13.277344 C 75.246094 -11.679688 74.683594 -10.359375 73.550781 -9.230469 C 72.421875 -8.097656 71.101562 -7.535156 69.503906 -7.535156 L 9.417969 -7.535156 L 9.417969 0 L 69.503906 0 C 73.269531 0 76.378906 -1.222656 78.921875 -3.859375 C 81.558594 -6.5 82.875 -9.605469 82.875 -13.277344 C 82.875 -16.953125 81.558594 -20.058594 78.921875 -22.601562 Z M 78.921875 -22.601562 "/></g></g></g><g fill="#00ffff" fill-opacity="1"><g transform="translate(54.505668, 128.416074)"><g><path d="M 97.753906 -41.910156 C 95.210938 -44.546875 92.199219 -45.769531 88.433594 -45.769531 L 20.90625 -45.769531 C 17.140625 -45.769531 14.03125 -44.546875 11.488281 -41.910156 C 8.851562 -39.175781 7.535156 -36.164062 7.535156 -32.492188 L 7.535156 0 L 15.164062 0 L 15.164062 -32.492188 C 15.164062 -34.09375 15.726562 -35.410156 16.859375 -36.539062 C 17.707031 -37.386719 18.742188 -37.953125 19.777344 -38.140625 L 50.855469 -38.140625 L 50.855469 0 L 58.484375 0 L 58.390625 -38.140625 L 88.335938 -38.140625 C 89.9375 -38.140625 91.257812 -37.578125 92.386719 -36.445312 C 93.515625 -35.316406 94.082031 -33.996094 94.082031 -32.492188 L 94.082031 0 L 101.710938 0 L 101.710938 -32.492188 C 101.710938 -36.164062 100.390625 -39.175781 97.753906 -41.910156 Z M 97.753906 -41.910156 "/></g></g></g><g fill="#00ffff" fill-opacity="1"><g transform="translate(163.744859, 128.416074)"><g><path d="M 16.859375 -36.445312 C 17.707031 -37.292969 18.742188 -37.859375 19.777344 -38.046875 L 82.875 -38.046875 L 82.875 -45.675781 L 20.90625 -45.675781 C 17.140625 -45.675781 14.03125 -44.453125 11.488281 -41.8125 C 8.851562 -39.082031 7.535156 -36.070312 7.535156 -32.398438 L 7.535156 -13.277344 C 7.535156 -9.605469 8.851562 -6.59375 11.488281 -3.859375 C 14.03125 -1.222656 17.140625 0 20.90625 0 L 82.875 0 L 82.875 -7.628906 L 19.777344 -7.628906 C 18.742188 -7.816406 17.707031 -8.382812 16.859375 -9.230469 C 15.726562 -10.359375 15.164062 -11.679688 15.164062 -13.277344 L 15.164062 -19.023438 L 74.871094 -19.023438 L 74.871094 -26.652344 L 15.164062 -26.652344 L 15.164062 -32.398438 C 15.164062 -33.996094 15.726562 -35.316406 16.859375 -36.445312 Z M 16.859375 -36.445312 "/></g></g></g><g fill="#00ffff" fill-opacity="1"><g transform="translate(254.149693, 128.416074)"><g><path d="M 82.875 -45.675781 L 82.875 -38.046875 L 49.160156 -38.046875 L 49.160156 0 L 41.53125 0 L 41.53125 -38.046875 L 7.535156 -38.046875 L 7.535156 -45.675781 Z M 82.875 -45.675781 "/></g></g></g><g fill="#00ffff" fill-opacity="1"><g transform="translate(344.554536, 128.416074)"><g><path d="M 75.339844 -45.675781 L 75.246094 -32.398438 L 75.246094 -26.652344 L 15.164062 -26.652344 L 15.164062 -32.398438 L 15.066406 -45.675781 L 7.535156 -45.675781 L 7.535156 0 L 15.164062 0 L 15.164062 -19.023438 L 75.246094 -19.023438 L 75.246094 0 L 82.875 0 L 82.875 -45.675781 Z M 75.339844 -45.675781 "/></g></g></g><g fill="#00ffff" fill-opacity="1"><g transform="translate(434.95938, 128.416074)"><g><path d="M 78.921875 -41.8125 C 76.28125 -44.453125 73.269531 -45.675781 69.503906 -45.675781 L 20.8125 -45.675781 C 17.046875 -45.675781 14.03125 -44.453125 11.488281 -41.8125 C 8.851562 -39.082031 7.535156 -36.164062 7.535156 -32.585938 L 7.535156 -13.277344 C 7.535156 -9.605469 8.851562 -6.5 11.488281 -3.859375 C 14.03125 -1.222656 17.140625 0 20.90625 0 L 69.597656 0 C 73.363281 0 76.378906 -1.222656 78.921875 -3.859375 C 81.558594 -6.59375 82.875 -9.605469 82.875 -13.277344 L 82.875 -32.398438 C 82.875 -36.070312 81.558594 -39.175781 78.921875 -41.8125 Z M 73.550781 -9.324219 C 72.421875 -8.195312 71.101562 -7.628906 69.503906 -7.628906 L 19.777344 -7.628906 C 18.742188 -7.816406 17.707031 -8.382812 16.859375 -9.230469 C 15.726562 -10.359375 15.164062 -11.679688 15.164062 -13.277344 L 15.164062 -32.398438 C 15.164062 -33.996094 15.726562 -35.316406 16.859375 -36.445312 C 17.988281 -37.578125 19.304688 -38.140625 20.90625 -38.140625 L 69.503906 -38.140625 C 71.101562 -38.140625 72.421875 -37.578125 73.550781 -36.445312 C 74.683594 -35.316406 75.246094 -33.996094 75.246094 -32.398438 L 75.246094 -13.277344 C 75.246094 -11.773438 74.683594 -10.453125 73.550781 -9.324219 Z M 73.550781 -9.324219 "/></g></g></g><g fill="#00ffff" fill-opacity="1"><g transform="translate(525.364224, 128.416074)"><g><path d="M 76.1875 -38.988281 C 71.761719 -43.414062 66.394531 -45.675781 60.085938 -45.675781 L 7.535156 -45.675781 L 7.535156 0 L 60.085938 0 C 66.394531 0 71.761719 -2.261719 76.1875 -6.6875 C 80.613281 -11.207031 82.875 -16.574219 82.875 -22.789062 C 82.875 -29.101562 80.613281 -34.46875 76.1875 -38.988281 Z M 70.820312 -12.054688 C 67.902344 -9.136719 64.324219 -7.628906 60.085938 -7.628906 L 15.164062 -7.628906 L 15.164062 -38.046875 L 60.085938 -38.046875 C 64.324219 -38.046875 67.902344 -36.539062 70.820312 -33.621094 C 73.835938 -30.605469 75.246094 -27.027344 75.246094 -22.789062 C 75.246094 -18.648438 73.835938 -15.066406 70.820312 -12.054688 Z M 70.820312 -12.054688 "/></g></g></g><g fill="#00ffff" fill-opacity="1"><g transform="translate(615.769067, 128.416074)"><g><path d="M 78.921875 -22.601562 C 76.378906 -25.238281 73.269531 -26.558594 69.503906 -26.558594 L 20.8125 -26.558594 C 19.210938 -26.558594 17.894531 -27.121094 16.761719 -28.253906 C 15.632812 -29.382812 15.164062 -30.703125 15.164062 -32.300781 C 15.164062 -33.808594 15.632812 -35.128906 16.761719 -36.257812 C 17.894531 -37.386719 19.210938 -37.953125 20.8125 -37.953125 L 80.992188 -37.953125 L 80.992188 -45.582031 L 20.8125 -45.582031 C 17.140625 -45.582031 14.03125 -44.261719 11.394531 -41.625 C 8.851562 -39.082031 7.535156 -35.882812 7.535156 -32.300781 C 7.535156 -28.628906 8.851562 -25.425781 11.394531 -22.886719 C 14.03125 -20.246094 17.140625 -18.929688 20.8125 -18.929688 L 69.503906 -18.929688 C 71.101562 -18.929688 72.421875 -18.363281 73.550781 -17.328125 C 74.683594 -16.199219 75.246094 -14.785156 75.246094 -13.277344 C 75.246094 -11.679688 74.683594 -10.359375 73.550781 -9.230469 C 72.421875 -8.097656 71.101562 -7.535156 69.503906 -7.535156 L 9.417969 -7.535156 L 9.417969 0 L 69.503906 0 C 73.269531 0 76.378906 -1.222656 78.921875 -3.859375 C 81.558594 -6.5 82.875 -9.605469 82.875 -13.277344 C 82.875 -16.953125 81.558594 -20.058594 78.921875 -22.601562 Z M 78.921875 -22.601562 "/></g></g></g><g fill="#ff1616" fill-opacity="1"><g transform="translate(49.158187, 130.050963)"><g><path d="M 97.753906 -41.910156 C 95.210938 -44.546875 92.199219 -45.769531 88.433594 -45.769531 L 20.90625 -45.769531 C 17.140625 -45.769531 14.03125 -44.546875 11.488281 -41.910156 C 8.851562 -39.175781 7.535156 -36.164062 7.535156 -32.492188 L 7.535156 0 L 15.164062 0 L 15.164062 -32.492188 C 15.164062 -34.09375 15.726562 -35.410156 16.859375 -36.539062 C 17.707031 -37.386719 18.742188 -37.953125 19.777344 -38.140625 L 50.855469 -38.140625 L 50.855469 0 L 58.484375 0 L 58.390625 -38.140625 L 88.335938 -38.140625 C 89.9375 -38.140625 91.257812 -37.578125 92.386719 -36.445312 C 93.515625 -35.316406 94.082031 -33.996094 94.082031 -32.492188 L 94.082031 0 L 101.710938 0 L 101.710938 -32.492188 C 101.710938 -36.164062 100.390625 -39.175781 97.753906 -41.910156 Z M 97.753906 -41.910156 "/></g></g></g><g fill="#ff1616" fill-opacity="1"><g transform="translate(158.397379, 130.050963)"><g><path d="M 16.859375 -36.445312 C 17.707031 -37.292969 18.742188 -37.859375 19.777344 -38.046875 L 82.875 -38.046875 L 82.875 -45.675781 L 20.90625 -45.675781 C 17.140625 -45.675781 14.03125 -44.453125 11.488281 -41.8125 C 8.851562 -39.082031 7.535156 -36.070312 7.535156 -32.398438 L 7.535156 -13.277344 C 7.535156 -9.605469 8.851562 -6.59375 11.488281 -3.859375 C 14.03125 -1.222656 17.140625 0 20.90625 0 L 82.875 0 L 82.875 -7.628906 L 19.777344 -7.628906 C 18.742188 -7.816406 17.707031 -8.382812 16.859375 -9.230469 C 15.726562 -10.359375 15.164062 -11.679688 15.164062 -13.277344 L 15.164062 -19.023438 L 74.871094 -19.023438 L 74.871094 -26.652344 L 15.164062 -26.652344 L 15.164062 -32.398438 C 15.164062 -33.996094 15.726562 -35.316406 16.859375 -36.445312 Z M 16.859375 -36.445312 "/></g></g></g><g fill="#ff1616" fill-opacity="1"><g transform="translate(248.802212, 130.050963)"><g><path d="M 82.875 -45.675781 L 82.875 -38.046875 L 49.160156 -38.046875 L 49.160156 0 L 41.53125 0 L 41.53125 -38.046875 L 7.535156 -38.046875 L 7.535156 -45.675781 Z M 82.875 -45.675781 "/></g></g></g><g fill="#ff1616" fill-opacity="1"><g transform="translate(339.207056, 130.050963)"><g><path d="M 75.339844 -45.675781 L 75.246094 -32.398438 L 75.246094 -26.652344 L 15.164062 -26.652344 L 15.164062 -32.398438 L 15.066406 -45.675781 L 7.535156 -45.675781 L 7.535156 0 L 15.164062 0 L 15.164062 -19.023438 L 75.246094 -19.023438 L 75.246094 0 L 82.875 0 L 82.875 -45.675781 Z M 75.339844 -45.675781 "/></g></g></g><g fill="#ff1616" fill-opacity="1"><g transform="translate(429.611899, 130.050963)"><g><path d="M 78.921875 -41.8125 C 76.28125 -44.453125 73.269531 -45.675781 69.503906 -45.675781 L 20.8125 -45.675781 C 17.046875 -45.675781 14.03125 -44.453125 11.488281 -41.8125 C 8.851562 -39.082031 7.535156 -36.164062 7.535156 -32.585938 L 7.535156 -13.277344 C 7.535156 -9.605469 8.851562 -6.5 11.488281 -3.859375 C 14.03125 -1.222656 17.140625 0 20.90625 0 L 69.597656 0 C 73.363281 0 76.378906 -1.222656 78.921875 -3.859375 C 81.558594 -6.59375 82.875 -9.605469 82.875 -13.277344 L 82.875 -32.398438 C 82.875 -36.070312 81.558594 -39.175781 78.921875 -41.8125 Z M 73.550781 -9.324219 C 72.421875 -8.195312 71.101562 -7.628906 69.503906 -7.628906 L 19.777344 -7.628906 C 18.742188 -7.816406 17.707031 -8.382812 16.859375 -9.230469 C 15.726562 -10.359375 15.164062 -11.679688 15.164062 -13.277344 L 15.164062 -32.398438 C 15.164062 -33.996094 15.726562 -35.316406 16.859375 -36.445312 C 17.988281 -37.578125 19.304688 -38.140625 20.90625 -38.140625 L 69.503906 -38.140625 C 71.101562 -38.140625 72.421875 -37.578125 73.550781 -36.445312 C 74.683594 -35.316406 75.246094 -33.996094 75.246094 -32.398438 L 75.246094 -13.277344 C 75.246094 -11.773438 74.683594 -10.453125 73.550781 -9.324219 Z M 73.550781 -9.324219 "/></g></g></g><g fill="#ff1616" fill-opacity="1"><g transform="translate(520.016743, 130.050963)"><g><path d="M 76.1875 -38.988281 C 71.761719 -43.414062 66.394531 -45.675781 60.085938 -45.675781 L 7.535156 -45.675781 L 7.535156 0 L 60.085938 0 C 66.394531 0 71.761719 -2.261719 76.1875 -6.6875 C 80.613281 -11.207031 82.875 -16.574219 82.875 -22.789062 C 82.875 -29.101562 80.613281 -34.46875 76.1875 -38.988281 Z M 70.820312 -12.054688 C 67.902344 -9.136719 64.324219 -7.628906 60.085938 -7.628906 L 15.164062 -7.628906 L 15.164062 -38.046875 L 60.085938 -38.046875 C 64.324219 -38.046875 67.902344 -36.539062 70.820312 -33.621094 C 73.835938 -30.605469 75.246094 -27.027344 75.246094 -22.789062 C 75.246094 -18.648438 73.835938 -15.066406 70.820312 -12.054688 Z M 70.820312 -12.054688 "/></g></g></g><g fill="#ff1616" fill-opacity="1"><g transform="translate(610.421587, 130.050963)"><g><path d="M 78.921875 -22.601562 C 76.378906 -25.238281 73.269531 -26.558594 69.503906 -26.558594 L 20.8125 -26.558594 C 19.210938 -26.558594 17.894531 -27.121094 16.761719 -28.253906 C 15.632812 -29.382812 15.164062 -30.703125 15.164062 -32.300781 C 15.164062 -33.808594 15.632812 -35.128906 16.761719 -36.257812 C 17.894531 -37.386719 19.210938 -37.953125 20.8125 -37.953125 L 80.992188 -37.953125 L 80.992188 -45.582031 L 20.8125 -45.582031 C 17.140625 -45.582031 14.03125 -44.261719 11.394531 -41.625 C 8.851562 -39.082031 7.535156 -35.882812 7.535156 -32.300781 C 7.535156 -28.628906 8.851562 -25.425781 11.394531 -22.886719 C 14.03125 -20.246094 17.140625 -18.929688 20.8125 -18.929688 L 69.503906 -18.929688 C 71.101562 -18.929688 72.421875 -18.363281 73.550781 -17.328125 C 74.683594 -16.199219 75.246094 -14.785156 75.246094 -13.277344 C 75.246094 -11.679688 74.683594 -10.359375 73.550781 -9.230469 C 72.421875 -8.097656 71.101562 -7.535156 69.503906 -7.535156 L 9.417969 -7.535156 L 9.417969 0 L 69.503906 0 C 73.269531 0 76.378906 -1.222656 78.921875 -3.859375 C 81.558594 -6.5 82.875 -9.605469 82.875 -13.277344 C 82.875 -16.953125 81.558594 -20.058594 78.921875 -22.601562 Z M 78.921875 -22.601562 "/></g></g></g></svg>