<svg xmlns="http://www.w3.org/2000/svg" xmlns:xlink="http://www.w3.org/1999/xlink" width="1000" zoomAndPan="magnify" viewBox="0 0 750 112.499997" height="150" preserveAspectRatio="xMidYMid meet" version="1.0"><defs><g/></defs><g fill="#0097b2" fill-opacity="0.4"><g transform="translate(84.150425, 86.078366)"><g><path d="M 5.484375 -61.671875 C 6.078125 -61.671875 7.332031 -61.625 9.25 -61.53125 C 11.175781 -61.4375 13.394531 -61.328125 15.90625 -61.203125 C 18.425781 -61.085938 21.0625 -60.984375 23.8125 -60.890625 C 26.570312 -60.804688 29.09375 -60.765625 31.375 -60.765625 C 33.644531 -60.765625 36.160156 -60.804688 38.921875 -60.890625 C 41.679688 -60.984375 44.300781 -61.085938 46.78125 -61.203125 C 49.269531 -61.328125 51.472656 -61.4375 53.390625 -61.53125 C 55.304688 -61.625 56.566406 -61.671875 57.171875 -61.671875 C 58.671875 -61.671875 59.835938 -61.382812 60.671875 -60.8125 C 61.515625 -60.238281 61.9375 -59.203125 61.9375 -57.703125 C 61.9375 -56.453125 61.859375 -55.117188 61.703125 -53.703125 C 61.554688 -52.296875 61.484375 -50.90625 61.484375 -49.53125 C 61.484375 -48.03125 61.554688 -46.515625 61.703125 -44.984375 C 61.859375 -43.460938 61.9375 -42.070312 61.9375 -40.8125 C 61.9375 -38.65625 61.335938 -36.828125 60.140625 -35.328125 C 58.941406 -33.828125 57.171875 -33.078125 54.828125 -33.078125 C 52.554688 -33.078125 50.832031 -33.765625 49.65625 -35.140625 C 48.488281 -36.523438 47.90625 -38.503906 47.90625 -41.078125 C 47.90625 -42.097656 47.992188 -43.085938 48.171875 -44.046875 C 48.359375 -45.003906 48.453125 -45.929688 48.453125 -46.828125 C 48.453125 -47.785156 48.046875 -48.550781 47.234375 -49.125 C 46.429688 -49.695312 45.425781 -49.984375 44.21875 -49.984375 C 42.488281 -49.984375 41.289062 -49.472656 40.625 -48.453125 C 39.96875 -47.429688 39.640625 -45.660156 39.640625 -43.140625 L 39.640625 -18.25 C 39.640625 -17.40625 39.671875 -16.578125 39.734375 -15.765625 C 39.796875 -14.960938 39.929688 -14.226562 40.140625 -13.5625 C 40.347656 -12.90625 40.628906 -12.382812 40.984375 -12 C 41.347656 -11.613281 41.859375 -11.421875 42.515625 -11.421875 C 43.359375 -11.421875 44.179688 -11.523438 44.984375 -11.734375 C 45.796875 -11.941406 46.625 -12.046875 47.46875 -12.046875 C 49.144531 -12.046875 50.519531 -11.429688 51.59375 -10.203125 C 52.675781 -8.972656 53.21875 -7.578125 53.21875 -6.015625 C 53.21875 -4.046875 52.523438 -2.398438 51.140625 -1.078125 C 49.765625 0.242188 47.789062 0.90625 45.21875 0.90625 C 43.113281 0.90625 40.90625 0.753906 38.59375 0.453125 C 36.289062 0.148438 33.882812 0 31.375 0 C 30.414062 0 29.289062 0.0390625 28 0.125 C 26.707031 0.21875 25.398438 0.320312 24.078125 0.4375 C 22.765625 0.5625 21.507812 0.671875 20.3125 0.765625 C 19.113281 0.859375 18.125 0.90625 17.34375 0.90625 C 14.832031 0.90625 12.882812 0.234375 11.5 -1.109375 C 10.125 -2.460938 9.4375 -4.097656 9.4375 -6.015625 C 9.4375 -7.578125 9.972656 -8.972656 11.046875 -10.203125 C 12.128906 -11.429688 13.507812 -12.046875 15.1875 -12.046875 C 16.03125 -12.046875 16.851562 -11.941406 17.65625 -11.734375 C 18.46875 -11.523438 19.320312 -11.421875 20.21875 -11.421875 C 20.820312 -11.421875 21.300781 -11.613281 21.65625 -12 C 22.019531 -12.382812 22.304688 -12.890625 22.515625 -13.515625 C 22.722656 -14.148438 22.859375 -14.875 22.921875 -15.6875 C 22.984375 -16.5 23.015625 -17.351562 23.015625 -18.25 L 23.015625 -43.140625 C 23.015625 -45.660156 22.679688 -47.429688 22.015625 -48.453125 C 21.359375 -49.472656 20.160156 -49.984375 18.421875 -49.984375 C 17.285156 -49.984375 16.296875 -49.695312 15.453125 -49.125 C 14.617188 -48.550781 14.203125 -47.785156 14.203125 -46.828125 C 14.203125 -45.929688 14.289062 -45.003906 14.46875 -44.046875 C 14.644531 -43.085938 14.734375 -42.097656 14.734375 -41.078125 C 14.734375 -38.503906 14.148438 -36.523438 12.984375 -35.140625 C 11.816406 -33.765625 10.097656 -33.078125 7.828125 -33.078125 C 5.609375 -33.078125 3.867188 -33.8125 2.609375 -35.28125 C 1.347656 -36.75 0.71875 -38.5625 0.71875 -40.71875 C 0.71875 -42.09375 0.789062 -43.53125 0.9375 -45.03125 C 1.09375 -46.53125 1.171875 -48.03125 1.171875 -49.53125 C 1.171875 -50.90625 1.09375 -52.296875 0.9375 -53.703125 C 0.789062 -55.117188 0.71875 -56.453125 0.71875 -57.703125 C 0.71875 -59.203125 1.132812 -60.238281 1.96875 -60.8125 C 2.8125 -61.382812 3.984375 -61.671875 5.484375 -61.671875 Z M 5.484375 -61.671875 "/></g></g></g><g fill="#0097b2" fill-opacity="0.4"><g transform="translate(147.067616, 86.078366)"><g><path d="M 17.703125 -31.375 C 17.703125 -30.71875 18.0625 -30.34375 18.78125 -30.25 C 19.5 -30.15625 20.25 -30.109375 21.03125 -30.109375 L 30.390625 -30.109375 C 31.347656 -30.109375 31.988281 -30.179688 32.3125 -30.328125 C 32.644531 -30.484375 32.8125 -30.921875 32.8125 -31.640625 C 32.8125 -33.078125 32.179688 -34.363281 30.921875 -35.5 C 29.660156 -36.644531 28.039062 -37.21875 26.0625 -37.21875 C 25.050781 -37.21875 24.035156 -37.035156 23.015625 -36.671875 C 21.992188 -36.316406 21.09375 -35.835938 20.3125 -35.234375 C 19.53125 -34.640625 18.898438 -33.992188 18.421875 -33.296875 C 17.941406 -32.609375 17.703125 -31.96875 17.703125 -31.375 Z M 25.984375 -47.375 C 32.804688 -47.375 38.117188 -45.46875 41.921875 -41.65625 C 45.734375 -37.851562 47.640625 -32.597656 47.640625 -25.890625 C 47.640625 -23.546875 47.28125 -22 46.5625 -21.25 C 45.84375 -20.507812 44.34375 -20.140625 42.0625 -20.140625 L 19.59375 -20.140625 C 18.695312 -20.140625 18.082031 -20.03125 17.75 -19.8125 C 17.425781 -19.601562 17.265625 -19.082031 17.265625 -18.25 C 17.265625 -16.988281 17.503906 -15.800781 17.984375 -14.6875 C 18.460938 -13.582031 19.101562 -12.625 19.90625 -11.8125 C 20.71875 -11.007812 21.691406 -10.382812 22.828125 -9.9375 C 23.972656 -9.488281 25.203125 -9.265625 26.515625 -9.265625 C 27.953125 -9.265625 29.179688 -9.488281 30.203125 -9.9375 C 31.222656 -10.382812 32.421875 -11.328125 33.796875 -12.765625 C 34.453125 -13.484375 35.050781 -14.082031 35.59375 -14.5625 C 36.132812 -15.039062 36.644531 -15.414062 37.125 -15.6875 C 37.601562 -15.957031 38.125 -16.132812 38.6875 -16.21875 C 39.257812 -16.3125 39.90625 -16.359375 40.625 -16.359375 C 42.363281 -16.359375 43.832031 -15.863281 45.03125 -14.875 C 46.226562 -13.882812 46.828125 -12.492188 46.828125 -10.703125 C 46.828125 -8.960938 46.300781 -7.328125 45.25 -5.796875 C 44.207031 -4.265625 42.753906 -2.914062 40.890625 -1.75 C 39.035156 -0.582031 36.863281 0.34375 34.375 1.03125 C 31.894531 1.71875 29.21875 2.0625 26.34375 2.0625 C 22.6875 2.0625 19.390625 1.476562 16.453125 0.3125 C 13.515625 -0.851562 11.007812 -2.5 8.9375 -4.625 C 6.875 -6.757812 5.269531 -9.320312 4.125 -12.3125 C 2.988281 -15.3125 2.421875 -18.664062 2.421875 -22.375 C 2.421875 -26.03125 2.988281 -29.398438 4.125 -32.484375 C 5.269531 -35.578125 6.875 -38.21875 8.9375 -40.40625 C 11.007812 -42.59375 13.484375 -44.300781 16.359375 -45.53125 C 19.234375 -46.757812 22.441406 -47.375 25.984375 -47.375 Z M 25.984375 -47.375 "/></g></g></g><g fill="#0097b2" fill-opacity="0.4"><g transform="translate(197.401375, 86.078366)"><g><path d="M 34.703125 -46.921875 C 36.253906 -46.921875 37.75 -46.632812 39.1875 -46.0625 C 40.625 -45.5 41.878906 -44.707031 42.953125 -43.6875 C 44.035156 -42.664062 44.90625 -41.476562 45.5625 -40.125 C 46.226562 -38.78125 46.5625 -37.300781 46.5625 -35.6875 C 46.5625 -33.164062 45.84375 -31.066406 44.40625 -29.390625 C 42.96875 -27.710938 41.109375 -26.875 38.828125 -26.875 C 37.035156 -26.875 35.539062 -27.410156 34.34375 -28.484375 C 33.144531 -29.566406 32.546875 -30.976562 32.546875 -32.71875 C 32.546875 -33.375 32.664062 -33.988281 32.90625 -34.5625 C 33.144531 -35.132812 33.382812 -35.6875 33.625 -36.21875 L 32.71875 -36.21875 C 31.28125 -36.21875 29.988281 -35.890625 28.84375 -35.234375 C 27.707031 -34.578125 26.71875 -33.484375 25.875 -31.953125 C 25.039062 -30.421875 24.398438 -28.378906 23.953125 -25.828125 C 23.503906 -23.285156 23.28125 -20.128906 23.28125 -16.359375 C 23.28125 -13.960938 23.398438 -12.269531 23.640625 -11.28125 C 23.878906 -10.289062 24.300781 -9.796875 24.90625 -9.796875 C 25.257812 -9.796875 25.691406 -9.898438 26.203125 -10.109375 C 26.710938 -10.316406 27.265625 -10.421875 27.859375 -10.421875 C 29.179688 -10.421875 30.171875 -9.972656 30.828125 -9.078125 C 31.492188 -8.179688 31.828125 -6.921875 31.828125 -5.296875 C 31.828125 -3.503906 31.421875 -2.019531 30.609375 -0.84375 C 29.796875 0.320312 28.640625 0.90625 27.140625 0.90625 C 26.304688 0.90625 25.316406 0.859375 24.171875 0.765625 C 23.035156 0.671875 21.910156 0.5625 20.796875 0.4375 C 19.691406 0.320312 18.628906 0.21875 17.609375 0.125 C 16.597656 0.0390625 15.789062 0 15.1875 0 C 13.507812 0 11.800781 0.148438 10.0625 0.453125 C 8.320312 0.753906 6.707031 0.90625 5.21875 0.90625 C 3.78125 0.90625 2.65625 0.320312 1.84375 -0.84375 C 1.03125 -2.019531 0.625 -3.503906 0.625 -5.296875 C 0.625 -6.921875 0.953125 -8.179688 1.609375 -9.078125 C 2.273438 -9.972656 3.265625 -10.421875 4.578125 -10.421875 C 5.003906 -10.421875 5.5625 -10.316406 6.25 -10.109375 C 6.9375 -9.898438 7.367188 -9.796875 7.546875 -9.796875 C 7.910156 -9.796875 8.210938 -9.972656 8.453125 -10.328125 C 8.691406 -10.691406 8.851562 -11.144531 8.9375 -11.6875 C 9.03125 -12.226562 9.09375 -12.84375 9.125 -13.53125 C 9.15625 -14.21875 9.171875 -14.890625 9.171875 -15.546875 L 9.171875 -29.125 C 9.171875 -30.6875 9.140625 -31.882812 9.078125 -32.71875 C 9.015625 -33.5625 8.921875 -34.175781 8.796875 -34.5625 C 8.679688 -34.945312 8.519531 -35.171875 8.3125 -35.234375 C 8.101562 -35.296875 7.847656 -35.328125 7.546875 -35.328125 C 7.128906 -35.328125 6.679688 -35.222656 6.203125 -35.015625 C 5.722656 -34.804688 5.179688 -34.703125 4.578125 -34.703125 C 3.265625 -34.703125 2.273438 -35.148438 1.609375 -36.046875 C 0.953125 -36.941406 0.625 -38.203125 0.625 -39.828125 C 0.625 -41.617188 1.015625 -43.097656 1.796875 -44.265625 C 2.578125 -45.441406 3.71875 -46.03125 5.21875 -46.03125 C 6.113281 -46.03125 7.203125 -45.878906 8.484375 -45.578125 C 9.773438 -45.273438 10.722656 -45.125 11.328125 -45.125 C 12.347656 -45.125 13.335938 -45.273438 14.296875 -45.578125 C 15.253906 -45.878906 16.242188 -46.03125 17.265625 -46.03125 C 18.398438 -46.03125 19.144531 -45.742188 19.5 -45.171875 C 19.863281 -44.597656 20.046875 -43.679688 20.046875 -42.421875 L 20.046875 -35.421875 L 20.21875 -35.421875 C 20.9375 -39.191406 22.582031 -42.050781 25.15625 -44 C 27.738281 -45.945312 30.921875 -46.921875 34.703125 -46.921875 Z M 34.703125 -46.921875 "/></g></g></g><g fill="#0097b2" fill-opacity="0.4"><g transform="translate(244.139862, 86.078366)"><g><path d="M 35.78125 -47.375 C 38.289062 -47.375 40.550781 -46.742188 42.5625 -45.484375 C 44.570312 -44.222656 46.234375 -42.546875 47.546875 -40.453125 C 50.609375 -43.148438 53.304688 -44.976562 55.640625 -45.9375 C 57.972656 -46.894531 60.460938 -47.375 63.109375 -47.375 C 66.335938 -47.375 69.269531 -46.566406 71.90625 -44.953125 C 73.226562 -44.109375 74.335938 -43.222656 75.234375 -42.296875 C 76.140625 -41.367188 76.875 -40.273438 77.4375 -39.015625 C 78.007812 -37.753906 78.414062 -36.285156 78.65625 -34.609375 C 78.894531 -32.929688 79.015625 -30.921875 79.015625 -28.578125 L 79.015625 -14.015625 C 79.015625 -11.203125 79.582031 -9.796875 80.71875 -9.796875 C 81.082031 -9.796875 81.519531 -9.898438 82.03125 -10.109375 C 82.539062 -10.316406 83.09375 -10.421875 83.6875 -10.421875 C 86.320312 -10.421875 87.640625 -8.710938 87.640625 -5.296875 C 87.640625 -3.378906 87.191406 -1.863281 86.296875 -0.75 C 85.398438 0.351562 84.050781 0.90625 82.25 0.90625 C 80.632812 0.90625 79.015625 0.753906 77.390625 0.453125 C 75.773438 0.148438 74.160156 0 72.546875 0 C 71.046875 0 69.578125 0.148438 68.140625 0.453125 C 66.703125 0.753906 65.289062 0.90625 63.90625 0.90625 C 62.226562 0.90625 61.015625 0.363281 60.265625 -0.71875 C 59.515625 -1.800781 59.140625 -3.328125 59.140625 -5.296875 C 59.140625 -8.710938 60.007812 -10.421875 61.75 -10.421875 C 62.113281 -10.421875 62.503906 -10.316406 62.921875 -10.109375 C 63.335938 -9.898438 63.640625 -9.796875 63.828125 -9.796875 C 64.359375 -9.796875 64.671875 -10.378906 64.765625 -11.546875 C 64.859375 -12.710938 64.90625 -13.925781 64.90625 -15.1875 L 64.90625 -27.328125 C 64.90625 -32.054688 62.894531 -34.421875 58.875 -34.421875 C 58.394531 -34.421875 57.734375 -34.347656 56.890625 -34.203125 C 56.054688 -34.054688 55.203125 -33.664062 54.328125 -33.03125 C 53.460938 -32.40625 52.710938 -31.429688 52.078125 -30.109375 C 51.453125 -28.796875 51.140625 -26.941406 51.140625 -24.546875 L 51.140625 -13.21875 C 51.140625 -11.957031 51.242188 -11.070312 51.453125 -10.5625 C 51.671875 -10.050781 51.925781 -9.796875 52.21875 -9.796875 C 52.46875 -9.796875 52.785156 -9.898438 53.171875 -10.109375 C 53.554688 -10.316406 53.929688 -10.421875 54.296875 -10.421875 C 56.035156 -10.421875 56.90625 -8.742188 56.90625 -5.390625 C 56.90625 -3.410156 56.585938 -1.863281 55.953125 -0.75 C 55.328125 0.351562 54.382812 0.90625 53.125 0.90625 C 51.5625 0.90625 49.972656 0.753906 48.359375 0.453125 C 46.742188 0.148438 45.125 0 43.5 0 C 42.007812 0 40.53125 0.148438 39.0625 0.453125 C 37.59375 0.753906 36.226562 0.90625 34.96875 0.90625 C 33.707031 0.90625 32.773438 0.363281 32.171875 -0.71875 C 31.578125 -1.800781 31.28125 -3.328125 31.28125 -5.296875 C 31.28125 -8.710938 32.148438 -10.421875 33.890625 -10.421875 C 34.242188 -10.421875 34.613281 -10.316406 35 -10.109375 C 35.394531 -9.898438 35.710938 -9.796875 35.953125 -9.796875 C 36.191406 -9.796875 36.382812 -9.957031 36.53125 -10.28125 C 36.6875 -10.613281 36.804688 -11.050781 36.890625 -11.59375 C 36.984375 -12.132812 37.03125 -12.734375 37.03125 -13.390625 C 37.03125 -14.046875 37.03125 -14.675781 37.03125 -15.28125 L 37.03125 -27.5 C 37.03125 -32.113281 35.203125 -34.421875 31.546875 -34.421875 C 30.535156 -34.421875 29.535156 -34.269531 28.546875 -33.96875 C 27.554688 -33.675781 26.671875 -33.15625 25.890625 -32.40625 C 25.109375 -31.65625 24.476562 -30.617188 24 -29.296875 C 23.519531 -27.984375 23.28125 -26.335938 23.28125 -24.359375 L 23.28125 -14.46875 C 23.28125 -11.351562 23.640625 -9.796875 24.359375 -9.796875 C 24.597656 -9.796875 24.910156 -9.898438 25.296875 -10.109375 C 25.691406 -10.316406 26.066406 -10.421875 26.421875 -10.421875 C 27.085938 -10.421875 27.6875 -10.046875 28.21875 -9.296875 C 28.757812 -8.554688 29.03125 -7.253906 29.03125 -5.390625 C 29.03125 -3.535156 28.726562 -2.019531 28.125 -0.84375 C 27.53125 0.320312 26.601562 0.90625 25.34375 0.90625 C 23.488281 0.90625 21.628906 0.753906 19.765625 0.453125 C 17.910156 0.148438 16.085938 0 14.296875 0 C 12.617188 0 10.925781 0.148438 9.21875 0.453125 C 7.507812 0.753906 5.9375 0.90625 4.5 0.90625 C 3.300781 0.90625 2.351562 0.273438 1.65625 -0.984375 C 0.96875 -2.242188 0.625 -3.679688 0.625 -5.296875 C 0.625 -6.921875 0.953125 -8.179688 1.609375 -9.078125 C 2.273438 -9.972656 3.265625 -10.421875 4.578125 -10.421875 C 5.003906 -10.421875 5.5625 -10.316406 6.25 -10.109375 C 6.9375 -9.898438 7.367188 -9.796875 7.546875 -9.796875 C 8.265625 -9.796875 8.710938 -10.226562 8.890625 -11.09375 C 9.078125 -11.96875 9.171875 -13.394531 9.171875 -15.375 L 9.171875 -26.0625 C 9.171875 -27.925781 9.15625 -29.472656 9.125 -30.703125 C 9.09375 -31.929688 9.015625 -32.875 8.890625 -33.53125 C 8.773438 -34.1875 8.613281 -34.648438 8.40625 -34.921875 C 8.195312 -35.191406 7.910156 -35.328125 7.546875 -35.328125 C 7.128906 -35.328125 6.679688 -35.222656 6.203125 -35.015625 C 5.722656 -34.804688 5.179688 -34.703125 4.578125 -34.703125 C 1.941406 -34.703125 0.625 -36.410156 0.625 -39.828125 C 0.625 -41.554688 0.953125 -43.019531 1.609375 -44.21875 C 2.273438 -45.425781 3.117188 -46.03125 4.140625 -46.03125 C 5.148438 -46.03125 6.222656 -45.878906 7.359375 -45.578125 C 8.503906 -45.273438 9.617188 -45.125 10.703125 -45.125 C 11.898438 -45.125 13.097656 -45.273438 14.296875 -45.578125 C 15.492188 -45.878906 16.75 -46.03125 18.0625 -46.03125 C 19.019531 -46.03125 19.753906 -45.757812 20.265625 -45.21875 C 20.773438 -44.675781 21.03125 -43.414062 21.03125 -41.4375 L 21.03125 -40.453125 C 22.945312 -42.546875 25.191406 -44.222656 27.765625 -45.484375 C 30.347656 -46.742188 33.019531 -47.375 35.78125 -47.375 Z M 35.78125 -47.375 "/></g></g></g><g fill="#0097b2" fill-opacity="0.4"><g transform="translate(332.223937, 86.078366)"><g><path d="M 6.015625 -46.03125 C 7.273438 -46.03125 8.519531 -45.878906 9.75 -45.578125 C 10.976562 -45.273438 12.191406 -45.125 13.390625 -45.125 C 14.710938 -45.125 16.046875 -45.273438 17.390625 -45.578125 C 18.742188 -45.878906 20.019531 -46.03125 21.21875 -46.03125 C 22.351562 -46.03125 23.097656 -45.640625 23.453125 -44.859375 C 23.816406 -44.078125 24 -43.023438 24 -41.703125 L 24 -15.546875 C 24 -13.929688 24.101562 -12.566406 24.3125 -11.453125 C 24.519531 -10.347656 24.957031 -9.796875 25.625 -9.796875 C 25.914062 -9.796875 26.316406 -9.898438 26.828125 -10.109375 C 27.335938 -10.316406 27.894531 -10.421875 28.5 -10.421875 C 29.757812 -10.421875 30.734375 -9.972656 31.421875 -9.078125 C 32.109375 -8.179688 32.453125 -6.921875 32.453125 -5.296875 C 32.453125 -3.328125 32 -1.800781 31.09375 -0.71875 C 30.195312 0.363281 28.851562 0.90625 27.0625 0.90625 C 25.195312 0.90625 23.335938 0.753906 21.484375 0.453125 C 19.628906 0.148438 17.800781 0 16 0 C 14.257812 0 12.550781 0.148438 10.875 0.453125 C 9.195312 0.753906 7.578125 0.90625 6.015625 0.90625 C 4.222656 0.90625 2.875 0.351562 1.96875 -0.75 C 1.070312 -1.863281 0.625 -3.378906 0.625 -5.296875 C 0.625 -6.921875 0.953125 -8.179688 1.609375 -9.078125 C 2.273438 -9.972656 3.265625 -10.421875 4.578125 -10.421875 C 5.003906 -10.421875 5.5625 -10.316406 6.25 -10.109375 C 6.9375 -9.898438 7.367188 -9.796875 7.546875 -9.796875 C 8.210938 -9.796875 8.648438 -10.289062 8.859375 -11.28125 C 9.066406 -12.269531 9.171875 -13.691406 9.171875 -15.546875 L 9.171875 -29.9375 C 9.171875 -31.195312 9.109375 -32.410156 8.984375 -33.578125 C 8.867188 -34.742188 8.421875 -35.328125 7.640625 -35.328125 C 7.160156 -35.328125 6.679688 -35.222656 6.203125 -35.015625 C 5.722656 -34.804688 5.179688 -34.703125 4.578125 -34.703125 C 3.265625 -34.703125 2.273438 -35.148438 1.609375 -36.046875 C 0.953125 -36.941406 0.625 -38.203125 0.625 -39.828125 C 0.625 -41.679688 1.070312 -43.175781 1.96875 -44.3125 C 2.875 -45.457031 4.222656 -46.03125 6.015625 -46.03125 Z M 16 -66.515625 C 17.132812 -66.515625 18.226562 -66.289062 19.28125 -65.84375 C 20.332031 -65.394531 21.234375 -64.796875 21.984375 -64.046875 C 22.734375 -63.296875 23.332031 -62.394531 23.78125 -61.34375 C 24.226562 -60.300781 24.453125 -59.207031 24.453125 -58.0625 C 24.453125 -56.863281 24.226562 -55.753906 23.78125 -54.734375 C 23.332031 -53.722656 22.734375 -52.84375 21.984375 -52.09375 C 21.234375 -51.34375 20.332031 -50.742188 19.28125 -50.296875 C 18.226562 -49.847656 17.132812 -49.625 16 -49.625 C 14.863281 -49.625 13.785156 -49.847656 12.765625 -50.296875 C 11.742188 -50.742188 10.84375 -51.34375 10.0625 -52.09375 C 9.289062 -52.84375 8.675781 -53.722656 8.21875 -54.734375 C 7.769531 -55.753906 7.546875 -56.863281 7.546875 -58.0625 C 7.546875 -59.207031 7.769531 -60.300781 8.21875 -61.34375 C 8.675781 -62.394531 9.289062 -63.296875 10.0625 -64.046875 C 10.84375 -64.796875 11.742188 -65.394531 12.765625 -65.84375 C 13.785156 -66.289062 14.863281 -66.515625 16 -66.515625 Z M 16 -66.515625 "/></g></g></g><g fill="#0097b2" fill-opacity="0.4"><g transform="translate(364.581367, 86.078366)"><g><path d="M 36.21875 -47.375 C 38.4375 -47.375 40.472656 -46.96875 42.328125 -46.15625 C 44.191406 -45.351562 45.796875 -44.257812 47.140625 -42.875 C 48.492188 -41.5 49.554688 -39.835938 50.328125 -37.890625 C 51.109375 -35.941406 51.5 -33.859375 51.5 -31.640625 L 51.5 -15.46875 C 51.5 -14.800781 51.515625 -14.140625 51.546875 -13.484375 C 51.578125 -12.828125 51.632812 -12.226562 51.71875 -11.6875 C 51.8125 -11.144531 51.976562 -10.691406 52.21875 -10.328125 C 52.46875 -9.972656 52.769531 -9.796875 53.125 -9.796875 C 53.488281 -9.796875 53.921875 -9.898438 54.421875 -10.109375 C 54.929688 -10.316406 55.488281 -10.421875 56.09375 -10.421875 C 57.40625 -10.421875 58.390625 -9.972656 59.046875 -9.078125 C 59.710938 -8.179688 60.046875 -6.921875 60.046875 -5.296875 C 60.046875 -3.441406 59.59375 -1.941406 58.6875 -0.796875 C 57.789062 0.335938 56.445312 0.90625 54.65625 0.90625 C 52.789062 0.90625 50.929688 0.753906 49.078125 0.453125 C 47.222656 0.148438 45.394531 0 43.59375 0 C 42.21875 0 40.75 0.148438 39.1875 0.453125 C 37.632812 0.753906 36.257812 0.90625 35.0625 0.90625 C 33.800781 0.90625 32.867188 0.363281 32.265625 -0.71875 C 31.671875 -1.800781 31.375 -3.328125 31.375 -5.296875 C 31.375 -6.921875 31.628906 -8.179688 32.140625 -9.078125 C 32.648438 -9.972656 33.320312 -10.421875 34.15625 -10.421875 C 34.519531 -10.421875 34.894531 -10.316406 35.28125 -10.109375 C 35.664062 -9.898438 35.976562 -9.796875 36.21875 -9.796875 C 36.757812 -9.796875 37.085938 -10.171875 37.203125 -10.921875 C 37.328125 -11.671875 37.390625 -13.003906 37.390625 -14.921875 L 37.390625 -27.0625 C 37.390625 -32.15625 35.472656 -34.703125 31.640625 -34.703125 C 29.242188 -34.703125 27.25 -33.816406 25.65625 -32.046875 C 24.070312 -30.273438 23.28125 -27.921875 23.28125 -24.984375 L 23.28125 -14.375 C 23.28125 -11.320312 23.640625 -9.796875 24.359375 -9.796875 C 24.597656 -9.796875 24.910156 -9.898438 25.296875 -10.109375 C 25.691406 -10.316406 26.128906 -10.421875 26.609375 -10.421875 C 27.328125 -10.421875 27.953125 -10.03125 28.484375 -9.25 C 29.023438 -8.476562 29.296875 -7.191406 29.296875 -5.390625 C 29.296875 -3.535156 28.992188 -2.019531 28.390625 -0.84375 C 27.796875 0.320312 26.875 0.90625 25.625 0.90625 C 24.90625 0.90625 24.050781 0.859375 23.0625 0.765625 C 22.070312 0.671875 21.035156 0.5625 19.953125 0.4375 C 18.878906 0.320312 17.832031 0.21875 16.8125 0.125 C 15.789062 0.0390625 14.953125 0 14.296875 0 C 12.617188 0 10.925781 0.148438 9.21875 0.453125 C 7.507812 0.753906 5.9375 0.90625 4.5 0.90625 C 3.300781 0.90625 2.351562 0.273438 1.65625 -0.984375 C 0.96875 -2.242188 0.625 -3.679688 0.625 -5.296875 C 0.625 -6.921875 0.953125 -8.179688 1.609375 -9.078125 C 2.273438 -9.972656 3.265625 -10.421875 4.578125 -10.421875 C 5.003906 -10.421875 5.5625 -10.316406 6.25 -10.109375 C 6.9375 -9.898438 7.367188 -9.796875 7.546875 -9.796875 C 8.265625 -9.796875 8.710938 -10.226562 8.890625 -11.09375 C 9.078125 -11.96875 9.171875 -13.394531 9.171875 -15.375 L 9.171875 -26.0625 C 9.171875 -27.925781 9.15625 -29.472656 9.125 -30.703125 C 9.09375 -31.929688 9.015625 -32.875 8.890625 -33.53125 C 8.773438 -34.1875 8.613281 -34.648438 8.40625 -34.921875 C 8.195312 -35.191406 7.910156 -35.328125 7.546875 -35.328125 C 7.128906 -35.328125 6.679688 -35.222656 6.203125 -35.015625 C 5.722656 -34.804688 5.179688 -34.703125 4.578125 -34.703125 C 1.941406 -34.703125 0.625 -36.410156 0.625 -39.828125 C 0.625 -41.554688 0.953125 -43.019531 1.609375 -44.21875 C 2.273438 -45.425781 3.117188 -46.03125 4.140625 -46.03125 C 4.492188 -46.03125 4.96875 -45.984375 5.5625 -45.890625 C 6.164062 -45.796875 6.8125 -45.6875 7.5 -45.5625 C 8.195312 -45.445312 8.890625 -45.34375 9.578125 -45.25 C 10.265625 -45.164062 10.878906 -45.125 11.421875 -45.125 C 12.378906 -45.125 13.5 -45.273438 14.78125 -45.578125 C 16.070312 -45.878906 17.109375 -46.03125 17.890625 -46.03125 C 19.085938 -46.03125 19.804688 -45.710938 20.046875 -45.078125 C 20.285156 -44.453125 20.40625 -43.628906 20.40625 -42.609375 L 20.40625 -39.109375 L 20.578125 -39.109375 C 22.796875 -41.859375 25.238281 -43.921875 27.90625 -45.296875 C 30.570312 -46.679688 33.34375 -47.375 36.21875 -47.375 Z M 36.21875 -47.375 "/></g></g></g><g fill="#0097b2" fill-opacity="0.4"><g transform="translate(425.700933, 86.078366)"><g><path d="M 17.265625 -22.65625 C 17.265625 -18.34375 18.023438 -15.03125 19.546875 -12.71875 C 21.078125 -10.414062 23.28125 -9.265625 26.15625 -9.265625 C 28.007812 -9.265625 29.503906 -9.710938 30.640625 -10.609375 C 31.785156 -11.503906 32.671875 -12.625 33.296875 -13.96875 C 33.929688 -15.320312 34.351562 -16.789062 34.5625 -18.375 C 34.769531 -19.96875 34.875 -21.425781 34.875 -22.75 C 34.875 -27.0625 34.171875 -30.351562 32.765625 -32.625 C 31.359375 -34.90625 29.125 -36.046875 26.0625 -36.046875 C 23.488281 -36.046875 21.378906 -34.90625 19.734375 -32.625 C 18.085938 -30.351562 17.265625 -27.03125 17.265625 -22.65625 Z M 26.34375 -47.375 C 29.9375 -47.375 33.171875 -46.800781 36.046875 -45.65625 C 38.921875 -44.519531 41.375 -42.90625 43.40625 -40.8125 C 45.445312 -38.71875 47.003906 -36.171875 48.078125 -33.171875 C 49.160156 -30.171875 49.703125 -26.84375 49.703125 -23.1875 C 49.703125 -15.15625 47.695312 -8.9375 43.6875 -4.53125 C 39.675781 -0.132812 33.921875 2.0625 26.421875 2.0625 C 18.628906 2.0625 12.679688 -0.109375 8.578125 -4.453125 C 4.472656 -8.796875 2.421875 -14.863281 2.421875 -22.65625 C 2.421875 -30.445312 4.488281 -36.515625 8.625 -40.859375 C 12.757812 -45.203125 18.664062 -47.375 26.34375 -47.375 Z M 26.34375 -47.375 "/></g></g></g><g fill="#0097b2" fill-opacity="0.4"><g transform="translate(477.83234, 86.078366)"><g><path d="M 5.9375 -61.671875 C 7.070312 -61.671875 8.238281 -61.519531 9.4375 -61.21875 C 10.632812 -60.914062 11.863281 -60.765625 13.125 -60.765625 C 14.445312 -60.765625 15.765625 -60.914062 17.078125 -61.21875 C 18.398438 -61.519531 19.6875 -61.671875 20.9375 -61.671875 C 22.144531 -61.671875 22.957031 -61.265625 23.375 -60.453125 C 23.789062 -59.640625 24 -58.515625 24 -57.078125 L 24 -15.546875 C 24 -13.929688 24.101562 -12.566406 24.3125 -11.453125 C 24.519531 -10.347656 24.957031 -9.796875 25.625 -9.796875 C 25.914062 -9.796875 26.316406 -9.898438 26.828125 -10.109375 C 27.335938 -10.316406 27.894531 -10.421875 28.5 -10.421875 C 29.757812 -10.421875 30.734375 -9.972656 31.421875 -9.078125 C 32.109375 -8.179688 32.453125 -6.921875 32.453125 -5.296875 C 32.453125 -3.328125 32 -1.800781 31.09375 -0.71875 C 30.195312 0.363281 28.851562 0.90625 27.0625 0.90625 C 25.195312 0.90625 23.335938 0.753906 21.484375 0.453125 C 19.628906 0.148438 17.800781 0 16 0 C 14.257812 0 12.550781 0.148438 10.875 0.453125 C 9.195312 0.753906 7.578125 0.90625 6.015625 0.90625 C 4.222656 0.90625 2.875 0.351562 1.96875 -0.75 C 1.070312 -1.863281 0.625 -3.378906 0.625 -5.296875 C 0.625 -6.921875 0.953125 -8.179688 1.609375 -9.078125 C 2.273438 -9.972656 3.265625 -10.421875 4.578125 -10.421875 C 5.003906 -10.421875 5.5625 -10.316406 6.25 -10.109375 C 6.9375 -9.898438 7.367188 -9.796875 7.546875 -9.796875 C 8.210938 -9.796875 8.648438 -10.289062 8.859375 -11.28125 C 9.066406 -12.269531 9.171875 -13.691406 9.171875 -15.546875 L 9.171875 -45.671875 C 9.171875 -46.921875 9.109375 -48.097656 8.984375 -49.203125 C 8.867188 -50.316406 8.390625 -50.875 7.546875 -50.875 C 7.128906 -50.875 6.679688 -50.769531 6.203125 -50.5625 C 5.722656 -50.351562 5.179688 -50.25 4.578125 -50.25 C 1.941406 -50.25 0.625 -51.957031 0.625 -55.375 C 0.625 -57.289062 1.070312 -58.816406 1.96875 -59.953125 C 2.875 -61.097656 4.195312 -61.671875 5.9375 -61.671875 Z M 5.9375 -61.671875 "/></g></g></g><g fill="#0097b2" fill-opacity="0.4"><g transform="translate(510.189747, 86.078366)"><g><path d="M 17.265625 -22.65625 C 17.265625 -18.34375 18.023438 -15.03125 19.546875 -12.71875 C 21.078125 -10.414062 23.28125 -9.265625 26.15625 -9.265625 C 28.007812 -9.265625 29.503906 -9.710938 30.640625 -10.609375 C 31.785156 -11.503906 32.671875 -12.625 33.296875 -13.96875 C 33.929688 -15.320312 34.351562 -16.789062 34.5625 -18.375 C 34.769531 -19.96875 34.875 -21.425781 34.875 -22.75 C 34.875 -27.0625 34.171875 -30.351562 32.765625 -32.625 C 31.359375 -34.90625 29.125 -36.046875 26.0625 -36.046875 C 23.488281 -36.046875 21.378906 -34.90625 19.734375 -32.625 C 18.085938 -30.351562 17.265625 -27.03125 17.265625 -22.65625 Z M 26.34375 -47.375 C 29.9375 -47.375 33.171875 -46.800781 36.046875 -45.65625 C 38.921875 -44.519531 41.375 -42.90625 43.40625 -40.8125 C 45.445312 -38.71875 47.003906 -36.171875 48.078125 -33.171875 C 49.160156 -30.171875 49.703125 -26.84375 49.703125 -23.1875 C 49.703125 -15.15625 47.695312 -8.9375 43.6875 -4.53125 C 39.675781 -0.132812 33.921875 2.0625 26.421875 2.0625 C 18.628906 2.0625 12.679688 -0.109375 8.578125 -4.453125 C 4.472656 -8.796875 2.421875 -14.863281 2.421875 -22.65625 C 2.421875 -30.445312 4.488281 -36.515625 8.625 -40.859375 C 12.757812 -45.203125 18.664062 -47.375 26.34375 -47.375 Z M 26.34375 -47.375 "/></g></g></g><g fill="#0097b2" fill-opacity="0.4"><g transform="translate(562.321131, 86.078366)"><g><path d="M 19.5 -0.90625 C 16.8125 0.113281 15.46875 1.523438 15.46875 3.328125 C 15.46875 5.066406 16.410156 6.3125 18.296875 7.0625 C 20.179688 7.8125 23.039062 8.1875 26.875 8.1875 C 30.65625 8.1875 33.382812 7.78125 35.0625 6.96875 C 36.738281 6.15625 37.578125 4.851562 37.578125 3.0625 C 37.578125 1.976562 37.066406 1.117188 36.046875 0.484375 C 35.023438 -0.140625 33.257812 -0.507812 30.75 -0.625 L 24.8125 -0.8125 C 24.15625 -0.8125 23.390625 -0.828125 22.515625 -0.859375 C 21.648438 -0.890625 20.644531 -0.90625 19.5 -0.90625 Z M 21.03125 -31.28125 C 21.03125 -29.664062 21.597656 -28.269531 22.734375 -27.09375 C 23.878906 -25.925781 25.320312 -25.34375 27.0625 -25.34375 C 28.738281 -25.34375 30.175781 -25.910156 31.375 -27.046875 C 32.570312 -28.191406 33.171875 -29.601562 33.171875 -31.28125 C 33.171875 -33.019531 32.597656 -34.457031 31.453125 -35.59375 C 30.316406 -36.726562 28.820312 -37.296875 26.96875 -37.296875 C 25.289062 -37.296875 23.878906 -36.726562 22.734375 -35.59375 C 21.597656 -34.457031 21.03125 -33.019531 21.03125 -31.28125 Z M 41.4375 -56.8125 C 42.875 -56.8125 44.207031 -56.613281 45.4375 -56.21875 C 46.664062 -55.832031 47.726562 -55.296875 48.625 -54.609375 C 49.53125 -53.921875 50.25 -53.082031 50.78125 -52.09375 C 51.320312 -51.101562 51.59375 -50.039062 51.59375 -48.90625 C 51.59375 -47.34375 51.050781 -46.066406 49.96875 -45.078125 C 48.894531 -44.085938 47.609375 -43.59375 46.109375 -43.59375 C 45.035156 -43.59375 44.195312 -43.816406 43.59375 -44.265625 C 43 -44.722656 42.367188 -45.550781 41.703125 -46.75 C 41.410156 -47.28125 40.960938 -47.546875 40.359375 -47.546875 C 39.703125 -47.546875 39.207031 -47.273438 38.875 -46.734375 C 38.550781 -46.203125 38.390625 -45.546875 38.390625 -44.765625 C 38.390625 -44.347656 38.445312 -44.078125 38.5625 -43.953125 C 41.320312 -43.117188 43.460938 -41.53125 44.984375 -39.1875 C 46.515625 -36.851562 47.28125 -34.160156 47.28125 -31.109375 C 47.28125 -30.742188 47.21875 -30.109375 47.09375 -29.203125 C 46.976562 -28.304688 46.695312 -27.289062 46.25 -26.15625 C 45.800781 -25.019531 45.140625 -23.835938 44.265625 -22.609375 C 43.398438 -21.378906 42.234375 -20.253906 40.765625 -19.234375 C 39.296875 -18.210938 37.46875 -17.375 35.28125 -16.71875 C 33.09375 -16.0625 30.441406 -15.734375 27.328125 -15.734375 C 25.472656 -15.734375 23.734375 -15.910156 22.109375 -16.265625 C 20.492188 -16.628906 18.785156 -17.203125 16.984375 -17.984375 C 16.566406 -17.554688 16.238281 -17.175781 16 -16.84375 C 15.757812 -16.519531 15.640625 -16.085938 15.640625 -15.546875 C 15.640625 -12.796875 18.1875 -11.421875 23.28125 -11.421875 L 34.78125 -11.421875 C 40.238281 -11.421875 44.507812 -10.25 47.59375 -7.90625 C 50.675781 -5.570312 52.21875 -2.15625 52.21875 2.34375 C 52.21875 4.789062 51.632812 7.078125 50.46875 9.203125 C 49.300781 11.335938 47.5625 13.164062 45.25 14.6875 C 42.945312 16.21875 40.117188 17.414062 36.765625 18.28125 C 33.410156 19.15625 29.546875 19.59375 25.171875 19.59375 C 21.453125 19.59375 18.09375 19.21875 15.09375 18.46875 C 12.101562 17.71875 9.554688 16.679688 7.453125 15.359375 C 5.359375 14.046875 3.742188 12.460938 2.609375 10.609375 C 1.472656 8.753906 0.90625 6.71875 0.90625 4.5 C 0.90625 -0.59375 3.988281 -3.976562 10.15625 -5.65625 L 10.15625 -5.84375 C 7.875 -6.082031 6.085938 -6.921875 4.796875 -8.359375 C 3.515625 -9.796875 2.875 -11.710938 2.875 -14.109375 C 2.875 -16.453125 3.425781 -18.367188 4.53125 -19.859375 C 5.644531 -21.359375 7.550781 -22.648438 10.25 -23.734375 C 9.113281 -24.992188 8.273438 -26.25 7.734375 -27.5 C 7.191406 -28.757812 6.921875 -30.226562 6.921875 -31.90625 C 6.921875 -34.25 7.457031 -36.347656 8.53125 -38.203125 C 9.613281 -40.054688 11.050781 -41.628906 12.84375 -42.921875 C 14.644531 -44.210938 16.710938 -45.21875 19.046875 -45.9375 C 21.390625 -46.65625 23.820312 -47.015625 26.34375 -47.015625 C 26.632812 -47.015625 27.078125 -47 27.671875 -46.96875 C 28.273438 -46.9375 29 -46.890625 29.84375 -46.828125 L 29.84375 -47.375 C 29.84375 -50.25 30.953125 -52.539062 33.171875 -54.25 C 35.390625 -55.957031 38.144531 -56.8125 41.4375 -56.8125 Z M 41.4375 -56.8125 "/></g></g></g><g fill="#0097b2" fill-opacity="0.4"><g transform="translate(614.452516, 86.078366)"><g><path d="M 4.9375 -46.03125 C 6.257812 -46.03125 7.65625 -45.878906 9.125 -45.578125 C 10.59375 -45.273438 12.101562 -45.125 13.65625 -45.125 C 15.28125 -45.125 16.898438 -45.273438 18.515625 -45.578125 C 20.128906 -45.878906 21.75 -46.03125 23.375 -46.03125 C 25.226562 -46.03125 26.570312 -45.535156 27.40625 -44.546875 C 28.25 -43.554688 28.671875 -42.25 28.671875 -40.625 C 28.671875 -39.1875 28.367188 -38.210938 27.765625 -37.703125 C 27.171875 -37.191406 26.5 -36.832031 25.75 -36.625 C 25 -36.414062 24.320312 -36.207031 23.71875 -36 C 23.125 -35.789062 22.828125 -35.328125 22.828125 -34.609375 C 22.828125 -34.367188 22.859375 -34.082031 22.921875 -33.75 C 22.984375 -33.425781 23.253906 -32.570312 23.734375 -31.1875 L 29.578125 -12.9375 L 29.75 -12.9375 L 35.59375 -30.296875 C 35.894531 -31.191406 36.164062 -32.039062 36.40625 -32.84375 C 36.644531 -33.65625 36.765625 -34.273438 36.765625 -34.703125 C 36.765625 -35.296875 36.195312 -35.773438 35.0625 -36.140625 C 32.78125 -36.910156 31.640625 -38.4375 31.640625 -40.71875 C 31.640625 -42.15625 32.070312 -43.398438 32.9375 -44.453125 C 33.8125 -45.503906 34.96875 -46.03125 36.40625 -46.03125 C 37.601562 -46.03125 38.890625 -45.878906 40.265625 -45.578125 C 41.648438 -45.273438 43.03125 -45.125 44.40625 -45.125 C 45.96875 -45.125 47.492188 -45.273438 48.984375 -45.578125 C 50.484375 -45.878906 51.984375 -46.03125 53.484375 -46.03125 C 55.285156 -46.03125 56.632812 -45.488281 57.53125 -44.40625 C 58.425781 -43.320312 58.875 -41.796875 58.875 -39.828125 C 58.875 -36.410156 57.554688 -34.703125 54.921875 -34.703125 C 54.617188 -34.703125 54.195312 -34.757812 53.65625 -34.875 C 53.125 -35 52.738281 -35.0625 52.5 -35.0625 C 51.78125 -35.0625 51.179688 -34.609375 50.703125 -33.703125 C 50.222656 -32.804688 49.742188 -31.726562 49.265625 -30.46875 L 41.984375 -10.515625 C 40.421875 -6.140625 38.90625 -2.425781 37.4375 0.625 C 35.96875 3.6875 34.546875 6.175781 33.171875 8.09375 C 30.410156 12.039062 27.410156 14.988281 24.171875 16.9375 C 20.941406 18.882812 17.347656 19.859375 13.390625 19.859375 C 11.296875 19.859375 9.332031 19.601562 7.5 19.09375 C 5.675781 18.59375 4.070312 17.847656 2.6875 16.859375 C 1.3125 15.867188 0.222656 14.679688 -0.578125 13.296875 C -1.390625 11.921875 -1.796875 10.335938 -1.796875 8.546875 C -1.796875 6.378906 -1.035156 4.546875 0.484375 3.046875 C 2.015625 1.554688 3.890625 0.8125 6.109375 0.8125 C 7.785156 0.8125 9.238281 1.410156 10.46875 2.609375 C 11.695312 3.804688 12.3125 5.273438 12.3125 7.015625 C 12.3125 7.304688 12.28125 7.601562 12.21875 7.90625 C 12.164062 8.207031 12.109375 8.539062 12.046875 8.90625 C 12.703125 9.382812 13.421875 9.625 14.203125 9.625 C 14.984375 9.625 15.804688 9.335938 16.671875 8.765625 C 17.546875 8.191406 18.328125 7.5 19.015625 6.6875 C 19.703125 5.882812 20.269531 5.03125 20.71875 4.125 C 21.164062 3.226562 21.390625 2.421875 21.390625 1.703125 C 21.390625 0.984375 21.085938 -0.269531 20.484375 -2.0625 C 19.890625 -3.863281 19.054688 -6.050781 17.984375 -8.625 L 8.984375 -29.9375 C 8.503906 -31.070312 8.023438 -32.175781 7.546875 -33.25 C 7.066406 -34.332031 6.410156 -34.875 5.578125 -34.875 C 5.210938 -34.875 4.863281 -34.84375 4.53125 -34.78125 C 4.207031 -34.726562 3.863281 -34.703125 3.5 -34.703125 C 2.25 -34.703125 1.273438 -35.148438 0.578125 -36.046875 C -0.109375 -36.941406 -0.453125 -38.203125 -0.453125 -39.828125 C -0.453125 -41.679688 -0.00390625 -43.175781 0.890625 -44.3125 C 1.796875 -45.457031 3.144531 -46.03125 4.9375 -46.03125 Z M 4.9375 -46.03125 "/></g></g></g><g fill="#000000" fill-opacity="1"><g transform="translate(80.177515, 82.105456)"><g><path d="M 5.484375 -61.671875 C 6.078125 -61.671875 7.332031 -61.625 9.25 -61.53125 C 11.175781 -61.4375 13.394531 -61.328125 15.90625 -61.203125 C 18.425781 -61.085938 21.0625 -60.984375 23.8125 -60.890625 C 26.570312 -60.804688 29.09375 -60.765625 31.375 -60.765625 C 33.644531 -60.765625 36.160156 -60.804688 38.921875 -60.890625 C 41.679688 -60.984375 44.300781 -61.085938 46.78125 -61.203125 C 49.269531 -61.328125 51.472656 -61.4375 53.390625 -61.53125 C 55.304688 -61.625 56.566406 -61.671875 57.171875 -61.671875 C 58.671875 -61.671875 59.835938 -61.382812 60.671875 -60.8125 C 61.515625 -60.238281 61.9375 -59.203125 61.9375 -57.703125 C 61.9375 -56.453125 61.859375 -55.117188 61.703125 -53.703125 C 61.554688 -52.296875 61.484375 -50.90625 61.484375 -49.53125 C 61.484375 -48.03125 61.554688 -46.515625 61.703125 -44.984375 C 61.859375 -43.460938 61.9375 -42.070312 61.9375 -40.8125 C 61.9375 -38.65625 61.335938 -36.828125 60.140625 -35.328125 C 58.941406 -33.828125 57.171875 -33.078125 54.828125 -33.078125 C 52.554688 -33.078125 50.832031 -33.765625 49.65625 -35.140625 C 48.488281 -36.523438 47.90625 -38.503906 47.90625 -41.078125 C 47.90625 -42.097656 47.992188 -43.085938 48.171875 -44.046875 C 48.359375 -45.003906 48.453125 -45.929688 48.453125 -46.828125 C 48.453125 -47.785156 48.046875 -48.550781 47.234375 -49.125 C 46.429688 -49.695312 45.425781 -49.984375 44.21875 -49.984375 C 42.488281 -49.984375 41.289062 -49.472656 40.625 -48.453125 C 39.96875 -47.429688 39.640625 -45.660156 39.640625 -43.140625 L 39.640625 -18.25 C 39.640625 -17.40625 39.671875 -16.578125 39.734375 -15.765625 C 39.796875 -14.960938 39.929688 -14.226562 40.140625 -13.5625 C 40.347656 -12.90625 40.628906 -12.382812 40.984375 -12 C 41.347656 -11.613281 41.859375 -11.421875 42.515625 -11.421875 C 43.359375 -11.421875 44.179688 -11.523438 44.984375 -11.734375 C 45.796875 -11.941406 46.625 -12.046875 47.46875 -12.046875 C 49.144531 -12.046875 50.519531 -11.429688 51.59375 -10.203125 C 52.675781 -8.972656 53.21875 -7.578125 53.21875 -6.015625 C 53.21875 -4.046875 52.523438 -2.398438 51.140625 -1.078125 C 49.765625 0.242188 47.789062 0.90625 45.21875 0.90625 C 43.113281 0.90625 40.90625 0.753906 38.59375 0.453125 C 36.289062 0.148438 33.882812 0 31.375 0 C 30.414062 0 29.289062 0.0390625 28 0.125 C 26.707031 0.21875 25.398438 0.320312 24.078125 0.4375 C 22.765625 0.5625 21.507812 0.671875 20.3125 0.765625 C 19.113281 0.859375 18.125 0.90625 17.34375 0.90625 C 14.832031 0.90625 12.882812 0.234375 11.5 -1.109375 C 10.125 -2.460938 9.4375 -4.097656 9.4375 -6.015625 C 9.4375 -7.578125 9.972656 -8.972656 11.046875 -10.203125 C 12.128906 -11.429688 13.507812 -12.046875 15.1875 -12.046875 C 16.03125 -12.046875 16.851562 -11.941406 17.65625 -11.734375 C 18.46875 -11.523438 19.320312 -11.421875 20.21875 -11.421875 C 20.820312 -11.421875 21.300781 -11.613281 21.65625 -12 C 22.019531 -12.382812 22.304688 -12.890625 22.515625 -13.515625 C 22.722656 -14.148438 22.859375 -14.875 22.921875 -15.6875 C 22.984375 -16.5 23.015625 -17.351562 23.015625 -18.25 L 23.015625 -43.140625 C 23.015625 -45.660156 22.679688 -47.429688 22.015625 -48.453125 C 21.359375 -49.472656 20.160156 -49.984375 18.421875 -49.984375 C 17.285156 -49.984375 16.296875 -49.695312 15.453125 -49.125 C 14.617188 -48.550781 14.203125 -47.785156 14.203125 -46.828125 C 14.203125 -45.929688 14.289062 -45.003906 14.46875 -44.046875 C 14.644531 -43.085938 14.734375 -42.097656 14.734375 -41.078125 C 14.734375 -38.503906 14.148438 -36.523438 12.984375 -35.140625 C 11.816406 -33.765625 10.097656 -33.078125 7.828125 -33.078125 C 5.609375 -33.078125 3.867188 -33.8125 2.609375 -35.28125 C 1.347656 -36.75 0.71875 -38.5625 0.71875 -40.71875 C 0.71875 -42.09375 0.789062 -43.53125 0.9375 -45.03125 C 1.09375 -46.53125 1.171875 -48.03125 1.171875 -49.53125 C 1.171875 -50.90625 1.09375 -52.296875 0.9375 -53.703125 C 0.789062 -55.117188 0.71875 -56.453125 0.71875 -57.703125 C 0.71875 -59.203125 1.132812 -60.238281 1.96875 -60.8125 C 2.8125 -61.382812 3.984375 -61.671875 5.484375 -61.671875 Z M 5.484375 -61.671875 "/></g></g></g><g fill="#000000" fill-opacity="1"><g transform="translate(143.094706, 82.105456)"><g><path d="M 17.703125 -31.375 C 17.703125 -30.71875 18.0625 -30.34375 18.78125 -30.25 C 19.5 -30.15625 20.25 -30.109375 21.03125 -30.109375 L 30.390625 -30.109375 C 31.347656 -30.109375 31.988281 -30.179688 32.3125 -30.328125 C 32.644531 -30.484375 32.8125 -30.921875 32.8125 -31.640625 C 32.8125 -33.078125 32.179688 -34.363281 30.921875 -35.5 C 29.660156 -36.644531 28.039062 -37.21875 26.0625 -37.21875 C 25.050781 -37.21875 24.035156 -37.035156 23.015625 -36.671875 C 21.992188 -36.316406 21.09375 -35.835938 20.3125 -35.234375 C 19.53125 -34.640625 18.898438 -33.992188 18.421875 -33.296875 C 17.941406 -32.609375 17.703125 -31.96875 17.703125 -31.375 Z M 25.984375 -47.375 C 32.804688 -47.375 38.117188 -45.46875 41.921875 -41.65625 C 45.734375 -37.851562 47.640625 -32.597656 47.640625 -25.890625 C 47.640625 -23.546875 47.28125 -22 46.5625 -21.25 C 45.84375 -20.507812 44.34375 -20.140625 42.0625 -20.140625 L 19.59375 -20.140625 C 18.695312 -20.140625 18.082031 -20.03125 17.75 -19.8125 C 17.425781 -19.601562 17.265625 -19.082031 17.265625 -18.25 C 17.265625 -16.988281 17.503906 -15.800781 17.984375 -14.6875 C 18.460938 -13.582031 19.101562 -12.625 19.90625 -11.8125 C 20.71875 -11.007812 21.691406 -10.382812 22.828125 -9.9375 C 23.972656 -9.488281 25.203125 -9.265625 26.515625 -9.265625 C 27.953125 -9.265625 29.179688 -9.488281 30.203125 -9.9375 C 31.222656 -10.382812 32.421875 -11.328125 33.796875 -12.765625 C 34.453125 -13.484375 35.050781 -14.082031 35.59375 -14.5625 C 36.132812 -15.039062 36.644531 -15.414062 37.125 -15.6875 C 37.601562 -15.957031 38.125 -16.132812 38.6875 -16.21875 C 39.257812 -16.3125 39.90625 -16.359375 40.625 -16.359375 C 42.363281 -16.359375 43.832031 -15.863281 45.03125 -14.875 C 46.226562 -13.882812 46.828125 -12.492188 46.828125 -10.703125 C 46.828125 -8.960938 46.300781 -7.328125 45.25 -5.796875 C 44.207031 -4.265625 42.753906 -2.914062 40.890625 -1.75 C 39.035156 -0.582031 36.863281 0.34375 34.375 1.03125 C 31.894531 1.71875 29.21875 2.0625 26.34375 2.0625 C 22.6875 2.0625 19.390625 1.476562 16.453125 0.3125 C 13.515625 -0.851562 11.007812 -2.5 8.9375 -4.625 C 6.875 -6.757812 5.269531 -9.320312 4.125 -12.3125 C 2.988281 -15.3125 2.421875 -18.664062 2.421875 -22.375 C 2.421875 -26.03125 2.988281 -29.398438 4.125 -32.484375 C 5.269531 -35.578125 6.875 -38.21875 8.9375 -40.40625 C 11.007812 -42.59375 13.484375 -44.300781 16.359375 -45.53125 C 19.234375 -46.757812 22.441406 -47.375 25.984375 -47.375 Z M 25.984375 -47.375 "/></g></g></g><g fill="#000000" fill-opacity="1"><g transform="translate(193.428465, 82.105456)"><g><path d="M 34.703125 -46.921875 C 36.253906 -46.921875 37.75 -46.632812 39.1875 -46.0625 C 40.625 -45.5 41.878906 -44.707031 42.953125 -43.6875 C 44.035156 -42.664062 44.90625 -41.476562 45.5625 -40.125 C 46.226562 -38.78125 46.5625 -37.300781 46.5625 -35.6875 C 46.5625 -33.164062 45.84375 -31.066406 44.40625 -29.390625 C 42.96875 -27.710938 41.109375 -26.875 38.828125 -26.875 C 37.035156 -26.875 35.539062 -27.410156 34.34375 -28.484375 C 33.144531 -29.566406 32.546875 -30.976562 32.546875 -32.71875 C 32.546875 -33.375 32.664062 -33.988281 32.90625 -34.5625 C 33.144531 -35.132812 33.382812 -35.6875 33.625 -36.21875 L 32.71875 -36.21875 C 31.28125 -36.21875 29.988281 -35.890625 28.84375 -35.234375 C 27.707031 -34.578125 26.71875 -33.484375 25.875 -31.953125 C 25.039062 -30.421875 24.398438 -28.378906 23.953125 -25.828125 C 23.503906 -23.285156 23.28125 -20.128906 23.28125 -16.359375 C 23.28125 -13.960938 23.398438 -12.269531 23.640625 -11.28125 C 23.878906 -10.289062 24.300781 -9.796875 24.90625 -9.796875 C 25.257812 -9.796875 25.691406 -9.898438 26.203125 -10.109375 C 26.710938 -10.316406 27.265625 -10.421875 27.859375 -10.421875 C 29.179688 -10.421875 30.171875 -9.972656 30.828125 -9.078125 C 31.492188 -8.179688 31.828125 -6.921875 31.828125 -5.296875 C 31.828125 -3.503906 31.421875 -2.019531 30.609375 -0.84375 C 29.796875 0.320312 28.640625 0.90625 27.140625 0.90625 C 26.304688 0.90625 25.316406 0.859375 24.171875 0.765625 C 23.035156 0.671875 21.910156 0.5625 20.796875 0.4375 C 19.691406 0.320312 18.628906 0.21875 17.609375 0.125 C 16.597656 0.0390625 15.789062 0 15.1875 0 C 13.507812 0 11.800781 0.148438 10.0625 0.453125 C 8.320312 0.753906 6.707031 0.90625 5.21875 0.90625 C 3.78125 0.90625 2.65625 0.320312 1.84375 -0.84375 C 1.03125 -2.019531 0.625 -3.503906 0.625 -5.296875 C 0.625 -6.921875 0.953125 -8.179688 1.609375 -9.078125 C 2.273438 -9.972656 3.265625 -10.421875 4.578125 -10.421875 C 5.003906 -10.421875 5.5625 -10.316406 6.25 -10.109375 C 6.9375 -9.898438 7.367188 -9.796875 7.546875 -9.796875 C 7.910156 -9.796875 8.210938 -9.972656 8.453125 -10.328125 C 8.691406 -10.691406 8.851562 -11.144531 8.9375 -11.6875 C 9.03125 -12.226562 9.09375 -12.84375 9.125 -13.53125 C 9.15625 -14.21875 9.171875 -14.890625 9.171875 -15.546875 L 9.171875 -29.125 C 9.171875 -30.6875 9.140625 -31.882812 9.078125 -32.71875 C 9.015625 -33.5625 8.921875 -34.175781 8.796875 -34.5625 C 8.679688 -34.945312 8.519531 -35.171875 8.3125 -35.234375 C 8.101562 -35.296875 7.847656 -35.328125 7.546875 -35.328125 C 7.128906 -35.328125 6.679688 -35.222656 6.203125 -35.015625 C 5.722656 -34.804688 5.179688 -34.703125 4.578125 -34.703125 C 3.265625 -34.703125 2.273438 -35.148438 1.609375 -36.046875 C 0.953125 -36.941406 0.625 -38.203125 0.625 -39.828125 C 0.625 -41.617188 1.015625 -43.097656 1.796875 -44.265625 C 2.578125 -45.441406 3.71875 -46.03125 5.21875 -46.03125 C 6.113281 -46.03125 7.203125 -45.878906 8.484375 -45.578125 C 9.773438 -45.273438 10.722656 -45.125 11.328125 -45.125 C 12.347656 -45.125 13.335938 -45.273438 14.296875 -45.578125 C 15.253906 -45.878906 16.242188 -46.03125 17.265625 -46.03125 C 18.398438 -46.03125 19.144531 -45.742188 19.5 -45.171875 C 19.863281 -44.597656 20.046875 -43.679688 20.046875 -42.421875 L 20.046875 -35.421875 L 20.21875 -35.421875 C 20.9375 -39.191406 22.582031 -42.050781 25.15625 -44 C 27.738281 -45.945312 30.921875 -46.921875 34.703125 -46.921875 Z M 34.703125 -46.921875 "/></g></g></g><g fill="#000000" fill-opacity="1"><g transform="translate(240.166951, 82.105456)"><g><path d="M 35.78125 -47.375 C 38.289062 -47.375 40.550781 -46.742188 42.5625 -45.484375 C 44.570312 -44.222656 46.234375 -42.546875 47.546875 -40.453125 C 50.609375 -43.148438 53.304688 -44.976562 55.640625 -45.9375 C 57.972656 -46.894531 60.460938 -47.375 63.109375 -47.375 C 66.335938 -47.375 69.269531 -46.566406 71.90625 -44.953125 C 73.226562 -44.109375 74.335938 -43.222656 75.234375 -42.296875 C 76.140625 -41.367188 76.875 -40.273438 77.4375 -39.015625 C 78.007812 -37.753906 78.414062 -36.285156 78.65625 -34.609375 C 78.894531 -32.929688 79.015625 -30.921875 79.015625 -28.578125 L 79.015625 -14.015625 C 79.015625 -11.203125 79.582031 -9.796875 80.71875 -9.796875 C 81.082031 -9.796875 81.519531 -9.898438 82.03125 -10.109375 C 82.539062 -10.316406 83.09375 -10.421875 83.6875 -10.421875 C 86.320312 -10.421875 87.640625 -8.710938 87.640625 -5.296875 C 87.640625 -3.378906 87.191406 -1.863281 86.296875 -0.75 C 85.398438 0.351562 84.050781 0.90625 82.25 0.90625 C 80.632812 0.90625 79.015625 0.753906 77.390625 0.453125 C 75.773438 0.148438 74.160156 0 72.546875 0 C 71.046875 0 69.578125 0.148438 68.140625 0.453125 C 66.703125 0.753906 65.289062 0.90625 63.90625 0.90625 C 62.226562 0.90625 61.015625 0.363281 60.265625 -0.71875 C 59.515625 -1.800781 59.140625 -3.328125 59.140625 -5.296875 C 59.140625 -8.710938 60.007812 -10.421875 61.75 -10.421875 C 62.113281 -10.421875 62.503906 -10.316406 62.921875 -10.109375 C 63.335938 -9.898438 63.640625 -9.796875 63.828125 -9.796875 C 64.359375 -9.796875 64.671875 -10.378906 64.765625 -11.546875 C 64.859375 -12.710938 64.90625 -13.925781 64.90625 -15.1875 L 64.90625 -27.328125 C 64.90625 -32.054688 62.894531 -34.421875 58.875 -34.421875 C 58.394531 -34.421875 57.734375 -34.347656 56.890625 -34.203125 C 56.054688 -34.054688 55.203125 -33.664062 54.328125 -33.03125 C 53.460938 -32.40625 52.710938 -31.429688 52.078125 -30.109375 C 51.453125 -28.796875 51.140625 -26.941406 51.140625 -24.546875 L 51.140625 -13.21875 C 51.140625 -11.957031 51.242188 -11.070312 51.453125 -10.5625 C 51.671875 -10.050781 51.925781 -9.796875 52.21875 -9.796875 C 52.46875 -9.796875 52.785156 -9.898438 53.171875 -10.109375 C 53.554688 -10.316406 53.929688 -10.421875 54.296875 -10.421875 C 56.035156 -10.421875 56.90625 -8.742188 56.90625 -5.390625 C 56.90625 -3.410156 56.585938 -1.863281 55.953125 -0.75 C 55.328125 0.351562 54.382812 0.90625 53.125 0.90625 C 51.5625 0.90625 49.972656 0.753906 48.359375 0.453125 C 46.742188 0.148438 45.125 0 43.5 0 C 42.007812 0 40.53125 0.148438 39.0625 0.453125 C 37.59375 0.753906 36.226562 0.90625 34.96875 0.90625 C 33.707031 0.90625 32.773438 0.363281 32.171875 -0.71875 C 31.578125 -1.800781 31.28125 -3.328125 31.28125 -5.296875 C 31.28125 -8.710938 32.148438 -10.421875 33.890625 -10.421875 C 34.242188 -10.421875 34.613281 -10.316406 35 -10.109375 C 35.394531 -9.898438 35.710938 -9.796875 35.953125 -9.796875 C 36.191406 -9.796875 36.382812 -9.957031 36.53125 -10.28125 C 36.6875 -10.613281 36.804688 -11.050781 36.890625 -11.59375 C 36.984375 -12.132812 37.03125 -12.734375 37.03125 -13.390625 C 37.03125 -14.046875 37.03125 -14.675781 37.03125 -15.28125 L 37.03125 -27.5 C 37.03125 -32.113281 35.203125 -34.421875 31.546875 -34.421875 C 30.535156 -34.421875 29.535156 -34.269531 28.546875 -33.96875 C 27.554688 -33.675781 26.671875 -33.15625 25.890625 -32.40625 C 25.109375 -31.65625 24.476562 -30.617188 24 -29.296875 C 23.519531 -27.984375 23.28125 -26.335938 23.28125 -24.359375 L 23.28125 -14.46875 C 23.28125 -11.351562 23.640625 -9.796875 24.359375 -9.796875 C 24.597656 -9.796875 24.910156 -9.898438 25.296875 -10.109375 C 25.691406 -10.316406 26.066406 -10.421875 26.421875 -10.421875 C 27.085938 -10.421875 27.6875 -10.046875 28.21875 -9.296875 C 28.757812 -8.554688 29.03125 -7.253906 29.03125 -5.390625 C 29.03125 -3.535156 28.726562 -2.019531 28.125 -0.84375 C 27.53125 0.320312 26.601562 0.90625 25.34375 0.90625 C 23.488281 0.90625 21.628906 0.753906 19.765625 0.453125 C 17.910156 0.148438 16.085938 0 14.296875 0 C 12.617188 0 10.925781 0.148438 9.21875 0.453125 C 7.507812 0.753906 5.9375 0.90625 4.5 0.90625 C 3.300781 0.90625 2.351562 0.273438 1.65625 -0.984375 C 0.96875 -2.242188 0.625 -3.679688 0.625 -5.296875 C 0.625 -6.921875 0.953125 -8.179688 1.609375 -9.078125 C 2.273438 -9.972656 3.265625 -10.421875 4.578125 -10.421875 C 5.003906 -10.421875 5.5625 -10.316406 6.25 -10.109375 C 6.9375 -9.898438 7.367188 -9.796875 7.546875 -9.796875 C 8.265625 -9.796875 8.710938 -10.226562 8.890625 -11.09375 C 9.078125 -11.96875 9.171875 -13.394531 9.171875 -15.375 L 9.171875 -26.0625 C 9.171875 -27.925781 9.15625 -29.472656 9.125 -30.703125 C 9.09375 -31.929688 9.015625 -32.875 8.890625 -33.53125 C 8.773438 -34.1875 8.613281 -34.648438 8.40625 -34.921875 C 8.195312 -35.191406 7.910156 -35.328125 7.546875 -35.328125 C 7.128906 -35.328125 6.679688 -35.222656 6.203125 -35.015625 C 5.722656 -34.804688 5.179688 -34.703125 4.578125 -34.703125 C 1.941406 -34.703125 0.625 -36.410156 0.625 -39.828125 C 0.625 -41.554688 0.953125 -43.019531 1.609375 -44.21875 C 2.273438 -45.425781 3.117188 -46.03125 4.140625 -46.03125 C 5.148438 -46.03125 6.222656 -45.878906 7.359375 -45.578125 C 8.503906 -45.273438 9.617188 -45.125 10.703125 -45.125 C 11.898438 -45.125 13.097656 -45.273438 14.296875 -45.578125 C 15.492188 -45.878906 16.75 -46.03125 18.0625 -46.03125 C 19.019531 -46.03125 19.753906 -45.757812 20.265625 -45.21875 C 20.773438 -44.675781 21.03125 -43.414062 21.03125 -41.4375 L 21.03125 -40.453125 C 22.945312 -42.546875 25.191406 -44.222656 27.765625 -45.484375 C 30.347656 -46.742188 33.019531 -47.375 35.78125 -47.375 Z M 35.78125 -47.375 "/></g></g></g><g fill="#000000" fill-opacity="1"><g transform="translate(328.251027, 82.105456)"><g><path d="M 6.015625 -46.03125 C 7.273438 -46.03125 8.519531 -45.878906 9.75 -45.578125 C 10.976562 -45.273438 12.191406 -45.125 13.390625 -45.125 C 14.710938 -45.125 16.046875 -45.273438 17.390625 -45.578125 C 18.742188 -45.878906 20.019531 -46.03125 21.21875 -46.03125 C 22.351562 -46.03125 23.097656 -45.640625 23.453125 -44.859375 C 23.816406 -44.078125 24 -43.023438 24 -41.703125 L 24 -15.546875 C 24 -13.929688 24.101562 -12.566406 24.3125 -11.453125 C 24.519531 -10.347656 24.957031 -9.796875 25.625 -9.796875 C 25.914062 -9.796875 26.316406 -9.898438 26.828125 -10.109375 C 27.335938 -10.316406 27.894531 -10.421875 28.5 -10.421875 C 29.757812 -10.421875 30.734375 -9.972656 31.421875 -9.078125 C 32.109375 -8.179688 32.453125 -6.921875 32.453125 -5.296875 C 32.453125 -3.328125 32 -1.800781 31.09375 -0.71875 C 30.195312 0.363281 28.851562 0.90625 27.0625 0.90625 C 25.195312 0.90625 23.335938 0.753906 21.484375 0.453125 C 19.628906 0.148438 17.800781 0 16 0 C 14.257812 0 12.550781 0.148438 10.875 0.453125 C 9.195312 0.753906 7.578125 0.90625 6.015625 0.90625 C 4.222656 0.90625 2.875 0.351562 1.96875 -0.75 C 1.070312 -1.863281 0.625 -3.378906 0.625 -5.296875 C 0.625 -6.921875 0.953125 -8.179688 1.609375 -9.078125 C 2.273438 -9.972656 3.265625 -10.421875 4.578125 -10.421875 C 5.003906 -10.421875 5.5625 -10.316406 6.25 -10.109375 C 6.9375 -9.898438 7.367188 -9.796875 7.546875 -9.796875 C 8.210938 -9.796875 8.648438 -10.289062 8.859375 -11.28125 C 9.066406 -12.269531 9.171875 -13.691406 9.171875 -15.546875 L 9.171875 -29.9375 C 9.171875 -31.195312 9.109375 -32.410156 8.984375 -33.578125 C 8.867188 -34.742188 8.421875 -35.328125 7.640625 -35.328125 C 7.160156 -35.328125 6.679688 -35.222656 6.203125 -35.015625 C 5.722656 -34.804688 5.179688 -34.703125 4.578125 -34.703125 C 3.265625 -34.703125 2.273438 -35.148438 1.609375 -36.046875 C 0.953125 -36.941406 0.625 -38.203125 0.625 -39.828125 C 0.625 -41.679688 1.070312 -43.175781 1.96875 -44.3125 C 2.875 -45.457031 4.222656 -46.03125 6.015625 -46.03125 Z M 16 -66.515625 C 17.132812 -66.515625 18.226562 -66.289062 19.28125 -65.84375 C 20.332031 -65.394531 21.234375 -64.796875 21.984375 -64.046875 C 22.734375 -63.296875 23.332031 -62.394531 23.78125 -61.34375 C 24.226562 -60.300781 24.453125 -59.207031 24.453125 -58.0625 C 24.453125 -56.863281 24.226562 -55.753906 23.78125 -54.734375 C 23.332031 -53.722656 22.734375 -52.84375 21.984375 -52.09375 C 21.234375 -51.34375 20.332031 -50.742188 19.28125 -50.296875 C 18.226562 -49.847656 17.132812 -49.625 16 -49.625 C 14.863281 -49.625 13.785156 -49.847656 12.765625 -50.296875 C 11.742188 -50.742188 10.84375 -51.34375 10.0625 -52.09375 C 9.289062 -52.84375 8.675781 -53.722656 8.21875 -54.734375 C 7.769531 -55.753906 7.546875 -56.863281 7.546875 -58.0625 C 7.546875 -59.207031 7.769531 -60.300781 8.21875 -61.34375 C 8.675781 -62.394531 9.289062 -63.296875 10.0625 -64.046875 C 10.84375 -64.796875 11.742188 -65.394531 12.765625 -65.84375 C 13.785156 -66.289062 14.863281 -66.515625 16 -66.515625 Z M 16 -66.515625 "/></g></g></g><g fill="#000000" fill-opacity="1"><g transform="translate(360.608457, 82.105456)"><g><path d="M 36.21875 -47.375 C 38.4375 -47.375 40.472656 -46.96875 42.328125 -46.15625 C 44.191406 -45.351562 45.796875 -44.257812 47.140625 -42.875 C 48.492188 -41.5 49.554688 -39.835938 50.328125 -37.890625 C 51.109375 -35.941406 51.5 -33.859375 51.5 -31.640625 L 51.5 -15.46875 C 51.5 -14.800781 51.515625 -14.140625 51.546875 -13.484375 C 51.578125 -12.828125 51.632812 -12.226562 51.71875 -11.6875 C 51.8125 -11.144531 51.976562 -10.691406 52.21875 -10.328125 C 52.46875 -9.972656 52.769531 -9.796875 53.125 -9.796875 C 53.488281 -9.796875 53.921875 -9.898438 54.421875 -10.109375 C 54.929688 -10.316406 55.488281 -10.421875 56.09375 -10.421875 C 57.40625 -10.421875 58.390625 -9.972656 59.046875 -9.078125 C 59.710938 -8.179688 60.046875 -6.921875 60.046875 -5.296875 C 60.046875 -3.441406 59.59375 -1.941406 58.6875 -0.796875 C 57.789062 0.335938 56.445312 0.90625 54.65625 0.90625 C 52.789062 0.90625 50.929688 0.753906 49.078125 0.453125 C 47.222656 0.148438 45.394531 0 43.59375 0 C 42.21875 0 40.75 0.148438 39.1875 0.453125 C 37.632812 0.753906 36.257812 0.90625 35.0625 0.90625 C 33.800781 0.90625 32.867188 0.363281 32.265625 -0.71875 C 31.671875 -1.800781 31.375 -3.328125 31.375 -5.296875 C 31.375 -6.921875 31.628906 -8.179688 32.140625 -9.078125 C 32.648438 -9.972656 33.320312 -10.421875 34.15625 -10.421875 C 34.519531 -10.421875 34.894531 -10.316406 35.28125 -10.109375 C 35.664062 -9.898438 35.976562 -9.796875 36.21875 -9.796875 C 36.757812 -9.796875 37.085938 -10.171875 37.203125 -10.921875 C 37.328125 -11.671875 37.390625 -13.003906 37.390625 -14.921875 L 37.390625 -27.0625 C 37.390625 -32.15625 35.472656 -34.703125 31.640625 -34.703125 C 29.242188 -34.703125 27.25 -33.816406 25.65625 -32.046875 C 24.070312 -30.273438 23.28125 -27.921875 23.28125 -24.984375 L 23.28125 -14.375 C 23.28125 -11.320312 23.640625 -9.796875 24.359375 -9.796875 C 24.597656 -9.796875 24.910156 -9.898438 25.296875 -10.109375 C 25.691406 -10.316406 26.128906 -10.421875 26.609375 -10.421875 C 27.328125 -10.421875 27.953125 -10.03125 28.484375 -9.25 C 29.023438 -8.476562 29.296875 -7.191406 29.296875 -5.390625 C 29.296875 -3.535156 28.992188 -2.019531 28.390625 -0.84375 C 27.796875 0.320312 26.875 0.90625 25.625 0.90625 C 24.90625 0.90625 24.050781 0.859375 23.0625 0.765625 C 22.070312 0.671875 21.035156 0.5625 19.953125 0.4375 C 18.878906 0.320312 17.832031 0.21875 16.8125 0.125 C 15.789062 0.0390625 14.953125 0 14.296875 0 C 12.617188 0 10.925781 0.148438 9.21875 0.453125 C 7.507812 0.753906 5.9375 0.90625 4.5 0.90625 C 3.300781 0.90625 2.351562 0.273438 1.65625 -0.984375 C 0.96875 -2.242188 0.625 -3.679688 0.625 -5.296875 C 0.625 -6.921875 0.953125 -8.179688 1.609375 -9.078125 C 2.273438 -9.972656 3.265625 -10.421875 4.578125 -10.421875 C 5.003906 -10.421875 5.5625 -10.316406 6.25 -10.109375 C 6.9375 -9.898438 7.367188 -9.796875 7.546875 -9.796875 C 8.265625 -9.796875 8.710938 -10.226562 8.890625 -11.09375 C 9.078125 -11.96875 9.171875 -13.394531 9.171875 -15.375 L 9.171875 -26.0625 C 9.171875 -27.925781 9.15625 -29.472656 9.125 -30.703125 C 9.09375 -31.929688 9.015625 -32.875 8.890625 -33.53125 C 8.773438 -34.1875 8.613281 -34.648438 8.40625 -34.921875 C 8.195312 -35.191406 7.910156 -35.328125 7.546875 -35.328125 C 7.128906 -35.328125 6.679688 -35.222656 6.203125 -35.015625 C 5.722656 -34.804688 5.179688 -34.703125 4.578125 -34.703125 C 1.941406 -34.703125 0.625 -36.410156 0.625 -39.828125 C 0.625 -41.554688 0.953125 -43.019531 1.609375 -44.21875 C 2.273438 -45.425781 3.117188 -46.03125 4.140625 -46.03125 C 4.492188 -46.03125 4.96875 -45.984375 5.5625 -45.890625 C 6.164062 -45.796875 6.8125 -45.6875 7.5 -45.5625 C 8.195312 -45.445312 8.890625 -45.34375 9.578125 -45.25 C 10.265625 -45.164062 10.878906 -45.125 11.421875 -45.125 C 12.378906 -45.125 13.5 -45.273438 14.78125 -45.578125 C 16.070312 -45.878906 17.109375 -46.03125 17.890625 -46.03125 C 19.085938 -46.03125 19.804688 -45.710938 20.046875 -45.078125 C 20.285156 -44.453125 20.40625 -43.628906 20.40625 -42.609375 L 20.40625 -39.109375 L 20.578125 -39.109375 C 22.796875 -41.859375 25.238281 -43.921875 27.90625 -45.296875 C 30.570312 -46.679688 33.34375 -47.375 36.21875 -47.375 Z M 36.21875 -47.375 "/></g></g></g><g fill="#000000" fill-opacity="1"><g transform="translate(421.728022, 82.105456)"><g><path d="M 17.265625 -22.65625 C 17.265625 -18.34375 18.023438 -15.03125 19.546875 -12.71875 C 21.078125 -10.414062 23.28125 -9.265625 26.15625 -9.265625 C 28.007812 -9.265625 29.503906 -9.710938 30.640625 -10.609375 C 31.785156 -11.503906 32.671875 -12.625 33.296875 -13.96875 C 33.929688 -15.320312 34.351562 -16.789062 34.5625 -18.375 C 34.769531 -19.96875 34.875 -21.425781 34.875 -22.75 C 34.875 -27.0625 34.171875 -30.351562 32.765625 -32.625 C 31.359375 -34.90625 29.125 -36.046875 26.0625 -36.046875 C 23.488281 -36.046875 21.378906 -34.90625 19.734375 -32.625 C 18.085938 -30.351562 17.265625 -27.03125 17.265625 -22.65625 Z M 26.34375 -47.375 C 29.9375 -47.375 33.171875 -46.800781 36.046875 -45.65625 C 38.921875 -44.519531 41.375 -42.90625 43.40625 -40.8125 C 45.445312 -38.71875 47.003906 -36.171875 48.078125 -33.171875 C 49.160156 -30.171875 49.703125 -26.84375 49.703125 -23.1875 C 49.703125 -15.15625 47.695312 -8.9375 43.6875 -4.53125 C 39.675781 -0.132812 33.921875 2.0625 26.421875 2.0625 C 18.628906 2.0625 12.679688 -0.109375 8.578125 -4.453125 C 4.472656 -8.796875 2.421875 -14.863281 2.421875 -22.65625 C 2.421875 -30.445312 4.488281 -36.515625 8.625 -40.859375 C 12.757812 -45.203125 18.664062 -47.375 26.34375 -47.375 Z M 26.34375 -47.375 "/></g></g></g><g fill="#000000" fill-opacity="1"><g transform="translate(473.859429, 82.105456)"><g><path d="M 5.9375 -61.671875 C 7.070312 -61.671875 8.238281 -61.519531 9.4375 -61.21875 C 10.632812 -60.914062 11.863281 -60.765625 13.125 -60.765625 C 14.445312 -60.765625 15.765625 -60.914062 17.078125 -61.21875 C 18.398438 -61.519531 19.6875 -61.671875 20.9375 -61.671875 C 22.144531 -61.671875 22.957031 -61.265625 23.375 -60.453125 C 23.789062 -59.640625 24 -58.515625 24 -57.078125 L 24 -15.546875 C 24 -13.929688 24.101562 -12.566406 24.3125 -11.453125 C 24.519531 -10.347656 24.957031 -9.796875 25.625 -9.796875 C 25.914062 -9.796875 26.316406 -9.898438 26.828125 -10.109375 C 27.335938 -10.316406 27.894531 -10.421875 28.5 -10.421875 C 29.757812 -10.421875 30.734375 -9.972656 31.421875 -9.078125 C 32.109375 -8.179688 32.453125 -6.921875 32.453125 -5.296875 C 32.453125 -3.328125 32 -1.800781 31.09375 -0.71875 C 30.195312 0.363281 28.851562 0.90625 27.0625 0.90625 C 25.195312 0.90625 23.335938 0.753906 21.484375 0.453125 C 19.628906 0.148438 17.800781 0 16 0 C 14.257812 0 12.550781 0.148438 10.875 0.453125 C 9.195312 0.753906 7.578125 0.90625 6.015625 0.90625 C 4.222656 0.90625 2.875 0.351562 1.96875 -0.75 C 1.070312 -1.863281 0.625 -3.378906 0.625 -5.296875 C 0.625 -6.921875 0.953125 -8.179688 1.609375 -9.078125 C 2.273438 -9.972656 3.265625 -10.421875 4.578125 -10.421875 C 5.003906 -10.421875 5.5625 -10.316406 6.25 -10.109375 C 6.9375 -9.898438 7.367188 -9.796875 7.546875 -9.796875 C 8.210938 -9.796875 8.648438 -10.289062 8.859375 -11.28125 C 9.066406 -12.269531 9.171875 -13.691406 9.171875 -15.546875 L 9.171875 -45.671875 C 9.171875 -46.921875 9.109375 -48.097656 8.984375 -49.203125 C 8.867188 -50.316406 8.390625 -50.875 7.546875 -50.875 C 7.128906 -50.875 6.679688 -50.769531 6.203125 -50.5625 C 5.722656 -50.351562 5.179688 -50.25 4.578125 -50.25 C 1.941406 -50.25 0.625 -51.957031 0.625 -55.375 C 0.625 -57.289062 1.070312 -58.816406 1.96875 -59.953125 C 2.875 -61.097656 4.195312 -61.671875 5.9375 -61.671875 Z M 5.9375 -61.671875 "/></g></g></g><g fill="#000000" fill-opacity="1"><g transform="translate(506.216837, 82.105456)"><g><path d="M 17.265625 -22.65625 C 17.265625 -18.34375 18.023438 -15.03125 19.546875 -12.71875 C 21.078125 -10.414062 23.28125 -9.265625 26.15625 -9.265625 C 28.007812 -9.265625 29.503906 -9.710938 30.640625 -10.609375 C 31.785156 -11.503906 32.671875 -12.625 33.296875 -13.96875 C 33.929688 -15.320312 34.351562 -16.789062 34.5625 -18.375 C 34.769531 -19.96875 34.875 -21.425781 34.875 -22.75 C 34.875 -27.0625 34.171875 -30.351562 32.765625 -32.625 C 31.359375 -34.90625 29.125 -36.046875 26.0625 -36.046875 C 23.488281 -36.046875 21.378906 -34.90625 19.734375 -32.625 C 18.085938 -30.351562 17.265625 -27.03125 17.265625 -22.65625 Z M 26.34375 -47.375 C 29.9375 -47.375 33.171875 -46.800781 36.046875 -45.65625 C 38.921875 -44.519531 41.375 -42.90625 43.40625 -40.8125 C 45.445312 -38.71875 47.003906 -36.171875 48.078125 -33.171875 C 49.160156 -30.171875 49.703125 -26.84375 49.703125 -23.1875 C 49.703125 -15.15625 47.695312 -8.9375 43.6875 -4.53125 C 39.675781 -0.132812 33.921875 2.0625 26.421875 2.0625 C 18.628906 2.0625 12.679688 -0.109375 8.578125 -4.453125 C 4.472656 -8.796875 2.421875 -14.863281 2.421875 -22.65625 C 2.421875 -30.445312 4.488281 -36.515625 8.625 -40.859375 C 12.757812 -45.203125 18.664062 -47.375 26.34375 -47.375 Z M 26.34375 -47.375 "/></g></g></g><g fill="#000000" fill-opacity="1"><g transform="translate(558.348221, 82.105456)"><g><path d="M 19.5 -0.90625 C 16.8125 0.113281 15.46875 1.523438 15.46875 3.328125 C 15.46875 5.066406 16.410156 6.3125 18.296875 7.0625 C 20.179688 7.8125 23.039062 8.1875 26.875 8.1875 C 30.65625 8.1875 33.382812 7.78125 35.0625 6.96875 C 36.738281 6.15625 37.578125 4.851562 37.578125 3.0625 C 37.578125 1.976562 37.066406 1.117188 36.046875 0.484375 C 35.023438 -0.140625 33.257812 -0.507812 30.75 -0.625 L 24.8125 -0.8125 C 24.15625 -0.8125 23.390625 -0.828125 22.515625 -0.859375 C 21.648438 -0.890625 20.644531 -0.90625 19.5 -0.90625 Z M 21.03125 -31.28125 C 21.03125 -29.664062 21.597656 -28.269531 22.734375 -27.09375 C 23.878906 -25.925781 25.320312 -25.34375 27.0625 -25.34375 C 28.738281 -25.34375 30.175781 -25.910156 31.375 -27.046875 C 32.570312 -28.191406 33.171875 -29.601562 33.171875 -31.28125 C 33.171875 -33.019531 32.597656 -34.457031 31.453125 -35.59375 C 30.316406 -36.726562 28.820312 -37.296875 26.96875 -37.296875 C 25.289062 -37.296875 23.878906 -36.726562 22.734375 -35.59375 C 21.597656 -34.457031 21.03125 -33.019531 21.03125 -31.28125 Z M 41.4375 -56.8125 C 42.875 -56.8125 44.207031 -56.613281 45.4375 -56.21875 C 46.664062 -55.832031 47.726562 -55.296875 48.625 -54.609375 C 49.53125 -53.921875 50.25 -53.082031 50.78125 -52.09375 C 51.320312 -51.101562 51.59375 -50.039062 51.59375 -48.90625 C 51.59375 -47.34375 51.050781 -46.066406 49.96875 -45.078125 C 48.894531 -44.085938 47.609375 -43.59375 46.109375 -43.59375 C 45.035156 -43.59375 44.195312 -43.816406 43.59375 -44.265625 C 43 -44.722656 42.367188 -45.550781 41.703125 -46.75 C 41.410156 -47.28125 40.960938 -47.546875 40.359375 -47.546875 C 39.703125 -47.546875 39.207031 -47.273438 38.875 -46.734375 C 38.550781 -46.203125 38.390625 -45.546875 38.390625 -44.765625 C 38.390625 -44.347656 38.445312 -44.078125 38.5625 -43.953125 C 41.320312 -43.117188 43.460938 -41.53125 44.984375 -39.1875 C 46.515625 -36.851562 47.28125 -34.160156 47.28125 -31.109375 C 47.28125 -30.742188 47.21875 -30.109375 47.09375 -29.203125 C 46.976562 -28.304688 46.695312 -27.289062 46.25 -26.15625 C 45.800781 -25.019531 45.140625 -23.835938 44.265625 -22.609375 C 43.398438 -21.378906 42.234375 -20.253906 40.765625 -19.234375 C 39.296875 -18.210938 37.46875 -17.375 35.28125 -16.71875 C 33.09375 -16.0625 30.441406 -15.734375 27.328125 -15.734375 C 25.472656 -15.734375 23.734375 -15.910156 22.109375 -16.265625 C 20.492188 -16.628906 18.785156 -17.203125 16.984375 -17.984375 C 16.566406 -17.554688 16.238281 -17.175781 16 -16.84375 C 15.757812 -16.519531 15.640625 -16.085938 15.640625 -15.546875 C 15.640625 -12.796875 18.1875 -11.421875 23.28125 -11.421875 L 34.78125 -11.421875 C 40.238281 -11.421875 44.507812 -10.25 47.59375 -7.90625 C 50.675781 -5.570312 52.21875 -2.15625 52.21875 2.34375 C 52.21875 4.789062 51.632812 7.078125 50.46875 9.203125 C 49.300781 11.335938 47.5625 13.164062 45.25 14.6875 C 42.945312 16.21875 40.117188 17.414062 36.765625 18.28125 C 33.410156 19.15625 29.546875 19.59375 25.171875 19.59375 C 21.453125 19.59375 18.09375 19.21875 15.09375 18.46875 C 12.101562 17.71875 9.554688 16.679688 7.453125 15.359375 C 5.359375 14.046875 3.742188 12.460938 2.609375 10.609375 C 1.472656 8.753906 0.90625 6.71875 0.90625 4.5 C 0.90625 -0.59375 3.988281 -3.976562 10.15625 -5.65625 L 10.15625 -5.84375 C 7.875 -6.082031 6.085938 -6.921875 4.796875 -8.359375 C 3.515625 -9.796875 2.875 -11.710938 2.875 -14.109375 C 2.875 -16.453125 3.425781 -18.367188 4.53125 -19.859375 C 5.644531 -21.359375 7.550781 -22.648438 10.25 -23.734375 C 9.113281 -24.992188 8.273438 -26.25 7.734375 -27.5 C 7.191406 -28.757812 6.921875 -30.226562 6.921875 -31.90625 C 6.921875 -34.25 7.457031 -36.347656 8.53125 -38.203125 C 9.613281 -40.054688 11.050781 -41.628906 12.84375 -42.921875 C 14.644531 -44.210938 16.710938 -45.21875 19.046875 -45.9375 C 21.390625 -46.65625 23.820312 -47.015625 26.34375 -47.015625 C 26.632812 -47.015625 27.078125 -47 27.671875 -46.96875 C 28.273438 -46.9375 29 -46.890625 29.84375 -46.828125 L 29.84375 -47.375 C 29.84375 -50.25 30.953125 -52.539062 33.171875 -54.25 C 35.390625 -55.957031 38.144531 -56.8125 41.4375 -56.8125 Z M 41.4375 -56.8125 "/></g></g></g><g fill="#000000" fill-opacity="1"><g transform="translate(610.479605, 82.105456)"><g><path d="M 4.9375 -46.03125 C 6.257812 -46.03125 7.65625 -45.878906 9.125 -45.578125 C 10.59375 -45.273438 12.101562 -45.125 13.65625 -45.125 C 15.28125 -45.125 16.898438 -45.273438 18.515625 -45.578125 C 20.128906 -45.878906 21.75 -46.03125 23.375 -46.03125 C 25.226562 -46.03125 26.570312 -45.535156 27.40625 -44.546875 C 28.25 -43.554688 28.671875 -42.25 28.671875 -40.625 C 28.671875 -39.1875 28.367188 -38.210938 27.765625 -37.703125 C 27.171875 -37.191406 26.5 -36.832031 25.75 -36.625 C 25 -36.414062 24.320312 -36.207031 23.71875 -36 C 23.125 -35.789062 22.828125 -35.328125 22.828125 -34.609375 C 22.828125 -34.367188 22.859375 -34.082031 22.921875 -33.75 C 22.984375 -33.425781 23.253906 -32.570312 23.734375 -31.1875 L 29.578125 -12.9375 L 29.75 -12.9375 L 35.59375 -30.296875 C 35.894531 -31.191406 36.164062 -32.039062 36.40625 -32.84375 C 36.644531 -33.65625 36.765625 -34.273438 36.765625 -34.703125 C 36.765625 -35.296875 36.195312 -35.773438 35.0625 -36.140625 C 32.78125 -36.910156 31.640625 -38.4375 31.640625 -40.71875 C 31.640625 -42.15625 32.070312 -43.398438 32.9375 -44.453125 C 33.8125 -45.503906 34.96875 -46.03125 36.40625 -46.03125 C 37.601562 -46.03125 38.890625 -45.878906 40.265625 -45.578125 C 41.648438 -45.273438 43.03125 -45.125 44.40625 -45.125 C 45.96875 -45.125 47.492188 -45.273438 48.984375 -45.578125 C 50.484375 -45.878906 51.984375 -46.03125 53.484375 -46.03125 C 55.285156 -46.03125 56.632812 -45.488281 57.53125 -44.40625 C 58.425781 -43.320312 58.875 -41.796875 58.875 -39.828125 C 58.875 -36.410156 57.554688 -34.703125 54.921875 -34.703125 C 54.617188 -34.703125 54.195312 -34.757812 53.65625 -34.875 C 53.125 -35 52.738281 -35.0625 52.5 -35.0625 C 51.78125 -35.0625 51.179688 -34.609375 50.703125 -33.703125 C 50.222656 -32.804688 49.742188 -31.726562 49.265625 -30.46875 L 41.984375 -10.515625 C 40.421875 -6.140625 38.90625 -2.425781 37.4375 0.625 C 35.96875 3.6875 34.546875 6.175781 33.171875 8.09375 C 30.410156 12.039062 27.410156 14.988281 24.171875 16.9375 C 20.941406 18.882812 17.347656 19.859375 13.390625 19.859375 C 11.296875 19.859375 9.332031 19.601562 7.5 19.09375 C 5.675781 18.59375 4.070312 17.847656 2.6875 16.859375 C 1.3125 15.867188 0.222656 14.679688 -0.578125 13.296875 C -1.390625 11.921875 -1.796875 10.335938 -1.796875 8.546875 C -1.796875 6.378906 -1.035156 4.546875 0.484375 3.046875 C 2.015625 1.554688 3.890625 0.8125 6.109375 0.8125 C 7.785156 0.8125 9.238281 1.410156 10.46875 2.609375 C 11.695312 3.804688 12.3125 5.273438 12.3125 7.015625 C 12.3125 7.304688 12.28125 7.601562 12.21875 7.90625 C 12.164062 8.207031 12.109375 8.539062 12.046875 8.90625 C 12.703125 9.382812 13.421875 9.625 14.203125 9.625 C 14.984375 9.625 15.804688 9.335938 16.671875 8.765625 C 17.546875 8.191406 18.328125 7.5 19.015625 6.6875 C 19.703125 5.882812 20.269531 5.03125 20.71875 4.125 C 21.164062 3.226562 21.390625 2.421875 21.390625 1.703125 C 21.390625 0.984375 21.085938 -0.269531 20.484375 -2.0625 C 19.890625 -3.863281 19.054688 -6.050781 17.984375 -8.625 L 8.984375 -29.9375 C 8.503906 -31.070312 8.023438 -32.175781 7.546875 -33.25 C 7.066406 -34.332031 6.410156 -34.875 5.578125 -34.875 C 5.210938 -34.875 4.863281 -34.84375 4.53125 -34.78125 C 4.207031 -34.726562 3.863281 -34.703125 3.5 -34.703125 C 2.25 -34.703125 1.273438 -35.148438 0.578125 -36.046875 C -0.109375 -36.941406 -0.453125 -38.203125 -0.453125 -39.828125 C -0.453125 -41.679688 -0.00390625 -43.175781 0.890625 -44.3125 C 1.796875 -45.457031 3.144531 -46.03125 4.9375 -46.03125 Z M 4.9375 -46.03125 "/></g></g></g></svg>